<mxfile host="app.diagrams.net" agent="Mozilla/5.0 (Windows NT 10.0; Win64; x64; rv:130.0) Gecko/20100101 Firefox/130.0" version="24.7.14">
  <diagram id="Ht1M8jgEwFfnCIfOTk4-" name="Page-1">
    <mxGraphModel grid="1" page="1" gridSize="5" guides="1" tooltips="1" connect="1" arrows="1" fold="1" pageScale="1" pageWidth="1400" pageHeight="850" math="0" shadow="0">
      <root>
        <mxCell id="0" />
        <mxCell id="1" parent="0" />
        <mxCell id="iXIntG2NBJSnMrhjwnnG-14" value="On-Premises" style="swimlane;startSize=0;labelPosition=center;verticalLabelPosition=top;align=center;verticalAlign=bottom;" vertex="1" parent="1">
          <mxGeometry x="40" y="40" width="510" height="487.5" as="geometry" />
        </mxCell>
        <mxCell id="iXIntG2NBJSnMrhjwnnG-2" value="NAS" style="sketch=0;pointerEvents=1;shadow=0;dashed=0;html=1;strokeColor=none;fillColor=#005F4B;labelPosition=center;verticalLabelPosition=bottom;verticalAlign=top;align=center;outlineConnect=0;shape=mxgraph.veeam2.nas;" vertex="1" parent="iXIntG2NBJSnMrhjwnnG-14">
          <mxGeometry x="256" y="190" width="78" height="78" as="geometry" />
        </mxCell>
        <mxCell id="iXIntG2NBJSnMrhjwnnG-7" style="edgeStyle=orthogonalEdgeStyle;rounded=0;orthogonalLoop=1;jettySize=auto;html=1;" edge="1" parent="iXIntG2NBJSnMrhjwnnG-14" source="iXIntG2NBJSnMrhjwnnG-3" target="iXIntG2NBJSnMrhjwnnG-2">
          <mxGeometry relative="1" as="geometry">
            <Array as="points">
              <mxPoint x="186" y="69" />
              <mxPoint x="186" y="229" />
            </Array>
          </mxGeometry>
        </mxCell>
        <mxCell id="iXIntG2NBJSnMrhjwnnG-3" value="Sequencer 1" style="shape=image;verticalLabelPosition=bottom;verticalAlign=top;imageAspect=0;aspect=fixed;image=data:image/png,iVBORw0KGgoAAAANSUhEUgAAAgAAAAIACAYAAAD0eNT6AAAACXBIWXMAAA7DAAAOwwHHb6hkAAAAGXRFWHRTb2Z0d2FyZQB3d3cuaW5rc2NhcGUub3Jnm+48GgAAIABJREFUeJzt3XmcTfXjx/H3ndXMMDN2soTsRIpKSRSyFO0LUkpkTX0jS6VESakQKRKlpI0kS1EpSiKVNVHZ92X27S6/Pyb9VJaZe8655957Xs/H4z56fJnz+bzdL/e871k+xyUAklROUgtJjSTV/OtVQlKCpGL2xQIcLeOv1zFJv0vaLGm9pK8k/WlbqjDhsjsAYKNqku6UdIukejZnAVA4v0uaK2mm8ksBCokCACdqKWmYpKvFvwEgHKyR9IykeZK8NmcJGXz4wUmaSHpJ0mV2BwFgiY2S/idpid1BQgEFAE6QKGmMpF6SImzOAsB6H0gaIGmf3UGCGQUA4a6RpPckVbc7CICAOiSpm6TFdgcJVpF2BwAs1E3Sx5LK2B0EQMAlSOosyS3pG5uzBCUKAMLVA5JekRRtdxAAtnEp/2Lf0so/EuCzN05woQAgHA2V9Jw4xQUg38WSKkhaYHeQYEIBQLjpJmmi2PkD+KcLJUVJ+sLuIMGCAoBw0lzSh+LvNYBTay5pu6Rf7A4SDPiWhHBRWtI65R/mA4DTyVD+miCb7Q5iN+6JRrh4Vez8AZxdgqRZ4kghbwDCQltJo+wOASBklFf+OgGr7Q5iJ04BINTFKP9QXjW7gwAIKSnKXyDssN1B7BJldwDAoDtl4s4/JjZW9RtepEZNLlOlKtWUlFxCScnF5XLRlYHCyMzKVHZOtqEx0tNSlZZyXPv37tamn9dq8/qflJWZYVJCJUkaKOlRswYMNXyqIZRFKv/bfw2jA0VHx6hV+07qcOMdSkgoajwZ4HA+SalpKfJ4PKaNmZebq2+WLdKyhR8rOyvTjCFTJJ37138dhwKAUNZO0kKjg1Q6t5r6Dx6h0mXLmxAJwAlut1up6ammj5uelqq3Xh2vbVs2mjFcX0mTzRgo1HARIELZU5LqGxmg4UWX6KHho5WYXNykSABOiIiIkMfrMfUogJR/qu6iS5spLSVFu3f8YXS4UpKmmRAr5FAAEKoSJL0uA2v9V6teSw8OH6XY2CLmpQLwD5ERkcrJzTF9XJcrQnUbXKi9u3fq4P69RoaqqPzbAo+Zkyx0sA4AQlUzSXH+blwsMUn9Bz+hmJhYEyMB+LfIyEhFRVpzvbnL5VLnHn1Vptw5RodqZUaeUEMBQKhqaWTjTrd0VXKJkmZlAXAGMTExlo0dG1tEHW+90+gwhj5PQhUFAKHqEn83LF2mnK5s3cHMLADOICbaugIgSXUaNFK1mnWMDNHUrCyhhAKAUFXb3w2bNr9aUVEsgQEESkREhCIirN3dNLn8SiObV5IUb1KUkEEBQChKlFTO340bNXFk2QdsFWnRdQAn1G1woZGS4ZIJ64mEGgoAQlEZfzeMiYnVudUc9+8csF2kxUcAihZLVGljFwOWNStLqKAAIBQV83fDpOIlWNYXsEEg/t0lGVvPw+/PlVBFAUAo8nutXoMfEAD8FIgCUCwp2dDmZuUIFRQAhCK/F7CKivJ73SAAQc7gv2/HXRlMAQAAwIEoAAAAOBAFAAAAB3LcOQ/ALnt379Tvv23Rvj27lJZ6XNlZWXZHAkwRW6SIihZLVNnyFVW1ek1VrnIed9uEAAoAYKED+/Zo+dKFWrXiSx07ctjuOEBAFC2WpCaXNdeVV7fTudWq2x0Hp0EBACxw5NABvT/rda3+drl8Pp/dcYCASk9L0ZdLPtGXSz7R+Y2a6LY771PJsn4v3gmLUAAAky1bPF/vvzVNOTnZdkcBbLd+3Q/a9Ms6XdPxJrVs18nyZwKg4CgAgEnceXma9vJz+n7lV3ZHAYKKx+PWwrlztHXzBt3d5yHFxSfYHQniLgDAFHl5uXrxmcfY+QNnsG3LRk0a+6Qy0tPsjgJRAADDfD6fprz4tDb98qPdUYCgt2/3Tk2b8KzycnPtjuJ4FADAoAUfztaPq7+1OwYQMnb+vk1zZ8+wO4bjUQAAA3b+uV3z3n/L7hhAyPn+my+08ee1dsdwNAoAYMCsaS/L6/HYHQMISfNmz5TH7bY7hmOF410AsZJq/vWqIinhr5eh50QiqJxjdwBJ2vTLj/pty0a7YwAh6+jhg/rh2+W6tPnVdkdxpHAoAC5JTSW1l9RS0sUKjz8XgtznC+fZHQEIed8sXUQBsEko7yhLS7pfUjdJrDWJgEpPS9H6dWvsjgGEvP17d2vPzj9VoXIVu6M4TiheA1BO0ouS/pQ0Uuz8YYONP/8oj4dzl4AZtmz4ye4IjhRKBSBCUk9JWyQNlBRvbxw4Gef+AfP8/tsWuyM4UqicAqgm6V1JTewOAkjS3t07DG1/7c23qkWbdoqLp8fCel6flGrRASu3O0/rVn6t+W+97vcdMQf27jY5FQoiFArAjZKmS0qyOwhwwpHDh/zetseABzV8zPMmpgHO7lCOS16Lxr7m5s46r259jRs8wK/tU44dlc/nk8vlMjkZziTYTwH0k/S+2PkjyORk+/+kv9u79zAxCVAwkRbvWzveea8io/z7Tun1elka2AbBXACelDRRwZ0RDmXkAsASpUubmAQoIIsLQGyROMUXLeb39lxUG3jBunPtJ+lxu0MAABCugrEA3CZpgt0hAAAIZ8FWAGpIek2WH6wCAMDZgqkAxEr6QFKi3UEAAAh3wVQABklqYHcIAACcIFgKQFVJw+wOAQCAUwTLQkAjJMWZOWBC0aK6uOllqlCpskqWLq2Spbj1KhB8Pq8yMnIsnWPXn39o9sxpls4BAOEuGApAVUmdzRrssuZX6u6evXVpsysUGxtr1rAoIK/Pq6NH0iydY90P31MAAMCgYCgAAyVFGx2kcpUqGjHmOTW7sqUJkQAACG92F4AYmfDt/6KLL9XL02eqRMmSJkQCACD82V0A2ksqZWSAZle21KtvvaOoaMMHEQAAcAy77wK4zsjGVc+rrhdfm8bOHwCAQrK7AFzl74Yul0vPvDRRiYk8KBAAgMKyswBUllTF343bdLhOjRo3MS8NAAAOYmcBqGdk4579BpiVAwAAx7HzIsBa/m5Yrvw5qtegoZlZgJDidrv1x29bdfjgQcXFxym+aFEVK5aosudUUESE3Wf27JOemqr09DRlpKUpIz1NaSmpSihWVAlFi6losWJKKFZMiUnJdse01aF9e5R54j1KS1WJMmVVsep5ii1i6lpsCAF2FoAq/m7YolVruVw8MBDOs3/vHr08ZrQWfPCeUo4f+8/vx8XHq3qtOqpVv76aNm+pFte0VYkwXAXT6/Vq/Y9r9PPaNdq6cYO2/bpFWzdu0LGjR866bdHERNWoXVc169ZT9dp11ODCi3ThJU3D8mLi9NRUfbPsc634Yqk2rF+v7Zs3KiMt9T8/FxefoObtO+mewY/p3Bp+fzdDiLGzAPj91L9KVaqamQMICV99tlj9u92h9NT/foCfkJWZqfXr1mr9urX64K2ZioiIUKOLL9Vtd9+rjrfertgiRQKY2FypKce1/LMl+nLJQi3/bImOHj7k1zjpqalat3qV1q1e9fevFUtMUrOrrlaLa9qrZdt2Kl22nFmxA87tduvzBfP1zuuvatXXy+XOyzvrNlmZGVrywTv6Yv4HGjxusq7rek8AksJudhaAov5uWLpMGTNzAEFv9Yqv1fPWG5SXm1uo7bxer9au+lZrV32rMY8OUZf7eqnnA/9T0cTQeer2xp/X6a1XJ+vjObOVnZVlyRxpqSlaNO8jLZr3kSKjonRNx+t1Z8/eurR5C0vms0JuTo7efHWy3pg0QXt37fRrjLzcXD094D7FxsWpzU13mJzQegaPDHvMyhEq7DxZ6PdXkWLc+gcHycnO1oP33lXonf+/HT18SBOfGaWWDWrr3TemyeMJ3s87n8+nxR/P1U0tm+napo01Z8Z0y3b+/+Zxu7Xwow90R9urdU3jhpozY7rcbndA5vbXonkfqfWF9TV6yMN+7/xP8Pl8GjPwfh09eMCkdIFjcN8Qen9gg5x7tRAQIubOnmX4Q/1khw8e0NC+vXRTy2ba8ft208Y1y4/ff6dbrm6u3nfcrB+//87WLFs3bdCQPvep/SWN9OWSRbZmOZUjhw6q+/Ud1KfzLdr5x++mjZuZnqY5UyaYNl6gVKjs9+lhr6R1JkYJCRQAIMh9Nn+eJeP+vGa1OjS9SHPfmWXJ+IW1d9dO9e16m26+6gqtXfWt3XH+4bfNm3TPDdeq67VttHXzRrvjSJK+Wfq52l3cSF99ttiS8Zd/as3fOyvVqtdA8Ql+nV1eLmmfyXGCHgUACHK//7bVsrEz0tL0UI+79OTDA+X1ei2b52w+njNbbZtcoIUffSCfz2dbjrNZ+cUydbz8Yk1/ebytOae+NE53dWqnQwf2WzbHrt9/kzeITxOdSkxsrFpfe2NhN/NKGm5BnKBHAQCCXFZmpuVzzJg8UX273Bqw8+wnpKWm6MF77tTA7l2VlpoS0Ln9lZOdracGP6RuHdvqwL69AZ3b6/Xqif89oKeHDba8gHjcbuXm5lg6hxWuaNVO5194cWE2GSLJ3nNNNqEAAEGubPlzAjLP4o/n6q5O7ZWZkRGQ+bZs+EXtL7lQ8959JyDzmW3FsqVq1+QCrfzyi4DM5/F49MDdXTTzlZcDMl+x5OIqEhcfkLnM5HK5dGevB9TsqmvOdldApqRekp4LTLLgQwEAgtylza8M2Fz5txter5zsbEvnWfnFMt3aqoV27/jT0nmsduzoEd3VqZ1mT59q6Tw+n0/D+/fWgg/es3SekzVu7vez2mwXGRmpGzp314OPPaNLm1+tEqVKKyIiUpKyJW2QNEZSDUmv2ZnTbhQAIMjd0q27IiMjAzbfyi+/UL87by/QAjL+mDNjuu66vn3IHPI/G4/breH9e+ul0U9adlj+yYcHas6M1y0Z+3Q6dbs3oPNZoULlKrql230aPmaiXpg22yMpTtL5koZKCuz5myBEAQCCXI06dXVnrz4BnXPpp5/oif89YPq4E58ZpSF97pMnyO+rLyyfz6fxo0dqaN+epl9MOfWlcQE77H/CFe066tKr2wZ0TgQeBQAIAcOfeU5XtW0f0DnfnvaqqYe2X3vxeb3w1AjTxgtGc2ZM14gH+5t2JOCbpZ/r2ceGmjJWQdVp1FgjpswM6JywBwUACAFR0dF67f15Gjh8hOLiA3dh1oiHBphyT/5br72iMY8OMSFR8Js1dYqeGTbY8Dg7tm9T/253BGzFxqjoaN1yXz9NWbhcRVlt1RHsfBYAgEKIjIzUA8MfV9ee92vJ/Hlat3qVDh84oIP79+vo4UM6sG+v6eeg83Jz1afzrVr4/Y8qWdq/Z3B89PZbeuKhAUF9f7/Zpo5/QfFFi2rgcP+OeORkZ6vX7Tef8omPZihZppySS5VWiTJlVapsedVscIFadrxJ5SpWtmQ+BCcKABBiSpYuo8739lTne3v+49ePHT2i5UsW653pU/XDym9Mm+/g/n16pPd9mvbBx4XedsWypRrcu4dliwyduM3L33IRGRlp2Tfs8aNHqtw5FXR79x6F3vbZx4bq143rTc1Ts35DXX9PLzVv11GlygXm1lIEN04BAGGieImSuv6OLnrv86/05vzFqlqjpmljL1u4QO+8Xrg7pn7f+qv6dr3Nkgv+kpKL697+A/XFz5uVlFzc73EWfv+jHhj+uGVrLTw2sJ++/2Z5obZZsWypZkyeaFqG0mXLacLMd/TOih91Y/f72fnjbxQAIAxd0aq1Fny7Rrd0u9u0MUcPeVh/bvutQD+bmnJc997cSakpx02bX5KKJibq0WfH6bttO/Xos+NUpXoNQ+OVKX+OBg4foRVbftfzr72h0mXLmZQ0nzsvT70731rg9Q6OHzuqQb3uMe10Sctr2mnxDz/pultuM/qoXIQhCgAQpuITEjR2yut6/LkXFRFh/J96ZkaGBt3fo0A7pyG97ytwWSioq9p10GdrftG9/QeafiFkVHS0buraTct+3qS7+/Q3dd2FY0cOq2/X2wv0OOeRgx7U/r17TJn3trvv1Wvvz1OJUqVNGQ/hhwIAhLnufQdo5Esvm/INcM23K866IM3MV17WonkfGZ7rhGKJSZr2wcd6/cP5Kl+xkmnjnm6uEc+/pPeXfa1y51Qwbdxf1v5w1rsgVn6xTPNmv23KfL0eGqQxk19TVBSXeeH0KACAA3Tp0UtDRo0xZawxw4fo8MEDp/y9LRt+0dMm3AJ3QtUaNTV3+be6uv21po1ZEI0uvlQfr/heF17S1LQx35g0QV8uWXTK38vOytLwB/qYcui/S49eeuSpZwyPg/BHAQAcoueDD6tLj16Gx0k5fkxPDX7oP7/udrs1qOe9ys0x5wlyzVu10byvv9N5tWqbMl5hlSlXXrMXL9NNXbuZMp7P59Owvr1OeV3Ey8+O1o7t2wzP0aJNWz354kTO96NAKACAgzwxbrwubtbc8Djz33v3P1e3Txk3Vht++tHw2JJ0ZetrNPX9eUpMSjZlPH/FxMbquVen67a7zVkXf//ePRr1yP/+8Ws7tm/Tay+NMzx2tZq1NH7m2wF9bgRCGwUAcJCo6GhNmvWuKVe7P/nwg3/fQ79ty2a9/Oxow2NKUuPLmmnyO+8rJjbWlPGMcrlcembSq6aVgPffnKGvPlv89/8eNeThAl0geCYxsbF6+a3ZthcmhBYKAOAwpcqU1ZhXpho+TLx5/c+aM+N1ud1uPdTjblMeIdy46eWa+fFCxSckGB7LTC6XS6MnvqION91iynhD+/ZSWmqKVn6xTEs//cTweMOfeU51zm9oQjI4CZeIAg50Vdv2uuOe+wq9uM+/jXvyce368w+t/3GN4UwVz62i1977KOh2/idERkbqhWkztWfnTv30w/eGxtq/Z7dGDnpQv6xdazjXFa1aB/xpkQgPHAEAHGro6GcN3+p29PAhTRk31nCW2CJFNPmd91S8ZCnDY1kpJjZWr8750JSVAz94a6a2btpgaIy4+Hg99dIkLvqDXygAgEMVTUzU48+9aHcMSdKo8ZN1fqOL7I5RIGXKldekt+coOibG7igaOHyEzq12nt0xEKIoAICDtbvhJrXqcJ2tGbr3HaCb77zL1gyFddGll2nY08aPfBhRt8EFuqf/QFszILRRAACHGzVhsorZ9Pz36rXraPDIp22Z26i7evdTizZtbZk7IiJCoyZMYqU/GMLfHsDhypY/RwOGPabRQx4O6LxR0dF64fWZKhIXF9B5zeJyufT0y1PUtskFpj/06Gy69uytRhdfGtA5Q9GhA/u0avky/brpF6UePxYpaZ+kPyTNl/SapKO2BrQZRwAA6O7e/Ux9fHBB9Bs8LGTO+59O+YqVNOL5lwI6Z2JSsgYOfzygc4Yan8+nhR+9q+cef1hffbZA+3bvVEZ6miSVk9RU0jOStku6w86cdqMAAFBUdHRA14+vf8GF6jt4aMDms9KNXe5U62s7Bmy+/kMfDfq7Jezk8/k0e/pkLVs47++Fqk4jWdLbknoHJlnwoQAAkCRd0/F6Xd7yKsvniYiI0MiXJioqOtryuQLlyRcmKL5oUcvnqVy1mrpxz/8Zfbd8qdZ+901Bf9wlaYKk0D4U5ScKAIC/DXvmOUVEWPuxcMc994Xd+evyFSup/yPDLZ9n2DPPBc0SycEoLzdXSz5+v7CbRUkyZx3rEEMBAPC3ug0u0PV3dLFs/BKlSuvhJ0dZNr6degx4UDXq1LVs/IubNdc1Ha+3bPxwsHXTeqWnpfqzaWvlXx/gKBQAAP8w6MnRll2ZP2TUGCUXL2HJ2HaLio7W6AmTLVuV75GnQvN2yUDa9ed2fzeNkNTIxCghgQIA4B/KnVNBXXr0Mn3ceg0b6aau3UwfN5g0ufwKtbvhJtPHbXNdJ114SVPTxw03fn77P6GsWTlCBQUAwH/0HTxURRMTTR1zxPMvWn59QTAYMmqMqefpIyIiNPDREaaNF868Xq+RzR23Lk74/2sEUGjFS5ZSj/4PmjZe2043qMnlV5g2XjCrVKWq7rq/r2nj3dC5K4/6hSUoAABO6b4HHlKpMsaPikZFR4fscr/+6jdkuCn36kfHxGjA0MdMSAT8FwUAwCnFFy2qTrcZXyjtytbXBHyVQbslJiXrBhPupmjeqo0qV61mQiLgvygAAE4pMyND89971/A4Xy/9TDu2bzMhUejISEsz7b3b9ecfJiQC/osCAOCUpk98SYcO7Dc8Tl5ursaOsH6RnGAy8dnROnzwgOFx8nJz9fKzjlyjBgFAAQDwHynHj2nahBdNG2/hRx9ozbcrTBsvmO3e8admTJ5o2ngfznpTv23eZNp4wAkUAAD/MenZp5Vy/JipY44aMkg+n8/UMYPR2MeHKSc727TxPB6PXhjJ0/9gPgoAgH/Yv2e33nx1sunj/rxmtea+M8v0cYPJDyu/0YIP3jN93CXz5+nnNatNHxfORgEA8A8vPDXC1G+wJ3tm+CNKTTluydh2c7vdemxgf0uOcvh8Po15dIjp48LZKAAA/rZ5/c/6cNablo1/+OABjXsiPO9rf2PSBP26cb1l46/6erk+XzDfsvHhPBQAAH8bPXSQ0eVUz2rW1Clhdzj70IH9mviM9U85HD3kYeXm5Fg+D5yBAgBAkrT000+08otlls/j9Xr1+IMD5Ha7LZ8rUEY82F9pqSmWz7Pj9+16e9qrls8DZ6AAAJA7L09PDxscsPl+WfuDpjz/bMDms9K8d9/RonkfBWy+8aNH6tjRIwGbD+GLAgBAs6ZO0R+/bQ3onBPGjNKmX34K6JxmO7Bvr5783wMBnTPl+LGAnG5A+KMAAA53cP8+vfjUEwGfNy83VwO732nZHQdW8/l8Gtqnp44fOxrwud98dbI2/PRjwOdFeKEAAA434sH+tt2a99vmTRr3ZGjeFTBr6hR9uWSRLXN73G4N63u/PB6PLfMjPFAAAAf7YvFCLf54rq0Zpk140ZLFc6y0bvUqjXrkf7ZmWL9uralLDsN5KACAQ2WkpWl4/952x5DP59MjvXtYeg+9mQ4fPKA+nW8Nitvxxj35GE8LhN8oAIBDjX18mPbv2W1ojOIlSuqefsYvgsvMyFCv2282/fkDZnPn5an3Hbdo/949hsfqdNsdql67jqExsjIzNeLB/oazwJkoAIADfb30M7312iuGxxn42BMaOvpZ1W1wgeGxdmzfpvtvv0nZWVmGx7KC1+vV4N49tOa7lYbHKlOuvJ58caIefXac4bG+XLKItQHgFwoA4DBHDh3Uw/d1N7xmfY06ddX53p6Kio7WuGlvKDomxnC2VV8v1323Xh90dwb4fD499kBf0x5mNPKll5WUXFxXtr5GV7Vtb3i8pwY/pC0bfjEhGZyEAgA4iNvtVv9ud+jQgf2Gxxrx/HhFRUVJkmrXb6A+g8x5WM2KZUvVt+ttcuflmTKeUT6fTyMe7K93Xn/NlPFu6NxV13S8/u//PXzM84qKjjY0Zk52tgbc1UXpqalG48FBKACAg4we8rC+W/6V4XE63HSLLm951T9+re+goapzfkPDY0vSsoUL1Ou2G5WRlmbKeP7Ky83V0L69TDldIuUf+n/8uRf/8WvVatZSjwEPGh77t82bNPCeOy1/lgPCBwUAcIgZkyeacttYscSk/+zEJCk6JkbPvfa64W+zJ3yxeKFuaHGZdmzfZsp4hXXk0EF16dBGc2a8btqYoye+ouTiJf7z6wOGPqbKVasZHn/ZwgV6avBDhseBM1AAAAeYM2O6Rg4y/i1TkgY/9bTKlCt/yt+r17CRhowaY8o8Uv632uubN9XXSz8zbcyCWL9urTpdcal+WPmNaWN2u7+vWnW47pS/Fxcfr5EvvWzKPDMmTwzZxZUQWBQAIMy9MWmChvXrZfiiP0lq2Phidb635xl/5p5+D/zjHLdRx48d1V0d26lv19t0+OAB08Y9lcyMDL00+knd1LKZ9uzcYdq4dc5vqGFPjz3jz1zZ+hpdd8ttpsz38rNP68mHB3I6AGdEAQDCVHZWlob1u18jBz1oyo4gLj5e46a+oYiIM39suFwuPTtlms6tdp7hOU+28KMPdHXDunpzyiTT7xLweDz6eM5sXd2wjsaPHqm83FzTxk4uXkJT3v1AsUWKnPVnnxg3XqXLljNl3hmTJ+r+22+y5VkFCA0UACAMfbf8K113eRPNnj7VtDGHjH5W59WqXaCfTUourqnvz1PRxETT5pek1JTjGvHQADWtca7GPj7M8Lf0o4cOafJzY9S8bnUN7N7VlAV+ThYZFaWXZ80p8Pn9EqVKa+yrr8vlcpky/+cL5qtdkwu0aN5HphwBQnihAABhIj01VQs+eE9dr22jzu2u1rYtm00bu0WbtrqzZ+GWDa5Rp64mzHxHkZGRpuU44diRw3rl+Wd1Zb0ahh5kdE2ThnpuxHDt3bXTxHT/7/HnXvzP3RJn06JNW3W9737TMuzfu0d9Ot+ibi0v0Sezpuv44UOmjY3QFmV3AACFc/zYUS1d8Il+XrNaB/bt1dHDh3X44AHt3vGnJU+HK1WmrN/fSlte006jJkzWsH73W/IN1Oif18q1Bno//Ii69erj17ZDnx6rVd8s12+bN5mWZ9O6NdrUv4dcLpfKVqyskmXLqXjJ0ipZrrxqNbhAzdt3Uqly55g2H4IfBQAIEV6vV1PGjdXk58cE7P74qOhoTZr1rqHz0rd376HMjAxH3Z52V+9+Gjzyab+3j4uP15TZH+j65k2VlppiYrL8hY3279qh/bv+efrkxWEP6eYefdX70VGKKcD1Cgh9nAIAQoDb7VafzrfouRHDA7o4zmNjX9DFzZobHueefg/of4+PNCFR8Lvt7ns04vmXDI9TrWYtvTRj1lkvujRLXk6OZk96QX07Xq3MdHsXYEJgUACAEDD2saFaMn9eQOe89a7ufh/CPpV+Q4ar35Dhpo0XjG7scqeefvlV0y7iu6ptez0U4OK0/ofvNLJP94DOCXtQAIAgt/3XLZo+aUJA52zRpq1GjZ9s+rj/e3yNhxDZAAAgAElEQVSknho/yZILA+3Wd/BQPf/a2W+TLKw+g4bojnvuM3XMs/nqk4+0+svPAzonAo8CAAS5OTOny+N2B2y+xk0v16S33zPl6X6n0vW++/XG3E9Nv0XQLpFRURo1YbIefmKUad/8T+ZyuTRqwmR1uu0O08c+k3kzzbuFFMGJAgAEuVVfLw/YXBddeplmzPtU8QkJls5zRavWmr14mcpVqGjpPFZLSi6u6R99oi49elk6T0REhJ6fOkNtO91g6TwnW/P1FwGbC/agAABB7oDJi9OcTqsO1+mtBUuUUKxYQOarf8GFWrR6ndrfeHNA5jNb0ytbaNHqdWreqk1A5ov6a1Ghsy3FbJbUY0eVk50VkLlgDwoAEOSKxMVZPsetd3XXK7M/UFx8vOVznSy5eAlNmjVHk2bNUWJSckDn9ldUdLQeGP64Zn36ucpXrBTQuSMjIzV64it6/LkXLb87IDIqStHR1pwGQnCgAABBrmr1GpaNHZ+QoDGTp+rZV6YpKsq+ZUHa33izFny3xtSHCFnhkiuu1CcrV2vg8BEBuz3vVLr3HaCp789TiVKlLZujYtXzFBGGF2vi/1EAgCDX+rpOlox7fqOL9MnKH3Tb3fdYMn5hVapSVVPe/VBzPvtS51/Y2O44/1C1Rk29OucjvbvkC9Wu38DuOJKkq9p10KLV63T5VVdbMn7z9tb8vUPwoAAAQe6mLt1MvViueImSevLFifpo+beqVrOWaeOa5eJmzfXxN6v00huzVP+CC23NUrVGTY186WV9tuYXtbGoiBlRplx5vfXJEo2f8bbOqVTZtHHj4hN0W+8HTBsPwYkCAAS5InFxGjd1hqKiow2Nk5iUrF4PDdKXG35Vt159bD3kfzYul0udbrtDn3z7gz76aqVu6NxVMbGxAZk7MjJSra/tqDfnL9aynzbpzp69Db/3VnK5XOp46+1a9tMmDXpytMqUK294zEHjJqlUWePjILhRAIAQcFmLlpr89nuKL1q0UNu5XC6df2FjjZ74ir7btlNDRo1RUnJxi1Jao9HFl+qFaTO1avsujZs6Q9fefKvpf4b4hAS16nCdRk98RSu2/K7X3purK1q1tuS+fqsUiYtTn0FDtPLXPzR+xtu65IorC73gUlR0tAa/MFntb+9mUUoEk+D9CgDgH1pf21GfrflF458eqYVzPzzlMwGiY2JUrUYt1apXT5e1uEot27Y35RthMCheoqRu7HKnbuxyp9xut35avUrrflit7b9u1pYNG7Tt180Fek5Ckbg4Va9VR9Xr1FHNOvV0fqOL1OTyZooNkwfgREVHq+Ott6vjrbfr+LGjWv7ZEn2z7DNtXL9Bf/y6+ZS39sXEFtHl13TQfUOfULXa9WxIDTtQAIAQUqHyuRo75XWNGj9Zv23ZpKOHDisqOlpFE4spuXgJla9QMagPV5slKipKjS9rpsaXNfvHrx87ekRpKSlKTTmujLQ05eTkKDo6RkUTiykxKVnFEhOVXKKkrVfwB1Jy8RLqdNsd6nTbHTqa51JOnkcH9+1RypHDykxPU25OjoolJatq7bqKSyjc0SWEPgoAEIJiYmNVr2Eju2MEneIlSqp4iZJ2xwhaEZGRKlexsspVNO+CQYQuZ9RgAADwDxQAAAAciAIAAIADUQAAAHAgCgAAAA5EAYC5fHYHAAAUBAUApvJRAAAgJFAAYCqv12t3BABAAVAAYCq3hwIAAKGAAgBTefLcdkcAABQABQCmynN77I4AACgACgBM4/Z45OEUAACEBAoATJOTnWd3BABAAVEAYAqfjwIAAKGEAgBTZGflyOvj8D8AhAoKAAzzeX3KzM6xO0ZARUZG+b3tscOHTUwCFJDFi3TlZGcpKyPd7+0jIiNNTIOCoADAsLSMLPm8zloCMLZIEb+3nTNzuolJgILxWPxP9NPZM+XO8+80YEREhGJiYk1OhLPx/2sMoPxD/7k5zjv3X7JUaR3cv9evbae+NE6HDuxX6w4dlZiUbHIy4L+8klIs+meamZGutd98pQ9fn+z3GEnFS8jlcpmYCgVBAYDfcnPdSs901qH/E8pXqKzNG372a1ufz6e578zS3HdmmZwKCE1ly1ewO4IjcQoAfsnNcystLcOxT/+pUbue3RGAsFGtRh27IzgSRwBQaNnZuUpPz7Y7hq3qNbxIEZGR8npY+RAwqlb9hnZHcCSOAKDAfD6f0tKzlJ6eJcsvKQ5yxRKTdP4Fje2OAYS8sudUVMVzq9odw5EoACiQnJxcHTuWrpzsXLujBI1W7TrZHQEIeVdc3dbuCI5FAcBp+XxSTk6ejh1PV1palrxeFvo5Wf0LGqt6zbp2xwBCVvGSpdTk8ivtjuFYFACcxCe3x6Ps7FylpWXq6NFUpaVlysMT/k6ra49+iojgnxHgj+tvv0tRUdF2x3AsLgI0g88nr9enPI9XXo9XXq9HPp/+enn/+m8QnzP/K5/3r6wouHOrVdd1N3fRx++9ZXcUIKQ0uvhy1W/UxO4YjkYB8IPH41VunlvuPI/cbrc8Xp9jb4eD1PHmLvpz+1b9vPZ7u6MAIaFSlWq69a6edsdwPI5dFsCJJ92dOCx+7FiaMtKzlJOTK4/Hy87f4SIiItTnoUdVq24Du6MAQa/sORXV44Ehioll6V+7UQDOIM/tVnp6Vv658PRM5eTkyeuwNe9RMDGxsfrfY0+rcdMr7I4CBK1qNWqr3yNPqGixRLujQJwC+A+vz6fs7FzlZOXKw1XvKITo6Bj1eehRff7pXH34zhvKzXXmMsnAv0VERqp1hxvU6tobFBHBU/+CBQXgL16fV9lZecrKygnuC/YQ1Fwul9pce6MaNWmq92ZN09pVK/j7BEer2+BC3d6tp0qXP0eZWZl2x8FJHF8AfD6fMjJylJOTw6l8mKZ02fLq+7/HtHf3Dn31+UKtXrlcKceP2h0LCIj4hKJqfGkzXdmqvarVqC1Jys5x9vLhwcjRBSAnJ1cZGdmc14dlzql4rjp376077r5fu3f+oe1bt2j/3l06fuyocrKzlJvLyooIbdHR0YotUkRJScVV9pyKqnpeTVU5rybrY4QARxYAj8er9Iws5eW67Y4Ch3C5XKp0bjVVOrea3VEAQJIDC0BmVrYyM3O5dQ8A4GiOKQBer09paVnKy8uzOwoAALZzRAHIy3MrLS2Tc/0AAPwl7AtAVlaOMjOzOeIPAMBJwroAZGXmKCOTW08AAPi3sCwAPp+UkZGl7GxusQIA4FTCrwD4fEpPy1JOLhf7AQBwOmG3UkN6RjY7fwAAziKsCgCH/QEAKJiwKQBZmTnKymLnDwBAQYRFAcjJyeVqfwAACiHkC4DH41V6Ojt/AAAKI6QLgE9SWlomz1sHAKCQQroAZKRnye322B0DAICQE7IFIDfXzRX/AAD4KWQLQHpGlt0RAAAIWSG5EmBOTq68Hq/dMf7jyOFD+mnNav3262bt2vGHdu/4UxkZGUpPS1VWZobcbrfdER1vy8af1f3mNnbHABB8pv71kqTjktIlZUjaIelXSZskffPXf8PiwrOQLAC5OcGz0t+uHX9qySdz9eXSxfpz+za74wAAjEv+6yVJtSSd/K3hgKRFkt6UtFxS8H0bLaCQLADBYNWK5Zr1+qtat+Z7u6MAAAKnrKS7/3rtkPSi8o8cZNoXyT8UgEL6ae1qTRg7Wr9u2mB3FACAvc6V9JKkYZJGSZosKWRuTaMAFFDKsWOa+PxoLf5kHusOAABOVkbSBEndJd0vabW9cQomZO8CCKSf1q7WXTd30KL5c9n5AwBOp5GklZKeUAjsX4M+oN3mvPWGBtzbVYcOHrA7CgAg+EVJGiFprqQEm7OcEQXgNHw+n16fPF4Txo6SxxMyp3QAAMGho6QvJZW2O8jpUABOY8LYUZr+ygS7YwAAQlcTSUv1/7cUBhUKwCnMeHWS3ps1w+4YAIDQ10D56wYE3ekACsC/fPnZIk2b9KLdMQAA4eNSSVPsDvFvFICT7Nm1U2NGDOVKfwCA2bpK6mF3iJNRAP7i9Xo1cuhDSk9PszsKACA8TZB0nt0hTqAA/OWTj97Thp/X2R0DABC+4iRNsjvECRQASWmpKXp1/HN2xwAAhL9rJHWyO4TEUsCSpA/eeVMpx4+bNl5UTJzK1G6m8vWvVrEyVRWXVFaxxUopIpK3GwCsdDDbo9WHc4w9rzfzqHyZR+VL2SPfn9/Jt325fGmmLgY3QtJ82fxYYcfvkbIyM/X+2zNMGSsqJk7VW3RXzavuVVRs0N3xAQBhr0yRSFUtGq3f0w08Nj6+hFzxJeQqVV0670rp6kfk/fVzeVe8LN/x3WbEbCSpvaRPzRjMX44vAJ8vnG/Kt/+SVRvpkrvGq0hSGRNSAQD8VTspWvuy3MrymPUF26WIWm0UUb2lPCsmybvmTTMG7SubC4DjrwFY9Mlcw2NUbtxRV/SZyc4fAIJApEuqlRRtwcDRirxyoCLbjZQiDH9/bi2pnAmp/OboArB/7x6tX7fW0BhlazfTRXc8o4ioGJNSAQCMqhAXpbhIlyVjR9S9VpEtHzY6TJSkW02I4zdHF4A1q1YaWvQnoVRlXdztBbkiIk1MBQAwKsIlVU6w7ix3xAW3KuL8G4wO08aMLP6yswD4fYVGVLQ5h3bWrl5laPv61z6s6LhEU7IAAMxVMd7ay9wimw+QYosZGeIK2Xgtnp0FYL+/G5Ysbc659o2/+L/wT4lzG6pCg9am5AAAmC8+yqWiURbu5ookKfLiu42MkCipnjlhCs/OArDSn40Sk5JV9bwahifPy83Vvj17/N7+3EtuklzWnF8CAJijZKy1u7mI+p0kl6E5apqVpbDsLAALJB0p7EZtOnRUZKTxc+67d+6Q1+vxa1uXK0Ll67U0nAEAYK3EGIt3c/El5Cp/vpERapsVpbDsLACpkh4vzAZJxYvr7l79TJn86JHDfm+bUKqSiiSWNiUHAMA6CZHW7+ZcFRsZ2bysWTkKy+67ACZLmlaQHywSF6+nX5ys4iVKmjJxZmaG39sWSeR+fwAIBTEBuEnLVdTQPsG2K8ntLgCS1FPSYEmn3SOfV6OWprw5RxdcdLFpk2ZRAAAg7EUF4lqthFJGtjZ0G4ERwbAUsE/Sc5LektRVUouk5OQGlc6tWqlSlaq6omVrXdGylSIizO0qHrd/5/8lKTLKghWmAACmC8il2pGGFoKzbSGZYCgAJ+yX9Lyk579Zvb5zWk7u23YHAgAgXAXDKQAAABBgwXQEAH7ITjmovRuWKe3Adrmz0xWbWFqlqjVWmZpNeT4BAOC0KAAhyp2TqQ2fPK8/V70nr8f9j9/bumyq4pLL6/yOg1SxUXubEgIAghkFIATlpB/RilfuUcreX0/7M1nH92n1mw8pdd9W1W0/MIDpAAChgGsAQozP69GqNwacced/si2fT9GO1R9ZnAoAEGooACFm55r5OvL72kJts37+WOVlp1mUCAAQiigAIeb3lbMLvU1uxnHtWbfIgjQAgFBFAQghednpOrZrvV/bHvxtlclpAAChjAIQQrJTD0o+n1/bZh3fZ3IaAEAoowCEkMioWP+3jS5iYhIAQKijAISQIkllFBnj3448oVRlk9MAAEIZBSCERERGq2ytK/zatny9q0xOAwAIZRSAEFOrVU+pkI+3TDqntsrW8a84AADCEwUgxBSvfL5qXtWjwD8fFROnxl3GyOXi/2oAwP9jrxCC6nV4UNWvvPusPxeTkKym972qpHNqWx8KABBSeBZACHK5ItTg+iEqV6e5Ni+ZqCN//vSP2wOjYhNU6aJrVadNXxVJKmNjUgBAsKIAhLAytS5TmVqXKTvloFIPbJc7J11FEssouUIdHgUMADgjCkAYKJJUhm/6AIBCCcZrAGJWrfym5PFjR+3OAQBA2AqWIwARkjpLuk/S5T27d46UpKTkZDVr0Upd7+2lylWq2RoQAIBwEgxHAMpI+krSW5KaS4o88Rspx4/r03kfqOv1bfXOjKk2xQMAIPzYfQQgUdIXkuqd6Yc8Ho8mjRsjd16eut3XJzDJAAAIY3YfAXhBZ9n5n2zqyy9q84ZfLIwDAIAz2FkAqkq6uzAbeL1evT55vDVpAABwEDsLwPU66Xx/Qf3w3Qqlp6dZEAcAAOewswCc789GbrdbO//43ewsAAA4ip0FoKS/G7JGAAAAxthZAAr3TNuT+LxeM3MAAOA4dt8FAAAAbEABAADAgSgAAAA4EAUAAAAHsnsp4JCUcXSP9vy02O4YAICzyPH65D2ea+kcvgObLR3fKhQAPxze/oMOb//B7hgAAPiNUwAAADgQBQAAAAeiAAAA4EAUAAAAHIgCAACAA1EAAABwIAoAAAAORAEAAMCBKAAAADgQBQAAAAeiAAAA4EAUAAAAHIgCAACAA/E0QD/El6ig4pXPtzsGgDCScWinju/Z5Ne2RUtVVlLFuiYnCg8er3Qw22PpHL6MQ/Lt+cnSOaxAAfBD6fOa6KLOY+yOASCMbP/mbR3/yL8CULbOFWp442MmJwoPmW6flu3PsnQO7/av5dkz0NI5rMApAAAAHIgCAACAA1EAAABwIAoAAAAORAEAAMCBKAAAADgQBQAAAAeiAAAA4EAUAAAAHIgCAACAA1EAAABwIAoAAAAORAEAAMCBKAAAADgQBQAAAAeiAAAA4EAUAAAAHIgCAACAA1EAAABwIAoAAAAORAEAAMCBKAAAADgQBQAAAAeiAAAA4EAUAAAAHIgCAACAA1EAAABwIAoAAAAORAEAAMCBKAAAADgQBQAAAAeiAAAA4EAUAAAAHIgCAACAA1EAAABwIAoAAAAORAEAAMCBKAAAADgQBQAAAAeiAAAA4EAUAAAAHIgCAACAA1EAAABwIAoAAAAORAEAAMCBKAAAADgQBQAAAAeiAAAA4EAUAAAAHIgCAACAA1EAAAAwwBUTb2TzVLNyFBYFAAAAI5LOMbL1nyalKDQKAAAABrgSz5GrRFV/N19kZpbCoAAAAGBQROOu/mz2vaRvTY5SYBQAAAAMiqjfSa7KTQqzSYakXpJ81iQ6OwoAAABGuSIUdd1YuSpcUJCfTpV0s6SfrQ11ZhQAAADMUCRJUbe8qsgr+ktFEk/1E15JcyU1lrQ4oNlOIcruAAAAhI3IaEVc3F0RF3WVb89P8h39Q3G7V72d/utXCyR9JWm/zQn/xhEAAADMFhktV+UmirjgVlXsMmGhpHcVRDt/iQIAAIAjUQAAAHAgCgAAAA5EAQAAwIEoAAAAOBAFAAAAB6IAAADgQBQAAAAciAIAAIADUQAAAHAgCgAAAA5EAQAAwIEoAAAAOBAFAAAAB6IAAADgQBQAAAAciAIAAIADUQAAAHCgKLsDAAAQdtw58u1cLd+xXdq1e+X1kqIlfSlpp83J/kYBAADALO5ceVZPl3ftLCk3U5KUId2i/JckLZI0SNJGmxL+jQIAAIAZso7LPXeAfPs2nOmn2klqLukOSZ8EJNdpcA0AAABGeT1yz//f2Xb+JyRImiPpImtDnRkFAAAAg7y/fCjf7nWF2SRO0hRJLmsSnR0FAAAAg7w/zvZns8aSmpkcpcAoAAAAGOBL2SPfsR3+bt7WzCyFQQEAAMCI1L1Gtq5iUopCowAAAGCALzfLyObFzMpRWBQAAAAciAIAAIADUQAAAHAgCgAAAA5EAQAAwIEoAAAAOBAFAAAAB6IAAADgQBQAAAAciAIAAIADUQAAAHAgCgAAAA5EAQAAwIEoAAAAOBAFAAAAB6IAAADgQBQAAAAciAIAAIADUQAAAHAgCgAAAA5EAQAAwIEoAAAAOBAFAAAAB6IAAADgQBQAAAAciAIAAIADUQAAAHAgCgAAAA5EAQAAwIEoAAAAOBAFAAAAB6IAAADgQBQAAAAciAIAAIADUQAAAHAgCgAAAA5EAQAAwIEoAAAAOBAFAAAAB6IAAADgQBQAAAAciAIAAIADUQAAAHAgCgAAAA5EAQAAwIEoAAAAOBAFAAAAB6IAAADgQBQAAAAciAIAAIADUQAAAHAgCgAAAA7k3ALgcvm9qc/nMzEIAMA6gfi8Ds19gmMLQJEiRfzeNifjmIlJAABW8QRi35x5NACTmM+xBSA+IcHvbbNTD5mYBABglbxAFID0gwGYxHyOLQDFiiX6vW3G4R3yunNNTAMAsEJmntfyOXxH/rB8Dis4tgBUPLeK39u6czJ16LdV5oUBAFgiw+pzAJ5cef9Yae0cFnFsAUhMSlZS8eJ+b7/7p8UmpgEAWOFojsfS8X07vpdyMyydwyqOLQCSVKNmHb+33bV2vtIP7zQxDQDATB6fdCzHyiMAPnm+nWLh+NZydAG48OJL/d7W63Fr44LnTUwDADDT/myPPBbeoufdvEi+A5stG99qDi8ATQ1tv+fnz7T9m7dNSgMAMNOujDzLxvYd+V2epc9YNn4gOLoA1GtwgcqULWdojF/mPa39m5ablAgAYIaUPK8O5Vh0B0DGYXnmPRiy5/5PcHQBiIiIUJsOnQyN4fN69N3rfbR12VSTUgEAjNqSkmfJAn2+g1vkfqebfMd3mT94gDm6AEhShxtuVkSEsbfB5/Vow4JxWjW9n9IOhub9oAAQLvZnu3Uw2+Sr/3Mz5Fk5We7Zd8uXut/csW0SZXcAu1WuUk1XtrpGX362yPBYe9cv1b6NX6rShdeqQsNrVKbWZYqM9n/JYQBA4eR4pPXHzDr375Nv/0Z5t30l7y9zpazwWgbe8QVAkrr16KOvPl9sykN+fF6Pdq75WDvXfKzI6CJKKFlRRRLLKDre/5UHAYS/jEP+31Z8YPM3+n7mQBPThK4jOR7lGvzy73NnS+mH5EvbJ2WlmBMsCFEAJNWsU1ftOt6ohR9/aOq4nrxspe7fptT920wdFwBOln54J+uSoNAcfw3ACf0eHmZoZUAAAEIJBeAvScnJGjjkcbtjAAAQEBSAk7Rp31Edb77d7hgAAFiOAvAvA4c8pvoNG9kdAwAAS1EA/iU2tojGTXlD1WvWtjsKAACWoQCcQtGixfT8K9NV5bzqdkcBAMASFIDTKF2mrKa8+Z4aXNjY7igAAJiOAnAGxRKTNP61N3VLl7vsjgIAgKkoAGcRExurgUMe15NjxyspOdnuOAAAmIICUECt2l2rOZ9+oVu63GX44UEAANiNPVkhFEtM0sAhj2vGBwvUqt21ioiItDsSAMBGdRtcoBtv72p3DL9QAPxwXo1aenLseL27YKm69+qn8hUq2R0JABAgRYsl6pprr9crb76nqW9/qEsvb253JL/wMCADKlSqrB79HtS9fQdq6+aNWvv9d1q7+jtt37pFhw4esDseAMAExRKTVKN2HdWoVVdNm7dQo8aXKCoq9Hefof8nCAIul0u16tZXrbr11bn7fZKkzIwM7d2zS6nHjyszI125ebk2pwQAFERkZJSKFi2moomJKlmylEqVKWt3JEtQACwSn5DAaoIAgKDFNQAAADgQBQAAAAeiAAAA4EB2FgC/r4rLyMwwMwcAAH5LT08zsnmOWTkKy84C4Pc7dphb7AAAQeLwwYNGNk81K0dhhWQB2L93r5k5AADw2/59e4xsbujwgRF2FoAd/m64asVXJsYAAMB/q1YsN7L5nybFKDQ7C8Cv/m64Z9dO/b5tq5lZAAAotG1bt2jv7l1GhrBtZ2ZnAdhsZOPZM6aZlQMAAL+8O9PwvmiTGTn8YWcB2C7J7xMniz+Zq9+22Pa+AQAcbtvWLVqy4GMjQ+ySQ08BSNKX/m7o9Xo15olhysnJNjMPAABnlZ2dpacfHSyv12tkmGVm5fGH3QXgUyMbb9m4XqMfHSyfz2dWHgAAzsjn82n0o4/o180bjQ5laB9oVKSdk0vaJqmfpCL+DvDHtt/0x/bf1LR5C0VHR5uXDACAf8nNydHoRwdr6aJPjA6VIqmXJLfxVP6xuwC4JVWXdKGRQf7cvk2rVixXnfoNVap0GXOSAQBwkl83bdAjA3rph+9WmDHcm5LmmjGQv1x2Tv6XupLWy4TTEREREWrV7jrd3u0e1axTTy5XMPzxAAChyufz6ddNG/Tum69r6aIFZp1y9kqqJ2mLGYP5K1j2kO9LutnMAcuUK69LLm+usuXPUZmy5RQXH2/m8ACAMJWVmamDB/Zr/949Wr3yax08sN/sKd6TdJvZgxZWsBSAupJ+ksRJfABAOMuV1FA2f/uX7L8G4IRDkopKutzuIAAAWOhZ5R8BsF2wHAGQpARJP0s6z+4gAABY4DdJF0jKtDuIZP86ACfLkHSTJFb2AQCEmxxJtytIdv5S8JwCOOGApKOSOtgdBAAAE/WRzQv//FuwFQBJWqP8hYGa2R0EAAATjJL0vN0h/i0YC4AkfSGpnKTGdgcBAMCAVyQNsjvEqQRrAZD+/1BJCztDAADgp2clPSQpKB9YE8wFQJK+krRfUmtJUfZGAQCgQLIl9ZY01u4gZxJMtwGeyYWS5ij/uQEAAASrrcpf5e8nu4OcTbAfAThhn6Rpyn94UFNxNAAAEFzyJE1S/s5/p81ZCiRUCoCUv/P/SvnPDSip/OWDg2kdAwCA83gkvSvpVklvK3+p35AQKqcATqWGpIHKX1ihhM1ZAADOckT5O/6XJG2zOYtfQrkAnBAjqb3yFw9qKZYSBgBYY7vyb1P/VNIihdC3/VMJhwLwbxUk1ZFUS1IlScWV/6ChQD9pMEH5xcQfGZIWmpgFAOzUXvmfif5YqPzPxEDKk5Su/JVpdyn/wr7NkvYEOAdCVBXl3/vpz+uPwMcFAMv8If8/D6sEPq4zcBEdAAAORAEAAMCBKAAAADgQBQAAAAeiAAAA4EAUAAAAHIgCAACAA1EAAABwIAoAAAAORAEAAMCBKAAAADgQBQAAAAeiAAAA4EAUAAAAHIgCAACAA1EAAAAAziBZ0hBJqyQdkeSz+eWRtFfSp5LulBRp3R8dAP4WJambpIXK/wzyyP7PwyOSvsfa0XwAAAHKSURBVJP0iKQk6/7ocKJOCo6d/plev0iqadUbAACSaklaL/s/7870OizpOqveADhLZwVHwy1oC65lzdsAwOFqSzoq+z/nCvLySLrdmrcBTlFDUpbs/8tcmNcG5R+iAwCzREvaJPs/3wrzypRUzYo3A84wS/b/Jfbn1d2KNwOAY90r+z/X/Hm9acWbgfAXJyld9v8F9uf1mQXvBwDnWib7P9f8eaVJKmLB+xEWuA3w9GpLSrA7hJ8a2x0AQFi5yO4Afiqq/M9ynAIF4PRK2B3AgGRxWyAAc0RKSrQ7hAEl7Q4QrCgAp3fE7gAGHFP+VbAAYJRHUordIQw4ZHeAYEUBOL3Nyj9/FIp+sDsAgLCyxu4AfkqXtNXuEMGKAnB6OZLm2R3CT+/aHQBAWJltdwA/fSgp2+4QCE3nKf9eUruvZC3M6xexDgAAc0Upf40Ruz/fCvPKkFTVijcDznG7QmclwMNiOWAA1qil4F8S/cTLI+lWa94GOM11yr+QxO6/1Gd6/aT8lQsBwCo1Jf0s+z/vzvQ6KKmDVW8AnClJ0mBJ3yr/m7bdf8lPPA3wE0ldxG1/AAIjUlJXSQsUPE8DPCxppaRBCu1bFgPq/wBbDart4QCdaAAAAABJRU5ErkJggg==" vertex="1" parent="iXIntG2NBJSnMrhjwnnG-14">
          <mxGeometry x="36" y="30" width="78" height="78" as="geometry" />
        </mxCell>
        <mxCell id="iXIntG2NBJSnMrhjwnnG-9" style="edgeStyle=orthogonalEdgeStyle;rounded=0;orthogonalLoop=1;jettySize=auto;html=1;" edge="1" parent="iXIntG2NBJSnMrhjwnnG-14" source="iXIntG2NBJSnMrhjwnnG-4" target="iXIntG2NBJSnMrhjwnnG-2">
          <mxGeometry relative="1" as="geometry" />
        </mxCell>
        <mxCell id="iXIntG2NBJSnMrhjwnnG-4" value="Sequencer 3" style="shape=image;verticalLabelPosition=bottom;verticalAlign=top;imageAspect=0;aspect=fixed;image=data:image/png,iVBORw0KGgoAAAANSUhEUgAAAgAAAAIACAYAAAD0eNT6AAAACXBIWXMAAA7DAAAOwwHHb6hkAAAAGXRFWHRTb2Z0d2FyZQB3d3cuaW5rc2NhcGUub3Jnm+48GgAAIABJREFUeJzt3XmcTfXjx/H3ndXMMDN2soTsRIpKSRSyFO0LUkpkTX0jS6VESakQKRKlpI0kS1EpSiKVNVHZ92X27S6/Pyb9VJaZe8655957Xs/H4z56fJnz+bzdL/e871k+xyUAklROUgtJjSTV/OtVQlKCpGL2xQIcLeOv1zFJv0vaLGm9pK8k/WlbqjDhsjsAYKNqku6UdIukejZnAVA4v0uaK2mm8ksBCokCACdqKWmYpKvFvwEgHKyR9IykeZK8NmcJGXz4wUmaSHpJ0mV2BwFgiY2S/idpid1BQgEFAE6QKGmMpF6SImzOAsB6H0gaIGmf3UGCGQUA4a6RpPckVbc7CICAOiSpm6TFdgcJVpF2BwAs1E3Sx5LK2B0EQMAlSOosyS3pG5uzBCUKAMLVA5JekRRtdxAAtnEp/2Lf0so/EuCzN05woQAgHA2V9Jw4xQUg38WSKkhaYHeQYEIBQLjpJmmi2PkD+KcLJUVJ+sLuIMGCAoBw0lzSh+LvNYBTay5pu6Rf7A4SDPiWhHBRWtI65R/mA4DTyVD+miCb7Q5iN+6JRrh4Vez8AZxdgqRZ4kghbwDCQltJo+wOASBklFf+OgGr7Q5iJ04BINTFKP9QXjW7gwAIKSnKXyDssN1B7BJldwDAoDtl4s4/JjZW9RtepEZNLlOlKtWUlFxCScnF5XLRlYHCyMzKVHZOtqEx0tNSlZZyXPv37tamn9dq8/qflJWZYVJCJUkaKOlRswYMNXyqIZRFKv/bfw2jA0VHx6hV+07qcOMdSkgoajwZ4HA+SalpKfJ4PKaNmZebq2+WLdKyhR8rOyvTjCFTJJ37138dhwKAUNZO0kKjg1Q6t5r6Dx6h0mXLmxAJwAlut1up6ammj5uelqq3Xh2vbVs2mjFcX0mTzRgo1HARIELZU5LqGxmg4UWX6KHho5WYXNykSABOiIiIkMfrMfUogJR/qu6iS5spLSVFu3f8YXS4UpKmmRAr5FAAEKoSJL0uA2v9V6teSw8OH6XY2CLmpQLwD5ERkcrJzTF9XJcrQnUbXKi9u3fq4P69RoaqqPzbAo+Zkyx0sA4AQlUzSXH+blwsMUn9Bz+hmJhYEyMB+LfIyEhFRVpzvbnL5VLnHn1Vptw5RodqZUaeUEMBQKhqaWTjTrd0VXKJkmZlAXAGMTExlo0dG1tEHW+90+gwhj5PQhUFAKHqEn83LF2mnK5s3cHMLADOICbaugIgSXUaNFK1mnWMDNHUrCyhhAKAUFXb3w2bNr9aUVEsgQEESkREhCIirN3dNLn8SiObV5IUb1KUkEEBQChKlFTO340bNXFk2QdsFWnRdQAn1G1woZGS4ZIJ64mEGgoAQlEZfzeMiYnVudUc9+8csF2kxUcAihZLVGljFwOWNStLqKAAIBQV83fDpOIlWNYXsEEg/t0lGVvPw+/PlVBFAUAo8nutXoMfEAD8FIgCUCwp2dDmZuUIFRQAhCK/F7CKivJ73SAAQc7gv2/HXRlMAQAAwIEoAAAAOBAFAAAAB3LcOQ/ALnt379Tvv23Rvj27lJZ6XNlZWXZHAkwRW6SIihZLVNnyFVW1ek1VrnIed9uEAAoAYKED+/Zo+dKFWrXiSx07ctjuOEBAFC2WpCaXNdeVV7fTudWq2x0Hp0EBACxw5NABvT/rda3+drl8Pp/dcYCASk9L0ZdLPtGXSz7R+Y2a6LY771PJsn4v3gmLUAAAky1bPF/vvzVNOTnZdkcBbLd+3Q/a9Ms6XdPxJrVs18nyZwKg4CgAgEnceXma9vJz+n7lV3ZHAYKKx+PWwrlztHXzBt3d5yHFxSfYHQniLgDAFHl5uXrxmcfY+QNnsG3LRk0a+6Qy0tPsjgJRAADDfD6fprz4tDb98qPdUYCgt2/3Tk2b8KzycnPtjuJ4FADAoAUfztaPq7+1OwYQMnb+vk1zZ8+wO4bjUQAAA3b+uV3z3n/L7hhAyPn+my+08ee1dsdwNAoAYMCsaS/L6/HYHQMISfNmz5TH7bY7hmOF410AsZJq/vWqIinhr5eh50QiqJxjdwBJ2vTLj/pty0a7YwAh6+jhg/rh2+W6tPnVdkdxpHAoAC5JTSW1l9RS0sUKjz8XgtznC+fZHQEIed8sXUQBsEko7yhLS7pfUjdJrDWJgEpPS9H6dWvsjgGEvP17d2vPzj9VoXIVu6M4TiheA1BO0ouS/pQ0Uuz8YYONP/8oj4dzl4AZtmz4ye4IjhRKBSBCUk9JWyQNlBRvbxw4Gef+AfP8/tsWuyM4UqicAqgm6V1JTewOAkjS3t07DG1/7c23qkWbdoqLp8fCel6flGrRASu3O0/rVn6t+W+97vcdMQf27jY5FQoiFArAjZKmS0qyOwhwwpHDh/zetseABzV8zPMmpgHO7lCOS16Lxr7m5s46r259jRs8wK/tU44dlc/nk8vlMjkZziTYTwH0k/S+2PkjyORk+/+kv9u79zAxCVAwkRbvWzveea8io/z7Tun1elka2AbBXACelDRRwZ0RDmXkAsASpUubmAQoIIsLQGyROMUXLeb39lxUG3jBunPtJ+lxu0MAABCugrEA3CZpgt0hAAAIZ8FWAGpIek2WH6wCAMDZgqkAxEr6QFKi3UEAAAh3wVQABklqYHcIAACcIFgKQFVJw+wOAQCAUwTLQkAjJMWZOWBC0aK6uOllqlCpskqWLq2Spbj1KhB8Pq8yMnIsnWPXn39o9sxpls4BAOEuGApAVUmdzRrssuZX6u6evXVpsysUGxtr1rAoIK/Pq6NH0iydY90P31MAAMCgYCgAAyVFGx2kcpUqGjHmOTW7sqUJkQAACG92F4AYmfDt/6KLL9XL02eqRMmSJkQCACD82V0A2ksqZWSAZle21KtvvaOoaMMHEQAAcAy77wK4zsjGVc+rrhdfm8bOHwCAQrK7AFzl74Yul0vPvDRRiYk8KBAAgMKyswBUllTF343bdLhOjRo3MS8NAAAOYmcBqGdk4579BpiVAwAAx7HzIsBa/m5Yrvw5qtegoZlZgJDidrv1x29bdfjgQcXFxym+aFEVK5aosudUUESE3Wf27JOemqr09DRlpKUpIz1NaSmpSihWVAlFi6losWJKKFZMiUnJdse01aF9e5R54j1KS1WJMmVVsep5ii1i6lpsCAF2FoAq/m7YolVruVw8MBDOs3/vHr08ZrQWfPCeUo4f+8/vx8XHq3qtOqpVv76aNm+pFte0VYkwXAXT6/Vq/Y9r9PPaNdq6cYO2/bpFWzdu0LGjR866bdHERNWoXVc169ZT9dp11ODCi3ThJU3D8mLi9NRUfbPsc634Yqk2rF+v7Zs3KiMt9T8/FxefoObtO+mewY/p3Bp+fzdDiLGzAPj91L9KVaqamQMICV99tlj9u92h9NT/foCfkJWZqfXr1mr9urX64K2ZioiIUKOLL9Vtd9+rjrfertgiRQKY2FypKce1/LMl+nLJQi3/bImOHj7k1zjpqalat3qV1q1e9fevFUtMUrOrrlaLa9qrZdt2Kl22nFmxA87tduvzBfP1zuuvatXXy+XOyzvrNlmZGVrywTv6Yv4HGjxusq7rek8AksJudhaAov5uWLpMGTNzAEFv9Yqv1fPWG5SXm1uo7bxer9au+lZrV32rMY8OUZf7eqnnA/9T0cTQeer2xp/X6a1XJ+vjObOVnZVlyRxpqSlaNO8jLZr3kSKjonRNx+t1Z8/eurR5C0vms0JuTo7efHWy3pg0QXt37fRrjLzcXD094D7FxsWpzU13mJzQegaPDHvMyhEq7DxZ6PdXkWLc+gcHycnO1oP33lXonf+/HT18SBOfGaWWDWrr3TemyeMJ3s87n8+nxR/P1U0tm+napo01Z8Z0y3b+/+Zxu7Xwow90R9urdU3jhpozY7rcbndA5vbXonkfqfWF9TV6yMN+7/xP8Pl8GjPwfh09eMCkdIFjcN8Qen9gg5x7tRAQIubOnmX4Q/1khw8e0NC+vXRTy2ba8ft208Y1y4/ff6dbrm6u3nfcrB+//87WLFs3bdCQPvep/SWN9OWSRbZmOZUjhw6q+/Ud1KfzLdr5x++mjZuZnqY5UyaYNl6gVKjs9+lhr6R1JkYJCRQAIMh9Nn+eJeP+vGa1OjS9SHPfmWXJ+IW1d9dO9e16m26+6gqtXfWt3XH+4bfNm3TPDdeq67VttHXzRrvjSJK+Wfq52l3cSF99ttiS8Zd/as3fOyvVqtdA8Ql+nV1eLmmfyXGCHgUACHK//7bVsrEz0tL0UI+79OTDA+X1ei2b52w+njNbbZtcoIUffSCfz2dbjrNZ+cUydbz8Yk1/ebytOae+NE53dWqnQwf2WzbHrt9/kzeITxOdSkxsrFpfe2NhN/NKGm5BnKBHAQCCXFZmpuVzzJg8UX273Bqw8+wnpKWm6MF77tTA7l2VlpoS0Ln9lZOdracGP6RuHdvqwL69AZ3b6/Xqif89oKeHDba8gHjcbuXm5lg6hxWuaNVO5194cWE2GSLJ3nNNNqEAAEGubPlzAjLP4o/n6q5O7ZWZkRGQ+bZs+EXtL7lQ8959JyDzmW3FsqVq1+QCrfzyi4DM5/F49MDdXTTzlZcDMl+x5OIqEhcfkLnM5HK5dGevB9TsqmvOdldApqRekp4LTLLgQwEAgtylza8M2Fz5txter5zsbEvnWfnFMt3aqoV27/jT0nmsduzoEd3VqZ1mT59q6Tw+n0/D+/fWgg/es3SekzVu7vez2mwXGRmpGzp314OPPaNLm1+tEqVKKyIiUpKyJW2QNEZSDUmv2ZnTbhQAIMjd0q27IiMjAzbfyi+/UL87by/QAjL+mDNjuu66vn3IHPI/G4/breH9e+ul0U9adlj+yYcHas6M1y0Z+3Q6dbs3oPNZoULlKrql230aPmaiXpg22yMpTtL5koZKCuz5myBEAQCCXI06dXVnrz4BnXPpp5/oif89YPq4E58ZpSF97pMnyO+rLyyfz6fxo0dqaN+epl9MOfWlcQE77H/CFe066tKr2wZ0TgQeBQAIAcOfeU5XtW0f0DnfnvaqqYe2X3vxeb3w1AjTxgtGc2ZM14gH+5t2JOCbpZ/r2ceGmjJWQdVp1FgjpswM6JywBwUACAFR0dF67f15Gjh8hOLiA3dh1oiHBphyT/5br72iMY8OMSFR8Js1dYqeGTbY8Dg7tm9T/253BGzFxqjoaN1yXz9NWbhcRVlt1RHsfBYAgEKIjIzUA8MfV9ee92vJ/Hlat3qVDh84oIP79+vo4UM6sG+v6eeg83Jz1afzrVr4/Y8qWdq/Z3B89PZbeuKhAUF9f7/Zpo5/QfFFi2rgcP+OeORkZ6vX7Tef8omPZihZppySS5VWiTJlVapsedVscIFadrxJ5SpWtmQ+BCcKABBiSpYuo8739lTne3v+49ePHT2i5UsW653pU/XDym9Mm+/g/n16pPd9mvbBx4XedsWypRrcu4dliwyduM3L33IRGRlp2Tfs8aNHqtw5FXR79x6F3vbZx4bq143rTc1Ts35DXX9PLzVv11GlygXm1lIEN04BAGGieImSuv6OLnrv86/05vzFqlqjpmljL1u4QO+8Xrg7pn7f+qv6dr3Nkgv+kpKL697+A/XFz5uVlFzc73EWfv+jHhj+uGVrLTw2sJ++/2Z5obZZsWypZkyeaFqG0mXLacLMd/TOih91Y/f72fnjbxQAIAxd0aq1Fny7Rrd0u9u0MUcPeVh/bvutQD+bmnJc997cSakpx02bX5KKJibq0WfH6bttO/Xos+NUpXoNQ+OVKX+OBg4foRVbftfzr72h0mXLmZQ0nzsvT70731rg9Q6OHzuqQb3uMe10Sctr2mnxDz/pultuM/qoXIQhCgAQpuITEjR2yut6/LkXFRFh/J96ZkaGBt3fo0A7pyG97ytwWSioq9p10GdrftG9/QeafiFkVHS0buraTct+3qS7+/Q3dd2FY0cOq2/X2wv0OOeRgx7U/r17TJn3trvv1Wvvz1OJUqVNGQ/hhwIAhLnufQdo5Esvm/INcM23K866IM3MV17WonkfGZ7rhGKJSZr2wcd6/cP5Kl+xkmnjnm6uEc+/pPeXfa1y51Qwbdxf1v5w1rsgVn6xTPNmv23KfL0eGqQxk19TVBSXeeH0KACAA3Tp0UtDRo0xZawxw4fo8MEDp/y9LRt+0dMm3AJ3QtUaNTV3+be6uv21po1ZEI0uvlQfr/heF17S1LQx35g0QV8uWXTK38vOytLwB/qYcui/S49eeuSpZwyPg/BHAQAcoueDD6tLj16Gx0k5fkxPDX7oP7/udrs1qOe9ys0x5wlyzVu10byvv9N5tWqbMl5hlSlXXrMXL9NNXbuZMp7P59Owvr1OeV3Ey8+O1o7t2wzP0aJNWz354kTO96NAKACAgzwxbrwubtbc8Djz33v3P1e3Txk3Vht++tHw2JJ0ZetrNPX9eUpMSjZlPH/FxMbquVen67a7zVkXf//ePRr1yP/+8Ws7tm/Tay+NMzx2tZq1NH7m2wF9bgRCGwUAcJCo6GhNmvWuKVe7P/nwg3/fQ79ty2a9/Oxow2NKUuPLmmnyO+8rJjbWlPGMcrlcembSq6aVgPffnKGvPlv89/8eNeThAl0geCYxsbF6+a3ZthcmhBYKAOAwpcqU1ZhXpho+TLx5/c+aM+N1ud1uPdTjblMeIdy46eWa+fFCxSckGB7LTC6XS6MnvqION91iynhD+/ZSWmqKVn6xTEs//cTweMOfeU51zm9oQjI4CZeIAg50Vdv2uuOe+wq9uM+/jXvyce368w+t/3GN4UwVz62i1977KOh2/idERkbqhWkztWfnTv30w/eGxtq/Z7dGDnpQv6xdazjXFa1aB/xpkQgPHAEAHGro6GcN3+p29PAhTRk31nCW2CJFNPmd91S8ZCnDY1kpJjZWr8750JSVAz94a6a2btpgaIy4+Hg99dIkLvqDXygAgEMVTUzU48+9aHcMSdKo8ZN1fqOL7I5RIGXKldekt+coOibG7igaOHyEzq12nt0xEKIoAICDtbvhJrXqcJ2tGbr3HaCb77zL1gyFddGll2nY08aPfBhRt8EFuqf/QFszILRRAACHGzVhsorZ9Pz36rXraPDIp22Z26i7evdTizZtbZk7IiJCoyZMYqU/GMLfHsDhypY/RwOGPabRQx4O6LxR0dF64fWZKhIXF9B5zeJyufT0y1PUtskFpj/06Gy69uytRhdfGtA5Q9GhA/u0avky/brpF6UePxYpaZ+kPyTNl/SapKO2BrQZRwAA6O7e/Ux9fHBB9Bs8LGTO+59O+YqVNOL5lwI6Z2JSsgYOfzygc4Yan8+nhR+9q+cef1hffbZA+3bvVEZ6miSVk9RU0jOStku6w86cdqMAAFBUdHRA14+vf8GF6jt4aMDms9KNXe5U62s7Bmy+/kMfDfq7Jezk8/k0e/pkLVs47++Fqk4jWdLbknoHJlnwoQAAkCRd0/F6Xd7yKsvniYiI0MiXJioqOtryuQLlyRcmKL5oUcvnqVy1mrpxz/8Zfbd8qdZ+901Bf9wlaYKk0D4U5ScKAIC/DXvmOUVEWPuxcMc994Xd+evyFSup/yPDLZ9n2DPPBc0SycEoLzdXSz5+v7CbRUkyZx3rEEMBAPC3ug0u0PV3dLFs/BKlSuvhJ0dZNr6degx4UDXq1LVs/IubNdc1Ha+3bPxwsHXTeqWnpfqzaWvlXx/gKBQAAP8w6MnRll2ZP2TUGCUXL2HJ2HaLio7W6AmTLVuV75GnQvN2yUDa9ed2fzeNkNTIxCghgQIA4B/KnVNBXXr0Mn3ceg0b6aau3UwfN5g0ufwKtbvhJtPHbXNdJ114SVPTxw03fn77P6GsWTlCBQUAwH/0HTxURRMTTR1zxPMvWn59QTAYMmqMqefpIyIiNPDREaaNF868Xq+RzR23Lk74/2sEUGjFS5ZSj/4PmjZe2043qMnlV5g2XjCrVKWq7rq/r2nj3dC5K4/6hSUoAABO6b4HHlKpMsaPikZFR4fscr/+6jdkuCn36kfHxGjA0MdMSAT8FwUAwCnFFy2qTrcZXyjtytbXBHyVQbslJiXrBhPupmjeqo0qV61mQiLgvygAAE4pMyND89971/A4Xy/9TDu2bzMhUejISEsz7b3b9ecfJiQC/osCAOCUpk98SYcO7Dc8Tl5ursaOsH6RnGAy8dnROnzwgOFx8nJz9fKzjlyjBgFAAQDwHynHj2nahBdNG2/hRx9ozbcrTBsvmO3e8admTJ5o2ngfznpTv23eZNp4wAkUAAD/MenZp5Vy/JipY44aMkg+n8/UMYPR2MeHKSc727TxPB6PXhjJ0/9gPgoAgH/Yv2e33nx1sunj/rxmtea+M8v0cYPJDyu/0YIP3jN93CXz5+nnNatNHxfORgEA8A8vPDXC1G+wJ3tm+CNKTTluydh2c7vdemxgf0uOcvh8Po15dIjp48LZKAAA/rZ5/c/6cNablo1/+OABjXsiPO9rf2PSBP26cb1l46/6erk+XzDfsvHhPBQAAH8bPXSQ0eVUz2rW1Clhdzj70IH9mviM9U85HD3kYeXm5Fg+D5yBAgBAkrT000+08otlls/j9Xr1+IMD5Ha7LZ8rUEY82F9pqSmWz7Pj9+16e9qrls8DZ6AAAJA7L09PDxscsPl+WfuDpjz/bMDms9K8d9/RonkfBWy+8aNH6tjRIwGbD+GLAgBAs6ZO0R+/bQ3onBPGjNKmX34K6JxmO7Bvr5783wMBnTPl+LGAnG5A+KMAAA53cP8+vfjUEwGfNy83VwO732nZHQdW8/l8Gtqnp44fOxrwud98dbI2/PRjwOdFeKEAAA434sH+tt2a99vmTRr3ZGjeFTBr6hR9uWSRLXN73G4N63u/PB6PLfMjPFAAAAf7YvFCLf54rq0Zpk140ZLFc6y0bvUqjXrkf7ZmWL9uralLDsN5KACAQ2WkpWl4/952x5DP59MjvXtYeg+9mQ4fPKA+nW8Nitvxxj35GE8LhN8oAIBDjX18mPbv2W1ojOIlSuqefsYvgsvMyFCv2282/fkDZnPn5an3Hbdo/949hsfqdNsdql67jqExsjIzNeLB/oazwJkoAIADfb30M7312iuGxxn42BMaOvpZ1W1wgeGxdmzfpvtvv0nZWVmGx7KC1+vV4N49tOa7lYbHKlOuvJ58caIefXac4bG+XLKItQHgFwoA4DBHDh3Uw/d1N7xmfY06ddX53p6Kio7WuGlvKDomxnC2VV8v1323Xh90dwb4fD499kBf0x5mNPKll5WUXFxXtr5GV7Vtb3i8pwY/pC0bfjEhGZyEAgA4iNvtVv9ud+jQgf2Gxxrx/HhFRUVJkmrXb6A+g8x5WM2KZUvVt+ttcuflmTKeUT6fTyMe7K93Xn/NlPFu6NxV13S8/u//PXzM84qKjjY0Zk52tgbc1UXpqalG48FBKACAg4we8rC+W/6V4XE63HSLLm951T9+re+goapzfkPDY0vSsoUL1Ou2G5WRlmbKeP7Ky83V0L69TDldIuUf+n/8uRf/8WvVatZSjwEPGh77t82bNPCeOy1/lgPCBwUAcIgZkyeacttYscSk/+zEJCk6JkbPvfa64W+zJ3yxeKFuaHGZdmzfZsp4hXXk0EF16dBGc2a8btqYoye+ouTiJf7z6wOGPqbKVasZHn/ZwgV6avBDhseBM1AAAAeYM2O6Rg4y/i1TkgY/9bTKlCt/yt+r17CRhowaY8o8Uv632uubN9XXSz8zbcyCWL9urTpdcal+WPmNaWN2u7+vWnW47pS/Fxcfr5EvvWzKPDMmTwzZxZUQWBQAIMy9MWmChvXrZfiiP0lq2Phidb635xl/5p5+D/zjHLdRx48d1V0d26lv19t0+OAB08Y9lcyMDL00+knd1LKZ9uzcYdq4dc5vqGFPjz3jz1zZ+hpdd8ttpsz38rNP68mHB3I6AGdEAQDCVHZWlob1u18jBz1oyo4gLj5e46a+oYiIM39suFwuPTtlms6tdp7hOU+28KMPdHXDunpzyiTT7xLweDz6eM5sXd2wjsaPHqm83FzTxk4uXkJT3v1AsUWKnPVnnxg3XqXLljNl3hmTJ+r+22+y5VkFCA0UACAMfbf8K113eRPNnj7VtDGHjH5W59WqXaCfTUourqnvz1PRxETT5pek1JTjGvHQADWtca7GPj7M8Lf0o4cOafJzY9S8bnUN7N7VlAV+ThYZFaWXZ80p8Pn9EqVKa+yrr8vlcpky/+cL5qtdkwu0aN5HphwBQnihAABhIj01VQs+eE9dr22jzu2u1rYtm00bu0WbtrqzZ+GWDa5Rp64mzHxHkZGRpuU44diRw3rl+Wd1Zb0ahh5kdE2ThnpuxHDt3bXTxHT/7/HnXvzP3RJn06JNW3W9737TMuzfu0d9Ot+ibi0v0Sezpuv44UOmjY3QFmV3AACFc/zYUS1d8Il+XrNaB/bt1dHDh3X44AHt3vGnJU+HK1WmrN/fSlte006jJkzWsH73W/IN1Oif18q1Bno//Ii69erj17ZDnx6rVd8s12+bN5mWZ9O6NdrUv4dcLpfKVqyskmXLqXjJ0ipZrrxqNbhAzdt3Uqly55g2H4IfBQAIEV6vV1PGjdXk58cE7P74qOhoTZr1rqHz0rd376HMjAxH3Z52V+9+Gjzyab+3j4uP15TZH+j65k2VlppiYrL8hY3279qh/bv+efrkxWEP6eYefdX70VGKKcD1Cgh9nAIAQoDb7VafzrfouRHDA7o4zmNjX9DFzZobHueefg/of4+PNCFR8Lvt7ns04vmXDI9TrWYtvTRj1lkvujRLXk6OZk96QX07Xq3MdHsXYEJgUACAEDD2saFaMn9eQOe89a7ufh/CPpV+Q4ar35Dhpo0XjG7scqeefvlV0y7iu6ptez0U4OK0/ofvNLJP94DOCXtQAIAgt/3XLZo+aUJA52zRpq1GjZ9s+rj/e3yNhxDZAAAgAElEQVSknho/yZILA+3Wd/BQPf/a2W+TLKw+g4bojnvuM3XMs/nqk4+0+svPAzonAo8CAAS5OTOny+N2B2y+xk0v16S33zPl6X6n0vW++/XG3E9Nv0XQLpFRURo1YbIefmKUad/8T+ZyuTRqwmR1uu0O08c+k3kzzbuFFMGJAgAEuVVfLw/YXBddeplmzPtU8QkJls5zRavWmr14mcpVqGjpPFZLSi6u6R99oi49elk6T0REhJ6fOkNtO91g6TwnW/P1FwGbC/agAABB7oDJi9OcTqsO1+mtBUuUUKxYQOarf8GFWrR6ndrfeHNA5jNb0ytbaNHqdWreqk1A5ov6a1Ghsy3FbJbUY0eVk50VkLlgDwoAEOSKxMVZPsetd3XXK7M/UFx8vOVznSy5eAlNmjVHk2bNUWJSckDn9ldUdLQeGP64Zn36ucpXrBTQuSMjIzV64it6/LkXLb87IDIqStHR1pwGQnCgAABBrmr1GpaNHZ+QoDGTp+rZV6YpKsq+ZUHa33izFny3xtSHCFnhkiuu1CcrV2vg8BEBuz3vVLr3HaCp789TiVKlLZujYtXzFBGGF2vi/1EAgCDX+rpOlox7fqOL9MnKH3Tb3fdYMn5hVapSVVPe/VBzPvtS51/Y2O44/1C1Rk29OucjvbvkC9Wu38DuOJKkq9p10KLV63T5VVdbMn7z9tb8vUPwoAAAQe6mLt1MvViueImSevLFifpo+beqVrOWaeOa5eJmzfXxN6v00huzVP+CC23NUrVGTY186WV9tuYXtbGoiBlRplx5vfXJEo2f8bbOqVTZtHHj4hN0W+8HTBsPwYkCAAS5InFxGjd1hqKiow2Nk5iUrF4PDdKXG35Vt159bD3kfzYul0udbrtDn3z7gz76aqVu6NxVMbGxAZk7MjJSra/tqDfnL9aynzbpzp69Db/3VnK5XOp46+1a9tMmDXpytMqUK294zEHjJqlUWePjILhRAIAQcFmLlpr89nuKL1q0UNu5XC6df2FjjZ74ir7btlNDRo1RUnJxi1Jao9HFl+qFaTO1avsujZs6Q9fefKvpf4b4hAS16nCdRk98RSu2/K7X3purK1q1tuS+fqsUiYtTn0FDtPLXPzR+xtu65IorC73gUlR0tAa/MFntb+9mUUoEk+D9CgDgH1pf21GfrflF458eqYVzPzzlMwGiY2JUrUYt1apXT5e1uEot27Y35RthMCheoqRu7HKnbuxyp9xut35avUrrflit7b9u1pYNG7Tt180Fek5Ckbg4Va9VR9Xr1FHNOvV0fqOL1OTyZooNkwfgREVHq+Ott6vjrbfr+LGjWv7ZEn2z7DNtXL9Bf/y6+ZS39sXEFtHl13TQfUOfULXa9WxIDTtQAIAQUqHyuRo75XWNGj9Zv23ZpKOHDisqOlpFE4spuXgJla9QMagPV5slKipKjS9rpsaXNfvHrx87ekRpKSlKTTmujLQ05eTkKDo6RkUTiykxKVnFEhOVXKKkrVfwB1Jy8RLqdNsd6nTbHTqa51JOnkcH9+1RypHDykxPU25OjoolJatq7bqKSyjc0SWEPgoAEIJiYmNVr2Eju2MEneIlSqp4iZJ2xwhaEZGRKlexsspVNO+CQYQuZ9RgAADwDxQAAAAciAIAAIADUQAAAHAgCgAAAA5EAYC5fHYHAAAUBAUApvJRAAAgJFAAYCqv12t3BABAAVAAYCq3hwIAAKGAAgBTefLcdkcAABQABQCmynN77I4AACgACgBM4/Z45OEUAACEBAoATJOTnWd3BABAAVEAYAqfjwIAAKGEAgBTZGflyOvj8D8AhAoKAAzzeX3KzM6xO0ZARUZG+b3tscOHTUwCFJDFi3TlZGcpKyPd7+0jIiNNTIOCoADAsLSMLPm8zloCMLZIEb+3nTNzuolJgILxWPxP9NPZM+XO8+80YEREhGJiYk1OhLPx/2sMoPxD/7k5zjv3X7JUaR3cv9evbae+NE6HDuxX6w4dlZiUbHIy4L+8klIs+meamZGutd98pQ9fn+z3GEnFS8jlcpmYCgVBAYDfcnPdSs901qH/E8pXqKzNG372a1ufz6e578zS3HdmmZwKCE1ly1ewO4IjcQoAfsnNcystLcOxT/+pUbue3RGAsFGtRh27IzgSRwBQaNnZuUpPz7Y7hq3qNbxIEZGR8npY+RAwqlb9hnZHcCSOAKDAfD6f0tKzlJ6eJcsvKQ5yxRKTdP4Fje2OAYS8sudUVMVzq9odw5EoACiQnJxcHTuWrpzsXLujBI1W7TrZHQEIeVdc3dbuCI5FAcBp+XxSTk6ejh1PV1palrxeFvo5Wf0LGqt6zbp2xwBCVvGSpdTk8ivtjuFYFACcxCe3x6Ps7FylpWXq6NFUpaVlysMT/k6ra49+iojgnxHgj+tvv0tRUdF2x3AsLgI0g88nr9enPI9XXo9XXq9HPp/+enn/+m8QnzP/K5/3r6wouHOrVdd1N3fRx++9ZXcUIKQ0uvhy1W/UxO4YjkYB8IPH41VunlvuPI/cbrc8Xp9jb4eD1PHmLvpz+1b9vPZ7u6MAIaFSlWq69a6edsdwPI5dFsCJJ92dOCx+7FiaMtKzlJOTK4/Hy87f4SIiItTnoUdVq24Du6MAQa/sORXV44Ehioll6V+7UQDOIM/tVnp6Vv658PRM5eTkyeuwNe9RMDGxsfrfY0+rcdMr7I4CBK1qNWqr3yNPqGixRLujQJwC+A+vz6fs7FzlZOXKw1XvKITo6Bj1eehRff7pXH34zhvKzXXmMsnAv0VERqp1hxvU6tobFBHBU/+CBQXgL16fV9lZecrKygnuC/YQ1Fwul9pce6MaNWmq92ZN09pVK/j7BEer2+BC3d6tp0qXP0eZWZl2x8FJHF8AfD6fMjJylJOTw6l8mKZ02fLq+7/HtHf3Dn31+UKtXrlcKceP2h0LCIj4hKJqfGkzXdmqvarVqC1Jys5x9vLhwcjRBSAnJ1cZGdmc14dlzql4rjp376077r5fu3f+oe1bt2j/3l06fuyocrKzlJvLyooIbdHR0YotUkRJScVV9pyKqnpeTVU5rybrY4QARxYAj8er9Iws5eW67Y4Ch3C5XKp0bjVVOrea3VEAQJIDC0BmVrYyM3O5dQ8A4GiOKQBer09paVnKy8uzOwoAALZzRAHIy3MrLS2Tc/0AAPwl7AtAVlaOMjOzOeIPAMBJwroAZGXmKCOTW08AAPi3sCwAPp+UkZGl7GxusQIA4FTCrwD4fEpPy1JOLhf7AQBwOmG3UkN6RjY7fwAAziKsCgCH/QEAKJiwKQBZmTnKymLnDwBAQYRFAcjJyeVqfwAACiHkC4DH41V6Ojt/AAAKI6QLgE9SWlomz1sHAKCQQroAZKRnye322B0DAICQE7IFIDfXzRX/AAD4KWQLQHpGlt0RAAAIWSG5EmBOTq68Hq/dMf7jyOFD+mnNav3262bt2vGHdu/4UxkZGUpPS1VWZobcbrfdER1vy8af1f3mNnbHABB8pv71kqTjktIlZUjaIelXSZskffPXf8PiwrOQLAC5OcGz0t+uHX9qySdz9eXSxfpz+za74wAAjEv+6yVJtSSd/K3hgKRFkt6UtFxS8H0bLaCQLADBYNWK5Zr1+qtat+Z7u6MAAAKnrKS7/3rtkPSi8o8cZNoXyT8UgEL6ae1qTRg7Wr9u2mB3FACAvc6V9JKkYZJGSZosKWRuTaMAFFDKsWOa+PxoLf5kHusOAABOVkbSBEndJd0vabW9cQomZO8CCKSf1q7WXTd30KL5c9n5AwBOp5GklZKeUAjsX4M+oN3mvPWGBtzbVYcOHrA7CgAg+EVJGiFprqQEm7OcEQXgNHw+n16fPF4Txo6SxxMyp3QAAMGho6QvJZW2O8jpUABOY8LYUZr+ygS7YwAAQlcTSUv1/7cUBhUKwCnMeHWS3ps1w+4YAIDQ10D56wYE3ekACsC/fPnZIk2b9KLdMQAA4eNSSVPsDvFvFICT7Nm1U2NGDOVKfwCA2bpK6mF3iJNRAP7i9Xo1cuhDSk9PszsKACA8TZB0nt0hTqAA/OWTj97Thp/X2R0DABC+4iRNsjvECRQASWmpKXp1/HN2xwAAhL9rJHWyO4TEUsCSpA/eeVMpx4+bNl5UTJzK1G6m8vWvVrEyVRWXVFaxxUopIpK3GwCsdDDbo9WHc4w9rzfzqHyZR+VL2SPfn9/Jt325fGmmLgY3QtJ82fxYYcfvkbIyM/X+2zNMGSsqJk7VW3RXzavuVVRs0N3xAQBhr0yRSFUtGq3f0w08Nj6+hFzxJeQqVV0670rp6kfk/fVzeVe8LN/x3WbEbCSpvaRPzRjMX44vAJ8vnG/Kt/+SVRvpkrvGq0hSGRNSAQD8VTspWvuy3MrymPUF26WIWm0UUb2lPCsmybvmTTMG7SubC4DjrwFY9Mlcw2NUbtxRV/SZyc4fAIJApEuqlRRtwcDRirxyoCLbjZQiDH9/bi2pnAmp/OboArB/7x6tX7fW0BhlazfTRXc8o4ioGJNSAQCMqhAXpbhIlyVjR9S9VpEtHzY6TJSkW02I4zdHF4A1q1YaWvQnoVRlXdztBbkiIk1MBQAwKsIlVU6w7ix3xAW3KuL8G4wO08aMLP6yswD4fYVGVLQ5h3bWrl5laPv61z6s6LhEU7IAAMxVMd7ay9wimw+QYosZGeIK2Xgtnp0FYL+/G5Ysbc659o2/+L/wT4lzG6pCg9am5AAAmC8+yqWiURbu5ookKfLiu42MkCipnjlhCs/OArDSn40Sk5JV9bwahifPy83Vvj17/N7+3EtuklzWnF8CAJijZKy1u7mI+p0kl6E5apqVpbDsLAALJB0p7EZtOnRUZKTxc+67d+6Q1+vxa1uXK0Ll67U0nAEAYK3EGIt3c/El5Cp/vpERapsVpbDsLACpkh4vzAZJxYvr7l79TJn86JHDfm+bUKqSiiSWNiUHAMA6CZHW7+ZcFRsZ2bysWTkKy+67ACZLmlaQHywSF6+nX5ys4iVKmjJxZmaG39sWSeR+fwAIBTEBuEnLVdTQPsG2K8ntLgCS1FPSYEmn3SOfV6OWprw5RxdcdLFpk2ZRAAAg7EUF4lqthFJGtjZ0G4ERwbAUsE/Sc5LektRVUouk5OQGlc6tWqlSlaq6omVrXdGylSIizO0qHrd/5/8lKTLKghWmAACmC8il2pGGFoKzbSGZYCgAJ+yX9Lyk579Zvb5zWk7u23YHAgAgXAXDKQAAABBgwXQEAH7ITjmovRuWKe3Adrmz0xWbWFqlqjVWmZpNeT4BAOC0KAAhyp2TqQ2fPK8/V70nr8f9j9/bumyq4pLL6/yOg1SxUXubEgIAghkFIATlpB/RilfuUcreX0/7M1nH92n1mw8pdd9W1W0/MIDpAAChgGsAQozP69GqNwacced/si2fT9GO1R9ZnAoAEGooACFm55r5OvL72kJts37+WOVlp1mUCAAQiigAIeb3lbMLvU1uxnHtWbfIgjQAgFBFAQghednpOrZrvV/bHvxtlclpAAChjAIQQrJTD0o+n1/bZh3fZ3IaAEAoowCEkMioWP+3jS5iYhIAQKijAISQIkllFBnj3448oVRlk9MAAEIZBSCERERGq2ytK/zatny9q0xOAwAIZRSAEFOrVU+pkI+3TDqntsrW8a84AADCEwUgxBSvfL5qXtWjwD8fFROnxl3GyOXi/2oAwP9jrxCC6nV4UNWvvPusPxeTkKym972qpHNqWx8KABBSeBZACHK5ItTg+iEqV6e5Ni+ZqCN//vSP2wOjYhNU6aJrVadNXxVJKmNjUgBAsKIAhLAytS5TmVqXKTvloFIPbJc7J11FEssouUIdHgUMADgjCkAYKJJUhm/6AIBCCcZrAGJWrfym5PFjR+3OAQBA2AqWIwARkjpLuk/S5T27d46UpKTkZDVr0Upd7+2lylWq2RoQAIBwEgxHAMpI+krSW5KaS4o88Rspx4/r03kfqOv1bfXOjKk2xQMAIPzYfQQgUdIXkuqd6Yc8Ho8mjRsjd16eut3XJzDJAAAIY3YfAXhBZ9n5n2zqyy9q84ZfLIwDAIAz2FkAqkq6uzAbeL1evT55vDVpAABwEDsLwPU66Xx/Qf3w3Qqlp6dZEAcAAOewswCc789GbrdbO//43ewsAAA4ip0FoKS/G7JGAAAAxthZAAr3TNuT+LxeM3MAAOA4dt8FAAAAbEABAADAgSgAAAA4EAUAAAAHsnsp4JCUcXSP9vy02O4YAICzyPH65D2ea+kcvgObLR3fKhQAPxze/oMOb//B7hgAAPiNUwAAADgQBQAAAAeiAAAA4EAUAAAAHIgCAACAA1EAAABwIAoAAAAORAEAAMCBKAAAADgQBQAAAAeiAAAA4EAUAAAAHIgCAACAA/E0QD/El6ig4pXPtzsGgDCScWinju/Z5Ne2RUtVVlLFuiYnCg8er3Qw22PpHL6MQ/Lt+cnSOaxAAfBD6fOa6KLOY+yOASCMbP/mbR3/yL8CULbOFWp442MmJwoPmW6flu3PsnQO7/av5dkz0NI5rMApAAAAHIgCAACAA1EAAABwIAoAAAAORAEAAMCBKAAAADgQBQAAAAeiAAAA4EAUAAAAHIgCAACAA1EAAABwIAoAAAAORAEAAMCBKAAAADgQBQAAAAeiAAAA4EAUAAAAHIgCAACAA1EAAABwIAoAAAAORAEAAMCBKAAAADgQBQAAAAeiAAAA4EAUAAAAHIgCAACAA1EAAABwIAoAAAAORAEAAMCBKAAAADgQBQAAAAeiAAAA4EAUAAAAHIgCAACAA1EAAABwIAoAAAAORAEAAMCBKAAAADgQBQAAAAeiAAAA4EAUAAAAHIgCAACAA1EAAABwIAoAAAAORAEAAMCBKAAAADgQBQAAAAeiAAAA4EAUAAAAHIgCAACAA1EAAAAwwBUTb2TzVLNyFBYFAAAAI5LOMbL1nyalKDQKAAAABrgSz5GrRFV/N19kZpbCoAAAAGBQROOu/mz2vaRvTY5SYBQAAAAMiqjfSa7KTQqzSYakXpJ81iQ6OwoAAABGuSIUdd1YuSpcUJCfTpV0s6SfrQ11ZhQAAADMUCRJUbe8qsgr+ktFEk/1E15JcyU1lrQ4oNlOIcruAAAAhI3IaEVc3F0RF3WVb89P8h39Q3G7V72d/utXCyR9JWm/zQn/xhEAAADMFhktV+UmirjgVlXsMmGhpHcVRDt/iQIAAIAjUQAAAHAgCgAAAA5EAQAAwIEoAAAAOBAFAAAAB6IAAADgQBQAAAAciAIAAIADUQAAAHAgCgAAAA5EAQAAwIEoAAAAOBAFAAAAB6IAAADgQBQAAAAciAIAAIADUQAAAHCgKLsDAAAQdtw58u1cLd+xXdq1e+X1kqIlfSlpp83J/kYBAADALO5ceVZPl3ftLCk3U5KUId2i/JckLZI0SNJGmxL+jQIAAIAZso7LPXeAfPs2nOmn2klqLukOSZ8EJNdpcA0AAABGeT1yz//f2Xb+JyRImiPpImtDnRkFAAAAg7y/fCjf7nWF2SRO0hRJLmsSnR0FAAAAg7w/zvZns8aSmpkcpcAoAAAAGOBL2SPfsR3+bt7WzCyFQQEAAMCI1L1Gtq5iUopCowAAAGCALzfLyObFzMpRWBQAAAAciAIAAIADUQAAAHAgCgAAAA5EAQAAwIEoAAAAOBAFAAAAB6IAAADgQBQAAAAciAIAAIADUQAAAHAgCgAAAA5EAQAAwIEoAAAAOBAFAAAAB6IAAADgQBQAAAAciAIAAIADUQAAAHAgCgAAAA5EAQAAwIEoAAAAOBAFAAAAB6IAAADgQBQAAAAciAIAAIADUQAAAHAgCgAAAA5EAQAAwIEoAAAAOBAFAAAAB6IAAADgQBQAAAAciAIAAIADUQAAAHAgCgAAAA5EAQAAwIEoAAAAOBAFAAAAB6IAAADgQBQAAAAciAIAAIADUQAAAHAgCgAAAA5EAQAAwIEoAAAAOBAFAAAAB6IAAADgQBQAAAAciAIAAIADUQAAAHAgCgAAAA7k3ALgcvm9qc/nMzEIAMA6gfi8Ds19gmMLQJEiRfzeNifjmIlJAABW8QRi35x5NACTmM+xBSA+IcHvbbNTD5mYBABglbxAFID0gwGYxHyOLQDFiiX6vW3G4R3yunNNTAMAsEJmntfyOXxH/rB8Dis4tgBUPLeK39u6czJ16LdV5oUBAFgiw+pzAJ5cef9Yae0cFnFsAUhMSlZS8eJ+b7/7p8UmpgEAWOFojsfS8X07vpdyMyydwyqOLQCSVKNmHb+33bV2vtIP7zQxDQDATB6fdCzHyiMAPnm+nWLh+NZydAG48OJL/d7W63Fr44LnTUwDADDT/myPPBbeoufdvEi+A5stG99qDi8ATQ1tv+fnz7T9m7dNSgMAMNOujDzLxvYd+V2epc9YNn4gOLoA1GtwgcqULWdojF/mPa39m5ablAgAYIaUPK8O5Vh0B0DGYXnmPRiy5/5PcHQBiIiIUJsOnQyN4fN69N3rfbR12VSTUgEAjNqSkmfJAn2+g1vkfqebfMd3mT94gDm6AEhShxtuVkSEsbfB5/Vow4JxWjW9n9IOhub9oAAQLvZnu3Uw2+Sr/3Mz5Fk5We7Zd8uXut/csW0SZXcAu1WuUk1XtrpGX362yPBYe9cv1b6NX6rShdeqQsNrVKbWZYqM9n/JYQBA4eR4pPXHzDr375Nv/0Z5t30l7y9zpazwWgbe8QVAkrr16KOvPl9sykN+fF6Pdq75WDvXfKzI6CJKKFlRRRLLKDre/5UHAYS/jEP+31Z8YPM3+n7mQBPThK4jOR7lGvzy73NnS+mH5EvbJ2WlmBMsCFEAJNWsU1ftOt6ohR9/aOq4nrxspe7fptT920wdFwBOln54J+uSoNAcfw3ACf0eHmZoZUAAAEIJBeAvScnJGjjkcbtjAAAQEBSAk7Rp31Edb77d7hgAAFiOAvAvA4c8pvoNG9kdAwAAS1EA/iU2tojGTXlD1WvWtjsKAACWoQCcQtGixfT8K9NV5bzqdkcBAMASFIDTKF2mrKa8+Z4aXNjY7igAAJiOAnAGxRKTNP61N3VLl7vsjgIAgKkoAGcRExurgUMe15NjxyspOdnuOAAAmIICUECt2l2rOZ9+oVu63GX44UEAANiNPVkhFEtM0sAhj2vGBwvUqt21ioiItDsSAMBGdRtcoBtv72p3DL9QAPxwXo1aenLseL27YKm69+qn8hUq2R0JABAgRYsl6pprr9crb76nqW9/qEsvb253JL/wMCADKlSqrB79HtS9fQdq6+aNWvv9d1q7+jtt37pFhw4esDseAMAExRKTVKN2HdWoVVdNm7dQo8aXKCoq9Hefof8nCAIul0u16tZXrbr11bn7fZKkzIwM7d2zS6nHjyszI125ebk2pwQAFERkZJSKFi2moomJKlmylEqVKWt3JEtQACwSn5DAaoIAgKDFNQAAADgQBQAAAAeiAAAA4EB2FgC/r4rLyMwwMwcAAH5LT08zsnmOWTkKy84C4Pc7dphb7AAAQeLwwYNGNk81K0dhhWQB2L93r5k5AADw2/59e4xsbujwgRF2FoAd/m64asVXJsYAAMB/q1YsN7L5nybFKDQ7C8Cv/m64Z9dO/b5tq5lZAAAotG1bt2jv7l1GhrBtZ2ZnAdhsZOPZM6aZlQMAAL+8O9PwvmiTGTn8YWcB2C7J7xMniz+Zq9+22Pa+AQAcbtvWLVqy4GMjQ+ySQ08BSNKX/m7o9Xo15olhysnJNjMPAABnlZ2dpacfHSyv12tkmGVm5fGH3QXgUyMbb9m4XqMfHSyfz2dWHgAAzsjn82n0o4/o180bjQ5laB9oVKSdk0vaJqmfpCL+DvDHtt/0x/bf1LR5C0VHR5uXDACAf8nNydHoRwdr6aJPjA6VIqmXJLfxVP6xuwC4JVWXdKGRQf7cvk2rVixXnfoNVap0GXOSAQBwkl83bdAjA3rph+9WmDHcm5LmmjGQv1x2Tv6XupLWy4TTEREREWrV7jrd3u0e1axTTy5XMPzxAAChyufz6ddNG/Tum69r6aIFZp1y9kqqJ2mLGYP5K1j2kO9LutnMAcuUK69LLm+usuXPUZmy5RQXH2/m8ACAMJWVmamDB/Zr/949Wr3yax08sN/sKd6TdJvZgxZWsBSAupJ+ksRJfABAOMuV1FA2f/uX7L8G4IRDkopKutzuIAAAWOhZ5R8BsF2wHAGQpARJP0s6z+4gAABY4DdJF0jKtDuIZP86ACfLkHSTJFb2AQCEmxxJtytIdv5S8JwCOOGApKOSOtgdBAAAE/WRzQv//FuwFQBJWqP8hYGa2R0EAAATjJL0vN0h/i0YC4AkfSGpnKTGdgcBAMCAVyQNsjvEqQRrAZD+/1BJCztDAADgp2clPSQpKB9YE8wFQJK+krRfUmtJUfZGAQCgQLIl9ZY01u4gZxJMtwGeyYWS5ij/uQEAAASrrcpf5e8nu4OcTbAfAThhn6Rpyn94UFNxNAAAEFzyJE1S/s5/p81ZCiRUCoCUv/P/SvnPDSip/OWDg2kdAwCA83gkvSvpVklvK3+p35AQKqcATqWGpIHKX1ihhM1ZAADOckT5O/6XJG2zOYtfQrkAnBAjqb3yFw9qKZYSBgBYY7vyb1P/VNIihdC3/VMJhwLwbxUk1ZFUS1IlScWV/6ChQD9pMEH5xcQfGZIWmpgFAOzUXvmfif5YqPzPxEDKk5Su/JVpdyn/wr7NkvYEOAdCVBXl3/vpz+uPwMcFAMv8If8/D6sEPq4zcBEdAAAORAEAAMCBKAAAADgQBQAAAAeiAAAA4EAUAAAAHIgCAACAA1EAAABwIAoAAAAORAEAAMCBKAAAADgQBQAAAAeiAAAA4EAUAAAAHIgCAACAA1EAAAAAziBZ0hBJqyQdkeSz+eWRtFfSp5LulBRp3R8dAP4WJambpIXK/wzyyP7PwyOSvsfa0XwAAAHKSURBVJP0iKQk6/7ocKJOCo6d/plev0iqadUbAACSaklaL/s/7870OizpOqveADhLZwVHwy1oC65lzdsAwOFqSzoq+z/nCvLySLrdmrcBTlFDUpbs/8tcmNcG5R+iAwCzREvaJPs/3wrzypRUzYo3A84wS/b/Jfbn1d2KNwOAY90r+z/X/Hm9acWbgfAXJyld9v8F9uf1mQXvBwDnWib7P9f8eaVJKmLB+xEWuA3w9GpLSrA7hJ8a2x0AQFi5yO4Afiqq/M9ynAIF4PRK2B3AgGRxWyAAc0RKSrQ7hAEl7Q4QrCgAp3fE7gAGHFP+VbAAYJRHUordIQw4ZHeAYEUBOL3Nyj9/FIp+sDsAgLCyxu4AfkqXtNXuEMGKAnB6OZLm2R3CT+/aHQBAWJltdwA/fSgp2+4QCE3nKf9eUruvZC3M6xexDgAAc0Upf40Ruz/fCvPKkFTVijcDznG7QmclwMNiOWAA1qil4F8S/cTLI+lWa94GOM11yr+QxO6/1Gd6/aT8lQsBwCo1Jf0s+z/vzvQ6KKmDVW8AnClJ0mBJ3yr/m7bdf8lPPA3wE0ldxG1/AAIjUlJXSQsUPE8DPCxppaRBCu1bFgPq/wBbDart4QCdaAAAAABJRU5ErkJggg==" vertex="1" parent="iXIntG2NBJSnMrhjwnnG-14">
          <mxGeometry x="36" y="252" width="78" height="78" as="geometry" />
        </mxCell>
        <mxCell id="iXIntG2NBJSnMrhjwnnG-8" style="edgeStyle=orthogonalEdgeStyle;rounded=0;orthogonalLoop=1;jettySize=auto;html=1;" edge="1" parent="iXIntG2NBJSnMrhjwnnG-14" source="iXIntG2NBJSnMrhjwnnG-5" target="iXIntG2NBJSnMrhjwnnG-2">
          <mxGeometry relative="1" as="geometry" />
        </mxCell>
        <mxCell id="iXIntG2NBJSnMrhjwnnG-5" value="Sequencer 2" style="shape=image;verticalLabelPosition=bottom;verticalAlign=top;imageAspect=0;aspect=fixed;image=data:image/png,iVBORw0KGgoAAAANSUhEUgAAAgAAAAIACAYAAAD0eNT6AAAACXBIWXMAAA7DAAAOwwHHb6hkAAAAGXRFWHRTb2Z0d2FyZQB3d3cuaW5rc2NhcGUub3Jnm+48GgAAIABJREFUeJzt3XmcTfXjx/H3ndXMMDN2soTsRIpKSRSyFO0LUkpkTX0jS6VESakQKRKlpI0kS1EpSiKVNVHZ92X27S6/Pyb9VJaZe8655957Xs/H4z56fJnz+bzdL/e871k+xyUAklROUgtJjSTV/OtVQlKCpGL2xQIcLeOv1zFJv0vaLGm9pK8k/WlbqjDhsjsAYKNqku6UdIukejZnAVA4v0uaK2mm8ksBCokCACdqKWmYpKvFvwEgHKyR9IykeZK8NmcJGXz4wUmaSHpJ0mV2BwFgiY2S/idpid1BQgEFAE6QKGmMpF6SImzOAsB6H0gaIGmf3UGCGQUA4a6RpPckVbc7CICAOiSpm6TFdgcJVpF2BwAs1E3Sx5LK2B0EQMAlSOosyS3pG5uzBCUKAMLVA5JekRRtdxAAtnEp/2Lf0so/EuCzN05woQAgHA2V9Jw4xQUg38WSKkhaYHeQYEIBQLjpJmmi2PkD+KcLJUVJ+sLuIMGCAoBw0lzSh+LvNYBTay5pu6Rf7A4SDPiWhHBRWtI65R/mA4DTyVD+miCb7Q5iN+6JRrh4Vez8AZxdgqRZ4kghbwDCQltJo+wOASBklFf+OgGr7Q5iJ04BINTFKP9QXjW7gwAIKSnKXyDssN1B7BJldwDAoDtl4s4/JjZW9RtepEZNLlOlKtWUlFxCScnF5XLRlYHCyMzKVHZOtqEx0tNSlZZyXPv37tamn9dq8/qflJWZYVJCJUkaKOlRswYMNXyqIZRFKv/bfw2jA0VHx6hV+07qcOMdSkgoajwZ4HA+SalpKfJ4PKaNmZebq2+WLdKyhR8rOyvTjCFTJJ37138dhwKAUNZO0kKjg1Q6t5r6Dx6h0mXLmxAJwAlut1up6ammj5uelqq3Xh2vbVs2mjFcX0mTzRgo1HARIELZU5LqGxmg4UWX6KHho5WYXNykSABOiIiIkMfrMfUogJR/qu6iS5spLSVFu3f8YXS4UpKmmRAr5FAAEKoSJL0uA2v9V6teSw8OH6XY2CLmpQLwD5ERkcrJzTF9XJcrQnUbXKi9u3fq4P69RoaqqPzbAo+Zkyx0sA4AQlUzSXH+blwsMUn9Bz+hmJhYEyMB+LfIyEhFRVpzvbnL5VLnHn1Vptw5RodqZUaeUEMBQKhqaWTjTrd0VXKJkmZlAXAGMTExlo0dG1tEHW+90+gwhj5PQhUFAKHqEn83LF2mnK5s3cHMLADOICbaugIgSXUaNFK1mnWMDNHUrCyhhAKAUFXb3w2bNr9aUVEsgQEESkREhCIirN3dNLn8SiObV5IUb1KUkEEBQChKlFTO340bNXFk2QdsFWnRdQAn1G1woZGS4ZIJ64mEGgoAQlEZfzeMiYnVudUc9+8csF2kxUcAihZLVGljFwOWNStLqKAAIBQV83fDpOIlWNYXsEEg/t0lGVvPw+/PlVBFAUAo8nutXoMfEAD8FIgCUCwp2dDmZuUIFRQAhCK/F7CKivJ73SAAQc7gv2/HXRlMAQAAwIEoAAAAOBAFAAAAB3LcOQ/ALnt379Tvv23Rvj27lJZ6XNlZWXZHAkwRW6SIihZLVNnyFVW1ek1VrnIed9uEAAoAYKED+/Zo+dKFWrXiSx07ctjuOEBAFC2WpCaXNdeVV7fTudWq2x0Hp0EBACxw5NABvT/rda3+drl8Pp/dcYCASk9L0ZdLPtGXSz7R+Y2a6LY771PJsn4v3gmLUAAAky1bPF/vvzVNOTnZdkcBbLd+3Q/a9Ms6XdPxJrVs18nyZwKg4CgAgEnceXma9vJz+n7lV3ZHAYKKx+PWwrlztHXzBt3d5yHFxSfYHQniLgDAFHl5uXrxmcfY+QNnsG3LRk0a+6Qy0tPsjgJRAADDfD6fprz4tDb98qPdUYCgt2/3Tk2b8KzycnPtjuJ4FADAoAUfztaPq7+1OwYQMnb+vk1zZ8+wO4bjUQAAA3b+uV3z3n/L7hhAyPn+my+08ee1dsdwNAoAYMCsaS/L6/HYHQMISfNmz5TH7bY7hmOF410AsZJq/vWqIinhr5eh50QiqJxjdwBJ2vTLj/pty0a7YwAh6+jhg/rh2+W6tPnVdkdxpHAoAC5JTSW1l9RS0sUKjz8XgtznC+fZHQEIed8sXUQBsEko7yhLS7pfUjdJrDWJgEpPS9H6dWvsjgGEvP17d2vPzj9VoXIVu6M4TiheA1BO0ouS/pQ0Uuz8YYONP/8oj4dzl4AZtmz4ye4IjhRKBSBCUk9JWyQNlBRvbxw4Gef+AfP8/tsWuyM4UqicAqgm6V1JTewOAkjS3t07DG1/7c23qkWbdoqLp8fCel6flGrRASu3O0/rVn6t+W+97vcdMQf27jY5FQoiFArAjZKmS0qyOwhwwpHDh/zetseABzV8zPMmpgHO7lCOS16Lxr7m5s46r259jRs8wK/tU44dlc/nk8vlMjkZziTYTwH0k/S+2PkjyORk+/+kv9u79zAxCVAwkRbvWzveea8io/z7Tun1elka2AbBXACelDRRwZ0RDmXkAsASpUubmAQoIIsLQGyROMUXLeb39lxUG3jBunPtJ+lxu0MAABCugrEA3CZpgt0hAAAIZ8FWAGpIek2WH6wCAMDZgqkAxEr6QFKi3UEAAAh3wVQABklqYHcIAACcIFgKQFVJw+wOAQCAUwTLQkAjJMWZOWBC0aK6uOllqlCpskqWLq2Spbj1KhB8Pq8yMnIsnWPXn39o9sxpls4BAOEuGApAVUmdzRrssuZX6u6evXVpsysUGxtr1rAoIK/Pq6NH0iydY90P31MAAMCgYCgAAyVFGx2kcpUqGjHmOTW7sqUJkQAACG92F4AYmfDt/6KLL9XL02eqRMmSJkQCACD82V0A2ksqZWSAZle21KtvvaOoaMMHEQAAcAy77wK4zsjGVc+rrhdfm8bOHwCAQrK7AFzl74Yul0vPvDRRiYk8KBAAgMKyswBUllTF343bdLhOjRo3MS8NAAAOYmcBqGdk4579BpiVAwAAx7HzIsBa/m5Yrvw5qtegoZlZgJDidrv1x29bdfjgQcXFxym+aFEVK5aosudUUESE3Wf27JOemqr09DRlpKUpIz1NaSmpSihWVAlFi6losWJKKFZMiUnJdse01aF9e5R54j1KS1WJMmVVsep5ii1i6lpsCAF2FoAq/m7YolVruVw8MBDOs3/vHr08ZrQWfPCeUo4f+8/vx8XHq3qtOqpVv76aNm+pFte0VYkwXAXT6/Vq/Y9r9PPaNdq6cYO2/bpFWzdu0LGjR866bdHERNWoXVc169ZT9dp11ODCi3ThJU3D8mLi9NRUfbPsc634Yqk2rF+v7Zs3KiMt9T8/FxefoObtO+mewY/p3Bp+fzdDiLGzAPj91L9KVaqamQMICV99tlj9u92h9NT/foCfkJWZqfXr1mr9urX64K2ZioiIUKOLL9Vtd9+rjrfertgiRQKY2FypKce1/LMl+nLJQi3/bImOHj7k1zjpqalat3qV1q1e9fevFUtMUrOrrlaLa9qrZdt2Kl22nFmxA87tduvzBfP1zuuvatXXy+XOyzvrNlmZGVrywTv6Yv4HGjxusq7rek8AksJudhaAov5uWLpMGTNzAEFv9Yqv1fPWG5SXm1uo7bxer9au+lZrV32rMY8OUZf7eqnnA/9T0cTQeer2xp/X6a1XJ+vjObOVnZVlyRxpqSlaNO8jLZr3kSKjonRNx+t1Z8/eurR5C0vms0JuTo7efHWy3pg0QXt37fRrjLzcXD094D7FxsWpzU13mJzQegaPDHvMyhEq7DxZ6PdXkWLc+gcHycnO1oP33lXonf+/HT18SBOfGaWWDWrr3TemyeMJ3s87n8+nxR/P1U0tm+napo01Z8Z0y3b+/+Zxu7Xwow90R9urdU3jhpozY7rcbndA5vbXonkfqfWF9TV6yMN+7/xP8Pl8GjPwfh09eMCkdIFjcN8Qen9gg5x7tRAQIubOnmX4Q/1khw8e0NC+vXRTy2ba8ft208Y1y4/ff6dbrm6u3nfcrB+//87WLFs3bdCQPvep/SWN9OWSRbZmOZUjhw6q+/Ud1KfzLdr5x++mjZuZnqY5UyaYNl6gVKjs9+lhr6R1JkYJCRQAIMh9Nn+eJeP+vGa1OjS9SHPfmWXJ+IW1d9dO9e16m26+6gqtXfWt3XH+4bfNm3TPDdeq67VttHXzRrvjSJK+Wfq52l3cSF99ttiS8Zd/as3fOyvVqtdA8Ql+nV1eLmmfyXGCHgUACHK//7bVsrEz0tL0UI+79OTDA+X1ei2b52w+njNbbZtcoIUffSCfz2dbjrNZ+cUydbz8Yk1/ebytOae+NE53dWqnQwf2WzbHrt9/kzeITxOdSkxsrFpfe2NhN/NKGm5BnKBHAQCCXFZmpuVzzJg8UX273Bqw8+wnpKWm6MF77tTA7l2VlpoS0Ln9lZOdracGP6RuHdvqwL69AZ3b6/Xqif89oKeHDba8gHjcbuXm5lg6hxWuaNVO5194cWE2GSLJ3nNNNqEAAEGubPlzAjLP4o/n6q5O7ZWZkRGQ+bZs+EXtL7lQ8959JyDzmW3FsqVq1+QCrfzyi4DM5/F49MDdXTTzlZcDMl+x5OIqEhcfkLnM5HK5dGevB9TsqmvOdldApqRekp4LTLLgQwEAgtylza8M2Fz5txter5zsbEvnWfnFMt3aqoV27/jT0nmsduzoEd3VqZ1mT59q6Tw+n0/D+/fWgg/es3SekzVu7vez2mwXGRmpGzp314OPPaNLm1+tEqVKKyIiUpKyJW2QNEZSDUmv2ZnTbhQAIMjd0q27IiMjAzbfyi+/UL87by/QAjL+mDNjuu66vn3IHPI/G4/breH9e+ul0U9adlj+yYcHas6M1y0Z+3Q6dbs3oPNZoULlKrql230aPmaiXpg22yMpTtL5koZKCuz5myBEAQCCXI06dXVnrz4BnXPpp5/oif89YPq4E58ZpSF97pMnyO+rLyyfz6fxo0dqaN+epl9MOfWlcQE77H/CFe066tKr2wZ0TgQeBQAIAcOfeU5XtW0f0DnfnvaqqYe2X3vxeb3w1AjTxgtGc2ZM14gH+5t2JOCbpZ/r2ceGmjJWQdVp1FgjpswM6JywBwUACAFR0dF67f15Gjh8hOLiA3dh1oiHBphyT/5br72iMY8OMSFR8Js1dYqeGTbY8Dg7tm9T/253BGzFxqjoaN1yXz9NWbhcRVlt1RHsfBYAgEKIjIzUA8MfV9ee92vJ/Hlat3qVDh84oIP79+vo4UM6sG+v6eeg83Jz1afzrVr4/Y8qWdq/Z3B89PZbeuKhAUF9f7/Zpo5/QfFFi2rgcP+OeORkZ6vX7Tef8omPZihZppySS5VWiTJlVapsedVscIFadrxJ5SpWtmQ+BCcKABBiSpYuo8739lTne3v+49ePHT2i5UsW653pU/XDym9Mm+/g/n16pPd9mvbBx4XedsWypRrcu4dliwyduM3L33IRGRlp2Tfs8aNHqtw5FXR79x6F3vbZx4bq143rTc1Ts35DXX9PLzVv11GlygXm1lIEN04BAGGieImSuv6OLnrv86/05vzFqlqjpmljL1u4QO+8Xrg7pn7f+qv6dr3Nkgv+kpKL697+A/XFz5uVlFzc73EWfv+jHhj+uGVrLTw2sJ++/2Z5obZZsWypZkyeaFqG0mXLacLMd/TOih91Y/f72fnjbxQAIAxd0aq1Fny7Rrd0u9u0MUcPeVh/bvutQD+bmnJc997cSakpx02bX5KKJibq0WfH6bttO/Xos+NUpXoNQ+OVKX+OBg4foRVbftfzr72h0mXLmZQ0nzsvT70731rg9Q6OHzuqQb3uMe10Sctr2mnxDz/pultuM/qoXIQhCgAQpuITEjR2yut6/LkXFRFh/J96ZkaGBt3fo0A7pyG97ytwWSioq9p10GdrftG9/QeafiFkVHS0buraTct+3qS7+/Q3dd2FY0cOq2/X2wv0OOeRgx7U/r17TJn3trvv1Wvvz1OJUqVNGQ/hhwIAhLnufQdo5Esvm/INcM23K866IM3MV17WonkfGZ7rhGKJSZr2wcd6/cP5Kl+xkmnjnm6uEc+/pPeXfa1y51Qwbdxf1v5w1rsgVn6xTPNmv23KfL0eGqQxk19TVBSXeeH0KACAA3Tp0UtDRo0xZawxw4fo8MEDp/y9LRt+0dMm3AJ3QtUaNTV3+be6uv21po1ZEI0uvlQfr/heF17S1LQx35g0QV8uWXTK38vOytLwB/qYcui/S49eeuSpZwyPg/BHAQAcoueDD6tLj16Gx0k5fkxPDX7oP7/udrs1qOe9ys0x5wlyzVu10byvv9N5tWqbMl5hlSlXXrMXL9NNXbuZMp7P59Owvr1OeV3Ey8+O1o7t2wzP0aJNWz354kTO96NAKACAgzwxbrwubtbc8Djz33v3P1e3Txk3Vht++tHw2JJ0ZetrNPX9eUpMSjZlPH/FxMbquVen67a7zVkXf//ePRr1yP/+8Ws7tm/Tay+NMzx2tZq1NH7m2wF9bgRCGwUAcJCo6GhNmvWuKVe7P/nwg3/fQ79ty2a9/Oxow2NKUuPLmmnyO+8rJjbWlPGMcrlcembSq6aVgPffnKGvPlv89/8eNeThAl0geCYxsbF6+a3ZthcmhBYKAOAwpcqU1ZhXpho+TLx5/c+aM+N1ud1uPdTjblMeIdy46eWa+fFCxSckGB7LTC6XS6MnvqION91iynhD+/ZSWmqKVn6xTEs//cTweMOfeU51zm9oQjI4CZeIAg50Vdv2uuOe+wq9uM+/jXvyce368w+t/3GN4UwVz62i1977KOh2/idERkbqhWkztWfnTv30w/eGxtq/Z7dGDnpQv6xdazjXFa1aB/xpkQgPHAEAHGro6GcN3+p29PAhTRk31nCW2CJFNPmd91S8ZCnDY1kpJjZWr8750JSVAz94a6a2btpgaIy4+Hg99dIkLvqDXygAgEMVTUzU48+9aHcMSdKo8ZN1fqOL7I5RIGXKldekt+coOibG7igaOHyEzq12nt0xEKIoAICDtbvhJrXqcJ2tGbr3HaCb77zL1gyFddGll2nY08aPfBhRt8EFuqf/QFszILRRAACHGzVhsorZ9Pz36rXraPDIp22Z26i7evdTizZtbZk7IiJCoyZMYqU/GMLfHsDhypY/RwOGPabRQx4O6LxR0dF64fWZKhIXF9B5zeJyufT0y1PUtskFpj/06Gy69uytRhdfGtA5Q9GhA/u0avky/brpF6UePxYpaZ+kPyTNl/SapKO2BrQZRwAA6O7e/Ux9fHBB9Bs8LGTO+59O+YqVNOL5lwI6Z2JSsgYOfzygc4Yan8+nhR+9q+cef1hffbZA+3bvVEZ6miSVk9RU0jOStku6w86cdqMAAFBUdHRA14+vf8GF6jt4aMDms9KNXe5U62s7Bmy+/kMfDfq7Jezk8/k0e/pkLVs47++Fqk4jWdLbknoHJlnwoQAAkCRd0/F6Xd7yKsvniYiI0MiXJioqOtryuQLlyRcmKL5oUcvnqVy1mrpxz/8Zfbd8qdZ+901Bf9wlaYKk0D4U5ScKAIC/DXvmOUVEWPuxcMc994Xd+evyFSup/yPDLZ9n2DPPBc0SycEoLzdXSz5+v7CbRUkyZx3rEEMBAPC3ug0u0PV3dLFs/BKlSuvhJ0dZNr6degx4UDXq1LVs/IubNdc1Ha+3bPxwsHXTeqWnpfqzaWvlXx/gKBQAAP8w6MnRll2ZP2TUGCUXL2HJ2HaLio7W6AmTLVuV75GnQvN2yUDa9ed2fzeNkNTIxCghgQIA4B/KnVNBXXr0Mn3ceg0b6aau3UwfN5g0ufwKtbvhJtPHbXNdJ114SVPTxw03fn77P6GsWTlCBQUAwH/0HTxURRMTTR1zxPMvWn59QTAYMmqMqefpIyIiNPDREaaNF868Xq+RzR23Lk74/2sEUGjFS5ZSj/4PmjZe2043qMnlV5g2XjCrVKWq7rq/r2nj3dC5K4/6hSUoAABO6b4HHlKpMsaPikZFR4fscr/+6jdkuCn36kfHxGjA0MdMSAT8FwUAwCnFFy2qTrcZXyjtytbXBHyVQbslJiXrBhPupmjeqo0qV61mQiLgvygAAE4pMyND89971/A4Xy/9TDu2bzMhUejISEsz7b3b9ecfJiQC/osCAOCUpk98SYcO7Dc8Tl5ursaOsH6RnGAy8dnROnzwgOFx8nJz9fKzjlyjBgFAAQDwHynHj2nahBdNG2/hRx9ozbcrTBsvmO3e8admTJ5o2ngfznpTv23eZNp4wAkUAAD/MenZp5Vy/JipY44aMkg+n8/UMYPR2MeHKSc727TxPB6PXhjJ0/9gPgoAgH/Yv2e33nx1sunj/rxmtea+M8v0cYPJDyu/0YIP3jN93CXz5+nnNatNHxfORgEA8A8vPDXC1G+wJ3tm+CNKTTluydh2c7vdemxgf0uOcvh8Po15dIjp48LZKAAA/rZ5/c/6cNablo1/+OABjXsiPO9rf2PSBP26cb1l46/6erk+XzDfsvHhPBQAAH8bPXSQ0eVUz2rW1Clhdzj70IH9mviM9U85HD3kYeXm5Fg+D5yBAgBAkrT000+08otlls/j9Xr1+IMD5Ha7LZ8rUEY82F9pqSmWz7Pj9+16e9qrls8DZ6AAAJA7L09PDxscsPl+WfuDpjz/bMDms9K8d9/RonkfBWy+8aNH6tjRIwGbD+GLAgBAs6ZO0R+/bQ3onBPGjNKmX34K6JxmO7Bvr5783wMBnTPl+LGAnG5A+KMAAA53cP8+vfjUEwGfNy83VwO732nZHQdW8/l8Gtqnp44fOxrwud98dbI2/PRjwOdFeKEAAA434sH+tt2a99vmTRr3ZGjeFTBr6hR9uWSRLXN73G4N63u/PB6PLfMjPFAAAAf7YvFCLf54rq0Zpk140ZLFc6y0bvUqjXrkf7ZmWL9uralLDsN5KACAQ2WkpWl4/952x5DP59MjvXtYeg+9mQ4fPKA+nW8Nitvxxj35GE8LhN8oAIBDjX18mPbv2W1ojOIlSuqefsYvgsvMyFCv2282/fkDZnPn5an3Hbdo/949hsfqdNsdql67jqExsjIzNeLB/oazwJkoAIADfb30M7312iuGxxn42BMaOvpZ1W1wgeGxdmzfpvtvv0nZWVmGx7KC1+vV4N49tOa7lYbHKlOuvJ58caIefXac4bG+XLKItQHgFwoA4DBHDh3Uw/d1N7xmfY06ddX53p6Kio7WuGlvKDomxnC2VV8v1323Xh90dwb4fD499kBf0x5mNPKll5WUXFxXtr5GV7Vtb3i8pwY/pC0bfjEhGZyEAgA4iNvtVv9ud+jQgf2Gxxrx/HhFRUVJkmrXb6A+g8x5WM2KZUvVt+ttcuflmTKeUT6fTyMe7K93Xn/NlPFu6NxV13S8/u//PXzM84qKjjY0Zk52tgbc1UXpqalG48FBKACAg4we8rC+W/6V4XE63HSLLm951T9+re+goapzfkPDY0vSsoUL1Ou2G5WRlmbKeP7Ky83V0L69TDldIuUf+n/8uRf/8WvVatZSjwEPGh77t82bNPCeOy1/lgPCBwUAcIgZkyeacttYscSk/+zEJCk6JkbPvfa64W+zJ3yxeKFuaHGZdmzfZsp4hXXk0EF16dBGc2a8btqYoye+ouTiJf7z6wOGPqbKVasZHn/ZwgV6avBDhseBM1AAAAeYM2O6Rg4y/i1TkgY/9bTKlCt/yt+r17CRhowaY8o8Uv632uubN9XXSz8zbcyCWL9urTpdcal+WPmNaWN2u7+vWnW47pS/Fxcfr5EvvWzKPDMmTwzZxZUQWBQAIMy9MWmChvXrZfiiP0lq2Phidb635xl/5p5+D/zjHLdRx48d1V0d26lv19t0+OAB08Y9lcyMDL00+knd1LKZ9uzcYdq4dc5vqGFPjz3jz1zZ+hpdd8ttpsz38rNP68mHB3I6AGdEAQDCVHZWlob1u18jBz1oyo4gLj5e46a+oYiIM39suFwuPTtlms6tdp7hOU+28KMPdHXDunpzyiTT7xLweDz6eM5sXd2wjsaPHqm83FzTxk4uXkJT3v1AsUWKnPVnnxg3XqXLljNl3hmTJ+r+22+y5VkFCA0UACAMfbf8K113eRPNnj7VtDGHjH5W59WqXaCfTUourqnvz1PRxETT5pek1JTjGvHQADWtca7GPj7M8Lf0o4cOafJzY9S8bnUN7N7VlAV+ThYZFaWXZ80p8Pn9EqVKa+yrr8vlcpky/+cL5qtdkwu0aN5HphwBQnihAABhIj01VQs+eE9dr22jzu2u1rYtm00bu0WbtrqzZ+GWDa5Rp64mzHxHkZGRpuU44diRw3rl+Wd1Zb0ahh5kdE2ThnpuxHDt3bXTxHT/7/HnXvzP3RJn06JNW3W9737TMuzfu0d9Ot+ibi0v0Sezpuv44UOmjY3QFmV3AACFc/zYUS1d8Il+XrNaB/bt1dHDh3X44AHt3vGnJU+HK1WmrN/fSlte006jJkzWsH73W/IN1Oif18q1Bno//Ii69erj17ZDnx6rVd8s12+bN5mWZ9O6NdrUv4dcLpfKVqyskmXLqXjJ0ipZrrxqNbhAzdt3Uqly55g2H4IfBQAIEV6vV1PGjdXk58cE7P74qOhoTZr1rqHz0rd376HMjAxH3Z52V+9+Gjzyab+3j4uP15TZH+j65k2VlppiYrL8hY3279qh/bv+efrkxWEP6eYefdX70VGKKcD1Cgh9nAIAQoDb7VafzrfouRHDA7o4zmNjX9DFzZobHueefg/of4+PNCFR8Lvt7ns04vmXDI9TrWYtvTRj1lkvujRLXk6OZk96QX07Xq3MdHsXYEJgUACAEDD2saFaMn9eQOe89a7ufh/CPpV+Q4ar35Dhpo0XjG7scqeefvlV0y7iu6ptez0U4OK0/ofvNLJP94DOCXtQAIAgt/3XLZo+aUJA52zRpq1GjZ9s+rj/e3yNhxDZAAAgAElEQVSknho/yZILA+3Wd/BQPf/a2W+TLKw+g4bojnvuM3XMs/nqk4+0+svPAzonAo8CAAS5OTOny+N2B2y+xk0v16S33zPl6X6n0vW++/XG3E9Nv0XQLpFRURo1YbIefmKUad/8T+ZyuTRqwmR1uu0O08c+k3kzzbuFFMGJAgAEuVVfLw/YXBddeplmzPtU8QkJls5zRavWmr14mcpVqGjpPFZLSi6u6R99oi49elk6T0REhJ6fOkNtO91g6TwnW/P1FwGbC/agAABB7oDJi9OcTqsO1+mtBUuUUKxYQOarf8GFWrR6ndrfeHNA5jNb0ytbaNHqdWreqk1A5ov6a1Ghsy3FbJbUY0eVk50VkLlgDwoAEOSKxMVZPsetd3XXK7M/UFx8vOVznSy5eAlNmjVHk2bNUWJSckDn9ldUdLQeGP64Zn36ucpXrBTQuSMjIzV64it6/LkXLb87IDIqStHR1pwGQnCgAABBrmr1GpaNHZ+QoDGTp+rZV6YpKsq+ZUHa33izFny3xtSHCFnhkiuu1CcrV2vg8BEBuz3vVLr3HaCp789TiVKlLZujYtXzFBGGF2vi/1EAgCDX+rpOlox7fqOL9MnKH3Tb3fdYMn5hVapSVVPe/VBzPvtS51/Y2O44/1C1Rk29OucjvbvkC9Wu38DuOJKkq9p10KLV63T5VVdbMn7z9tb8vUPwoAAAQe6mLt1MvViueImSevLFifpo+beqVrOWaeOa5eJmzfXxN6v00huzVP+CC23NUrVGTY186WV9tuYXtbGoiBlRplx5vfXJEo2f8bbOqVTZtHHj4hN0W+8HTBsPwYkCAAS5InFxGjd1hqKiow2Nk5iUrF4PDdKXG35Vt159bD3kfzYul0udbrtDn3z7gz76aqVu6NxVMbGxAZk7MjJSra/tqDfnL9aynzbpzp69Db/3VnK5XOp46+1a9tMmDXpytMqUK294zEHjJqlUWePjILhRAIAQcFmLlpr89nuKL1q0UNu5XC6df2FjjZ74ir7btlNDRo1RUnJxi1Jao9HFl+qFaTO1avsujZs6Q9fefKvpf4b4hAS16nCdRk98RSu2/K7X3purK1q1tuS+fqsUiYtTn0FDtPLXPzR+xtu65IorC73gUlR0tAa/MFntb+9mUUoEk+D9CgDgH1pf21GfrflF458eqYVzPzzlMwGiY2JUrUYt1apXT5e1uEot27Y35RthMCheoqRu7HKnbuxyp9xut35avUrrflit7b9u1pYNG7Tt180Fek5Ckbg4Va9VR9Xr1FHNOvV0fqOL1OTyZooNkwfgREVHq+Ott6vjrbfr+LGjWv7ZEn2z7DNtXL9Bf/y6+ZS39sXEFtHl13TQfUOfULXa9WxIDTtQAIAQUqHyuRo75XWNGj9Zv23ZpKOHDisqOlpFE4spuXgJla9QMagPV5slKipKjS9rpsaXNfvHrx87ekRpKSlKTTmujLQ05eTkKDo6RkUTiykxKVnFEhOVXKKkrVfwB1Jy8RLqdNsd6nTbHTqa51JOnkcH9+1RypHDykxPU25OjoolJatq7bqKSyjc0SWEPgoAEIJiYmNVr2Eju2MEneIlSqp4iZJ2xwhaEZGRKlexsspVNO+CQYQuZ9RgAADwDxQAAAAciAIAAIADUQAAAHAgCgAAAA5EAYC5fHYHAAAUBAUApvJRAAAgJFAAYCqv12t3BABAAVAAYCq3hwIAAKGAAgBTefLcdkcAABQABQCmynN77I4AACgACgBM4/Z45OEUAACEBAoATJOTnWd3BABAAVEAYAqfjwIAAKGEAgBTZGflyOvj8D8AhAoKAAzzeX3KzM6xO0ZARUZG+b3tscOHTUwCFJDFi3TlZGcpKyPd7+0jIiNNTIOCoADAsLSMLPm8zloCMLZIEb+3nTNzuolJgILxWPxP9NPZM+XO8+80YEREhGJiYk1OhLPx/2sMoPxD/7k5zjv3X7JUaR3cv9evbae+NE6HDuxX6w4dlZiUbHIy4L+8klIs+meamZGutd98pQ9fn+z3GEnFS8jlcpmYCgVBAYDfcnPdSs901qH/E8pXqKzNG372a1ufz6e578zS3HdmmZwKCE1ly1ewO4IjcQoAfsnNcystLcOxT/+pUbue3RGAsFGtRh27IzgSRwBQaNnZuUpPz7Y7hq3qNbxIEZGR8npY+RAwqlb9hnZHcCSOAKDAfD6f0tKzlJ6eJcsvKQ5yxRKTdP4Fje2OAYS8sudUVMVzq9odw5EoACiQnJxcHTuWrpzsXLujBI1W7TrZHQEIeVdc3dbuCI5FAcBp+XxSTk6ejh1PV1palrxeFvo5Wf0LGqt6zbp2xwBCVvGSpdTk8ivtjuFYFACcxCe3x6Ps7FylpWXq6NFUpaVlysMT/k6ra49+iojgnxHgj+tvv0tRUdF2x3AsLgI0g88nr9enPI9XXo9XXq9HPp/+enn/+m8QnzP/K5/3r6wouHOrVdd1N3fRx++9ZXcUIKQ0uvhy1W/UxO4YjkYB8IPH41VunlvuPI/cbrc8Xp9jb4eD1PHmLvpz+1b9vPZ7u6MAIaFSlWq69a6edsdwPI5dFsCJJ92dOCx+7FiaMtKzlJOTK4/Hy87f4SIiItTnoUdVq24Du6MAQa/sORXV44Ehioll6V+7UQDOIM/tVnp6Vv658PRM5eTkyeuwNe9RMDGxsfrfY0+rcdMr7I4CBK1qNWqr3yNPqGixRLujQJwC+A+vz6fs7FzlZOXKw1XvKITo6Bj1eehRff7pXH34zhvKzXXmMsnAv0VERqp1hxvU6tobFBHBU/+CBQXgL16fV9lZecrKygnuC/YQ1Fwul9pce6MaNWmq92ZN09pVK/j7BEer2+BC3d6tp0qXP0eZWZl2x8FJHF8AfD6fMjJylJOTw6l8mKZ02fLq+7/HtHf3Dn31+UKtXrlcKceP2h0LCIj4hKJqfGkzXdmqvarVqC1Jys5x9vLhwcjRBSAnJ1cZGdmc14dlzql4rjp376077r5fu3f+oe1bt2j/3l06fuyocrKzlJvLyooIbdHR0YotUkRJScVV9pyKqnpeTVU5rybrY4QARxYAj8er9Iws5eW67Y4Ch3C5XKp0bjVVOrea3VEAQJIDC0BmVrYyM3O5dQ8A4GiOKQBer09paVnKy8uzOwoAALZzRAHIy3MrLS2Tc/0AAPwl7AtAVlaOMjOzOeIPAMBJwroAZGXmKCOTW08AAPi3sCwAPp+UkZGl7GxusQIA4FTCrwD4fEpPy1JOLhf7AQBwOmG3UkN6RjY7fwAAziKsCgCH/QEAKJiwKQBZmTnKymLnDwBAQYRFAcjJyeVqfwAACiHkC4DH41V6Ojt/AAAKI6QLgE9SWlomz1sHAKCQQroAZKRnye322B0DAICQE7IFIDfXzRX/AAD4KWQLQHpGlt0RAAAIWSG5EmBOTq68Hq/dMf7jyOFD+mnNav3262bt2vGHdu/4UxkZGUpPS1VWZobcbrfdER1vy8af1f3mNnbHABB8pv71kqTjktIlZUjaIelXSZskffPXf8PiwrOQLAC5OcGz0t+uHX9qySdz9eXSxfpz+za74wAAjEv+6yVJtSSd/K3hgKRFkt6UtFxS8H0bLaCQLADBYNWK5Zr1+qtat+Z7u6MAAAKnrKS7/3rtkPSi8o8cZNoXyT8UgEL6ae1qTRg7Wr9u2mB3FACAvc6V9JKkYZJGSZosKWRuTaMAFFDKsWOa+PxoLf5kHusOAABOVkbSBEndJd0vabW9cQomZO8CCKSf1q7WXTd30KL5c9n5AwBOp5GklZKeUAjsX4M+oN3mvPWGBtzbVYcOHrA7CgAg+EVJGiFprqQEm7OcEQXgNHw+n16fPF4Txo6SxxMyp3QAAMGho6QvJZW2O8jpUABOY8LYUZr+ygS7YwAAQlcTSUv1/7cUBhUKwCnMeHWS3ps1w+4YAIDQ10D56wYE3ekACsC/fPnZIk2b9KLdMQAA4eNSSVPsDvFvFICT7Nm1U2NGDOVKfwCA2bpK6mF3iJNRAP7i9Xo1cuhDSk9PszsKACA8TZB0nt0hTqAA/OWTj97Thp/X2R0DABC+4iRNsjvECRQASWmpKXp1/HN2xwAAhL9rJHWyO4TEUsCSpA/eeVMpx4+bNl5UTJzK1G6m8vWvVrEyVRWXVFaxxUopIpK3GwCsdDDbo9WHc4w9rzfzqHyZR+VL2SPfn9/Jt325fGmmLgY3QtJ82fxYYcfvkbIyM/X+2zNMGSsqJk7VW3RXzavuVVRs0N3xAQBhr0yRSFUtGq3f0w08Nj6+hFzxJeQqVV0670rp6kfk/fVzeVe8LN/x3WbEbCSpvaRPzRjMX44vAJ8vnG/Kt/+SVRvpkrvGq0hSGRNSAQD8VTspWvuy3MrymPUF26WIWm0UUb2lPCsmybvmTTMG7SubC4DjrwFY9Mlcw2NUbtxRV/SZyc4fAIJApEuqlRRtwcDRirxyoCLbjZQiDH9/bi2pnAmp/OboArB/7x6tX7fW0BhlazfTRXc8o4ioGJNSAQCMqhAXpbhIlyVjR9S9VpEtHzY6TJSkW02I4zdHF4A1q1YaWvQnoVRlXdztBbkiIk1MBQAwKsIlVU6w7ix3xAW3KuL8G4wO08aMLP6yswD4fYVGVLQ5h3bWrl5laPv61z6s6LhEU7IAAMxVMd7ay9wimw+QYosZGeIK2Xgtnp0FYL+/G5Ysbc659o2/+L/wT4lzG6pCg9am5AAAmC8+yqWiURbu5ookKfLiu42MkCipnjlhCs/OArDSn40Sk5JV9bwahifPy83Vvj17/N7+3EtuklzWnF8CAJijZKy1u7mI+p0kl6E5apqVpbDsLAALJB0p7EZtOnRUZKTxc+67d+6Q1+vxa1uXK0Ll67U0nAEAYK3EGIt3c/El5Cp/vpERapsVpbDsLACpkh4vzAZJxYvr7l79TJn86JHDfm+bUKqSiiSWNiUHAMA6CZHW7+ZcFRsZ2bysWTkKy+67ACZLmlaQHywSF6+nX5ys4iVKmjJxZmaG39sWSeR+fwAIBTEBuEnLVdTQPsG2K8ntLgCS1FPSYEmn3SOfV6OWprw5RxdcdLFpk2ZRAAAg7EUF4lqthFJGtjZ0G4ERwbAUsE/Sc5LektRVUouk5OQGlc6tWqlSlaq6omVrXdGylSIizO0qHrd/5/8lKTLKghWmAACmC8il2pGGFoKzbSGZYCgAJ+yX9Lyk579Zvb5zWk7u23YHAgAgXAXDKQAAABBgwXQEAH7ITjmovRuWKe3Adrmz0xWbWFqlqjVWmZpNeT4BAOC0KAAhyp2TqQ2fPK8/V70nr8f9j9/bumyq4pLL6/yOg1SxUXubEgIAghkFIATlpB/RilfuUcreX0/7M1nH92n1mw8pdd9W1W0/MIDpAAChgGsAQozP69GqNwacced/si2fT9GO1R9ZnAoAEGooACFm55r5OvL72kJts37+WOVlp1mUCAAQiigAIeb3lbMLvU1uxnHtWbfIgjQAgFBFAQghednpOrZrvV/bHvxtlclpAAChjAIQQrJTD0o+n1/bZh3fZ3IaAEAoowCEkMioWP+3jS5iYhIAQKijAISQIkllFBnj3448oVRlk9MAAEIZBSCERERGq2ytK/zatny9q0xOAwAIZRSAEFOrVU+pkI+3TDqntsrW8a84AADCEwUgxBSvfL5qXtWjwD8fFROnxl3GyOXi/2oAwP9jrxCC6nV4UNWvvPusPxeTkKym972qpHNqWx8KABBSeBZACHK5ItTg+iEqV6e5Ni+ZqCN//vSP2wOjYhNU6aJrVadNXxVJKmNjUgBAsKIAhLAytS5TmVqXKTvloFIPbJc7J11FEssouUIdHgUMADgjCkAYKJJUhm/6AIBCCcZrAGJWrfym5PFjR+3OAQBA2AqWIwARkjpLuk/S5T27d46UpKTkZDVr0Upd7+2lylWq2RoQAIBwEgxHAMpI+krSW5KaS4o88Rspx4/r03kfqOv1bfXOjKk2xQMAIPzYfQQgUdIXkuqd6Yc8Ho8mjRsjd16eut3XJzDJAAAIY3YfAXhBZ9n5n2zqyy9q84ZfLIwDAIAz2FkAqkq6uzAbeL1evT55vDVpAABwEDsLwPU66Xx/Qf3w3Qqlp6dZEAcAAOewswCc789GbrdbO//43ewsAAA4ip0FoKS/G7JGAAAAxthZAAr3TNuT+LxeM3MAAOA4dt8FAAAAbEABAADAgSgAAAA4EAUAAAAHsnsp4JCUcXSP9vy02O4YAICzyPH65D2ea+kcvgObLR3fKhQAPxze/oMOb//B7hgAAPiNUwAAADgQBQAAAAeiAAAA4EAUAAAAHIgCAACAA1EAAABwIAoAAAAORAEAAMCBKAAAADgQBQAAAAeiAAAA4EAUAAAAHIgCAACAA/E0QD/El6ig4pXPtzsGgDCScWinju/Z5Ne2RUtVVlLFuiYnCg8er3Qw22PpHL6MQ/Lt+cnSOaxAAfBD6fOa6KLOY+yOASCMbP/mbR3/yL8CULbOFWp442MmJwoPmW6flu3PsnQO7/av5dkz0NI5rMApAAAAHIgCAACAA1EAAABwIAoAAAAORAEAAMCBKAAAADgQBQAAAAeiAAAA4EAUAAAAHIgCAACAA1EAAABwIAoAAAAORAEAAMCBKAAAADgQBQAAAAeiAAAA4EAUAAAAHIgCAACAA1EAAABwIAoAAAAORAEAAMCBKAAAADgQBQAAAAeiAAAA4EAUAAAAHIgCAACAA1EAAABwIAoAAAAORAEAAMCBKAAAADgQBQAAAAeiAAAA4EAUAAAAHIgCAACAA1EAAABwIAoAAAAORAEAAMCBKAAAADgQBQAAAAeiAAAA4EAUAAAAHIgCAACAA1EAAABwIAoAAAAORAEAAMCBKAAAADgQBQAAAAeiAAAA4EAUAAAAHIgCAACAA1EAAAAwwBUTb2TzVLNyFBYFAAAAI5LOMbL1nyalKDQKAAAABrgSz5GrRFV/N19kZpbCoAAAAGBQROOu/mz2vaRvTY5SYBQAAAAMiqjfSa7KTQqzSYakXpJ81iQ6OwoAAABGuSIUdd1YuSpcUJCfTpV0s6SfrQ11ZhQAAADMUCRJUbe8qsgr+ktFEk/1E15JcyU1lrQ4oNlOIcruAAAAhI3IaEVc3F0RF3WVb89P8h39Q3G7V72d/utXCyR9JWm/zQn/xhEAAADMFhktV+UmirjgVlXsMmGhpHcVRDt/iQIAAIAjUQAAAHAgCgAAAA5EAQAAwIEoAAAAOBAFAAAAB6IAAADgQBQAAAAciAIAAIADUQAAAHAgCgAAAA5EAQAAwIEoAAAAOBAFAAAAB6IAAADgQBQAAAAciAIAAIADUQAAAHCgKLsDAAAQdtw58u1cLd+xXdq1e+X1kqIlfSlpp83J/kYBAADALO5ceVZPl3ftLCk3U5KUId2i/JckLZI0SNJGmxL+jQIAAIAZso7LPXeAfPs2nOmn2klqLukOSZ8EJNdpcA0AAABGeT1yz//f2Xb+JyRImiPpImtDnRkFAAAAg7y/fCjf7nWF2SRO0hRJLmsSnR0FAAAAg7w/zvZns8aSmpkcpcAoAAAAGOBL2SPfsR3+bt7WzCyFQQEAAMCI1L1Gtq5iUopCowAAAGCALzfLyObFzMpRWBQAAAAciAIAAIADUQAAAHAgCgAAAA5EAQAAwIEoAAAAOBAFAAAAB6IAAADgQBQAAAAciAIAAIADUQAAAHAgCgAAAA5EAQAAwIEoAAAAOBAFAAAAB6IAAADgQBQAAAAciAIAAIADUQAAAHAgCgAAAA5EAQAAwIEoAAAAOBAFAAAAB6IAAADgQBQAAAAciAIAAIADUQAAAHAgCgAAAA5EAQAAwIEoAAAAOBAFAAAAB6IAAADgQBQAAAAciAIAAIADUQAAAHAgCgAAAA5EAQAAwIEoAAAAOBAFAAAAB6IAAADgQBQAAAAciAIAAIADUQAAAHAgCgAAAA5EAQAAwIEoAAAAOBAFAAAAB6IAAADgQBQAAAAciAIAAIADUQAAAHAgCgAAAA7k3ALgcvm9qc/nMzEIAMA6gfi8Ds19gmMLQJEiRfzeNifjmIlJAABW8QRi35x5NACTmM+xBSA+IcHvbbNTD5mYBABglbxAFID0gwGYxHyOLQDFiiX6vW3G4R3yunNNTAMAsEJmntfyOXxH/rB8Dis4tgBUPLeK39u6czJ16LdV5oUBAFgiw+pzAJ5cef9Yae0cFnFsAUhMSlZS8eJ+b7/7p8UmpgEAWOFojsfS8X07vpdyMyydwyqOLQCSVKNmHb+33bV2vtIP7zQxDQDATB6fdCzHyiMAPnm+nWLh+NZydAG48OJL/d7W63Fr44LnTUwDADDT/myPPBbeoufdvEi+A5stG99qDi8ATQ1tv+fnz7T9m7dNSgMAMNOujDzLxvYd+V2epc9YNn4gOLoA1GtwgcqULWdojF/mPa39m5ablAgAYIaUPK8O5Vh0B0DGYXnmPRiy5/5PcHQBiIiIUJsOnQyN4fN69N3rfbR12VSTUgEAjNqSkmfJAn2+g1vkfqebfMd3mT94gDm6AEhShxtuVkSEsbfB5/Vow4JxWjW9n9IOhub9oAAQLvZnu3Uw2+Sr/3Mz5Fk5We7Zd8uXut/csW0SZXcAu1WuUk1XtrpGX362yPBYe9cv1b6NX6rShdeqQsNrVKbWZYqM9n/JYQBA4eR4pPXHzDr375Nv/0Z5t30l7y9zpazwWgbe8QVAkrr16KOvPl9sykN+fF6Pdq75WDvXfKzI6CJKKFlRRRLLKDre/5UHAYS/jEP+31Z8YPM3+n7mQBPThK4jOR7lGvzy73NnS+mH5EvbJ2WlmBMsCFEAJNWsU1ftOt6ohR9/aOq4nrxspe7fptT920wdFwBOln54J+uSoNAcfw3ACf0eHmZoZUAAAEIJBeAvScnJGjjkcbtjAAAQEBSAk7Rp31Edb77d7hgAAFiOAvAvA4c8pvoNG9kdAwAAS1EA/iU2tojGTXlD1WvWtjsKAACWoQCcQtGixfT8K9NV5bzqdkcBAMASFIDTKF2mrKa8+Z4aXNjY7igAAJiOAnAGxRKTNP61N3VLl7vsjgIAgKkoAGcRExurgUMe15NjxyspOdnuOAAAmIICUECt2l2rOZ9+oVu63GX44UEAANiNPVkhFEtM0sAhj2vGBwvUqt21ioiItDsSAMBGdRtcoBtv72p3DL9QAPxwXo1aenLseL27YKm69+qn8hUq2R0JABAgRYsl6pprr9crb76nqW9/qEsvb253JL/wMCADKlSqrB79HtS9fQdq6+aNWvv9d1q7+jtt37pFhw4esDseAMAExRKTVKN2HdWoVVdNm7dQo8aXKCoq9Hefof8nCAIul0u16tZXrbr11bn7fZKkzIwM7d2zS6nHjyszI125ebk2pwQAFERkZJSKFi2moomJKlmylEqVKWt3JEtQACwSn5DAaoIAgKDFNQAAADgQBQAAAAeiAAAA4EB2FgC/r4rLyMwwMwcAAH5LT08zsnmOWTkKy84C4Pc7dphb7AAAQeLwwYNGNk81K0dhhWQB2L93r5k5AADw2/59e4xsbujwgRF2FoAd/m64asVXJsYAAMB/q1YsN7L5nybFKDQ7C8Cv/m64Z9dO/b5tq5lZAAAotG1bt2jv7l1GhrBtZ2ZnAdhsZOPZM6aZlQMAAL+8O9PwvmiTGTn8YWcB2C7J7xMniz+Zq9+22Pa+AQAcbtvWLVqy4GMjQ+ySQ08BSNKX/m7o9Xo15olhysnJNjMPAABnlZ2dpacfHSyv12tkmGVm5fGH3QXgUyMbb9m4XqMfHSyfz2dWHgAAzsjn82n0o4/o180bjQ5laB9oVKSdk0vaJqmfpCL+DvDHtt/0x/bf1LR5C0VHR5uXDACAf8nNydHoRwdr6aJPjA6VIqmXJLfxVP6xuwC4JVWXdKGRQf7cvk2rVixXnfoNVap0GXOSAQBwkl83bdAjA3rph+9WmDHcm5LmmjGQv1x2Tv6XupLWy4TTEREREWrV7jrd3u0e1axTTy5XMPzxAAChyufz6ddNG/Tum69r6aIFZp1y9kqqJ2mLGYP5K1j2kO9LutnMAcuUK69LLm+usuXPUZmy5RQXH2/m8ACAMJWVmamDB/Zr/949Wr3yax08sN/sKd6TdJvZgxZWsBSAupJ+ksRJfABAOMuV1FA2f/uX7L8G4IRDkopKutzuIAAAWOhZ5R8BsF2wHAGQpARJP0s6z+4gAABY4DdJF0jKtDuIZP86ACfLkHSTJFb2AQCEmxxJtytIdv5S8JwCOOGApKOSOtgdBAAAE/WRzQv//FuwFQBJWqP8hYGa2R0EAAATjJL0vN0h/i0YC4AkfSGpnKTGdgcBAMCAVyQNsjvEqQRrAZD+/1BJCztDAADgp2clPSQpKB9YE8wFQJK+krRfUmtJUfZGAQCgQLIl9ZY01u4gZxJMtwGeyYWS5ij/uQEAAASrrcpf5e8nu4OcTbAfAThhn6Rpyn94UFNxNAAAEFzyJE1S/s5/p81ZCiRUCoCUv/P/SvnPDSip/OWDg2kdAwCA83gkvSvpVklvK3+p35AQKqcATqWGpIHKX1ihhM1ZAADOckT5O/6XJG2zOYtfQrkAnBAjqb3yFw9qKZYSBgBYY7vyb1P/VNIihdC3/VMJhwLwbxUk1ZFUS1IlScWV/6ChQD9pMEH5xcQfGZIWmpgFAOzUXvmfif5YqPzPxEDKk5Su/JVpdyn/wr7NkvYEOAdCVBXl3/vpz+uPwMcFAMv8If8/D6sEPq4zcBEdAAAORAEAAMCBKAAAADgQBQAAAAeiAAAA4EAUAAAAHIgCAACAA1EAAABwIAoAAAAORAEAAMCBKAAAADgQBQAAAAeiAAAA4EAUAAAAHIgCAACAA1EAAAAAziBZ0hBJqyQdkeSz+eWRtFfSp5LulBRp3R8dAP4WJambpIXK/wzyyP7PwyOSvsfa0XwAAAHKSURBVJP0iKQk6/7ocKJOCo6d/plev0iqadUbAACSaklaL/s/7870OizpOqveADhLZwVHwy1oC65lzdsAwOFqSzoq+z/nCvLySLrdmrcBTlFDUpbs/8tcmNcG5R+iAwCzREvaJPs/3wrzypRUzYo3A84wS/b/Jfbn1d2KNwOAY90r+z/X/Hm9acWbgfAXJyld9v8F9uf1mQXvBwDnWib7P9f8eaVJKmLB+xEWuA3w9GpLSrA7hJ8a2x0AQFi5yO4Afiqq/M9ynAIF4PRK2B3AgGRxWyAAc0RKSrQ7hAEl7Q4QrCgAp3fE7gAGHFP+VbAAYJRHUordIQw4ZHeAYEUBOL3Nyj9/FIp+sDsAgLCyxu4AfkqXtNXuEMGKAnB6OZLm2R3CT+/aHQBAWJltdwA/fSgp2+4QCE3nKf9eUruvZC3M6xexDgAAc0Upf40Ruz/fCvPKkFTVijcDznG7QmclwMNiOWAA1qil4F8S/cTLI+lWa94GOM11yr+QxO6/1Gd6/aT8lQsBwCo1Jf0s+z/vzvQ6KKmDVW8AnClJ0mBJ3yr/m7bdf8lPPA3wE0ldxG1/AAIjUlJXSQsUPE8DPCxppaRBCu1bFgPq/wBbDart4QCdaAAAAABJRU5ErkJggg==" vertex="1" parent="iXIntG2NBJSnMrhjwnnG-14">
          <mxGeometry x="36" y="140" width="78" height="78" as="geometry" />
        </mxCell>
        <mxCell id="iXIntG2NBJSnMrhjwnnG-10" style="edgeStyle=orthogonalEdgeStyle;rounded=0;orthogonalLoop=1;jettySize=auto;html=1;" edge="1" parent="iXIntG2NBJSnMrhjwnnG-14" source="iXIntG2NBJSnMrhjwnnG-6" target="iXIntG2NBJSnMrhjwnnG-2">
          <mxGeometry relative="1" as="geometry">
            <Array as="points">
              <mxPoint x="186" y="409" />
              <mxPoint x="186" y="229" />
            </Array>
          </mxGeometry>
        </mxCell>
        <mxCell id="iXIntG2NBJSnMrhjwnnG-6" value="Sequencer 4" style="shape=image;verticalLabelPosition=bottom;verticalAlign=top;imageAspect=0;aspect=fixed;image=data:image/png,iVBORw0KGgoAAAANSUhEUgAAAgAAAAIACAYAAAD0eNT6AAAACXBIWXMAAA7DAAAOwwHHb6hkAAAAGXRFWHRTb2Z0d2FyZQB3d3cuaW5rc2NhcGUub3Jnm+48GgAAIABJREFUeJzt3XmcTfXjx/H3ndXMMDN2soTsRIpKSRSyFO0LUkpkTX0jS6VESakQKRKlpI0kS1EpSiKVNVHZ92X27S6/Pyb9VJaZe8655957Xs/H4z56fJnz+bzdL/e871k+xyUAklROUgtJjSTV/OtVQlKCpGL2xQIcLeOv1zFJv0vaLGm9pK8k/WlbqjDhsjsAYKNqku6UdIukejZnAVA4v0uaK2mm8ksBCokCACdqKWmYpKvFvwEgHKyR9IykeZK8NmcJGXz4wUmaSHpJ0mV2BwFgiY2S/idpid1BQgEFAE6QKGmMpF6SImzOAsB6H0gaIGmf3UGCGQUA4a6RpPckVbc7CICAOiSpm6TFdgcJVpF2BwAs1E3Sx5LK2B0EQMAlSOosyS3pG5uzBCUKAMLVA5JekRRtdxAAtnEp/2Lf0so/EuCzN05woQAgHA2V9Jw4xQUg38WSKkhaYHeQYEIBQLjpJmmi2PkD+KcLJUVJ+sLuIMGCAoBw0lzSh+LvNYBTay5pu6Rf7A4SDPiWhHBRWtI65R/mA4DTyVD+miCb7Q5iN+6JRrh4Vez8AZxdgqRZ4kghbwDCQltJo+wOASBklFf+OgGr7Q5iJ04BINTFKP9QXjW7gwAIKSnKXyDssN1B7BJldwDAoDtl4s4/JjZW9RtepEZNLlOlKtWUlFxCScnF5XLRlYHCyMzKVHZOtqEx0tNSlZZyXPv37tamn9dq8/qflJWZYVJCJUkaKOlRswYMNXyqIZRFKv/bfw2jA0VHx6hV+07qcOMdSkgoajwZ4HA+SalpKfJ4PKaNmZebq2+WLdKyhR8rOyvTjCFTJJ37138dhwKAUNZO0kKjg1Q6t5r6Dx6h0mXLmxAJwAlut1up6ammj5uelqq3Xh2vbVs2mjFcX0mTzRgo1HARIELZU5LqGxmg4UWX6KHho5WYXNykSABOiIiIkMfrMfUogJR/qu6iS5spLSVFu3f8YXS4UpKmmRAr5FAAEKoSJL0uA2v9V6teSw8OH6XY2CLmpQLwD5ERkcrJzTF9XJcrQnUbXKi9u3fq4P69RoaqqPzbAo+Zkyx0sA4AQlUzSXH+blwsMUn9Bz+hmJhYEyMB+LfIyEhFRVpzvbnL5VLnHn1Vptw5RodqZUaeUEMBQKhqaWTjTrd0VXKJkmZlAXAGMTExlo0dG1tEHW+90+gwhj5PQhUFAKHqEn83LF2mnK5s3cHMLADOICbaugIgSXUaNFK1mnWMDNHUrCyhhAKAUFXb3w2bNr9aUVEsgQEESkREhCIirN3dNLn8SiObV5IUb1KUkEEBQChKlFTO340bNXFk2QdsFWnRdQAn1G1woZGS4ZIJ64mEGgoAQlEZfzeMiYnVudUc9+8csF2kxUcAihZLVGljFwOWNStLqKAAIBQV83fDpOIlWNYXsEEg/t0lGVvPw+/PlVBFAUAo8nutXoMfEAD8FIgCUCwp2dDmZuUIFRQAhCK/F7CKivJ73SAAQc7gv2/HXRlMAQAAwIEoAAAAOBAFAAAAB3LcOQ/ALnt379Tvv23Rvj27lJZ6XNlZWXZHAkwRW6SIihZLVNnyFVW1ek1VrnIed9uEAAoAYKED+/Zo+dKFWrXiSx07ctjuOEBAFC2WpCaXNdeVV7fTudWq2x0Hp0EBACxw5NABvT/rda3+drl8Pp/dcYCASk9L0ZdLPtGXSz7R+Y2a6LY771PJsn4v3gmLUAAAky1bPF/vvzVNOTnZdkcBbLd+3Q/a9Ms6XdPxJrVs18nyZwKg4CgAgEnceXma9vJz+n7lV3ZHAYKKx+PWwrlztHXzBt3d5yHFxSfYHQniLgDAFHl5uXrxmcfY+QNnsG3LRk0a+6Qy0tPsjgJRAADDfD6fprz4tDb98qPdUYCgt2/3Tk2b8KzycnPtjuJ4FADAoAUfztaPq7+1OwYQMnb+vk1zZ8+wO4bjUQAAA3b+uV3z3n/L7hhAyPn+my+08ee1dsdwNAoAYMCsaS/L6/HYHQMISfNmz5TH7bY7hmOF410AsZJq/vWqIinhr5eh50QiqJxjdwBJ2vTLj/pty0a7YwAh6+jhg/rh2+W6tPnVdkdxpHAoAC5JTSW1l9RS0sUKjz8XgtznC+fZHQEIed8sXUQBsEko7yhLS7pfUjdJrDWJgEpPS9H6dWvsjgGEvP17d2vPzj9VoXIVu6M4TiheA1BO0ouS/pQ0Uuz8YYONP/8oj4dzl4AZtmz4ye4IjhRKBSBCUk9JWyQNlBRvbxw4Gef+AfP8/tsWuyM4UqicAqgm6V1JTewOAkjS3t07DG1/7c23qkWbdoqLp8fCel6flGrRASu3O0/rVn6t+W+97vcdMQf27jY5FQoiFArAjZKmS0qyOwhwwpHDh/zetseABzV8zPMmpgHO7lCOS16Lxr7m5s46r259jRs8wK/tU44dlc/nk8vlMjkZziTYTwH0k/S+2PkjyORk+/+kv9u79zAxCVAwkRbvWzveea8io/z7Tun1elka2AbBXACelDRRwZ0RDmXkAsASpUubmAQoIIsLQGyROMUXLeb39lxUG3jBunPtJ+lxu0MAABCugrEA3CZpgt0hAAAIZ8FWAGpIek2WH6wCAMDZgqkAxEr6QFKi3UEAAAh3wVQABklqYHcIAACcIFgKQFVJw+wOAQCAUwTLQkAjJMWZOWBC0aK6uOllqlCpskqWLq2Spbj1KhB8Pq8yMnIsnWPXn39o9sxpls4BAOEuGApAVUmdzRrssuZX6u6evXVpsysUGxtr1rAoIK/Pq6NH0iydY90P31MAAMCgYCgAAyVFGx2kcpUqGjHmOTW7sqUJkQAACG92F4AYmfDt/6KLL9XL02eqRMmSJkQCACD82V0A2ksqZWSAZle21KtvvaOoaMMHEQAAcAy77wK4zsjGVc+rrhdfm8bOHwCAQrK7AFzl74Yul0vPvDRRiYk8KBAAgMKyswBUllTF343bdLhOjRo3MS8NAAAOYmcBqGdk4579BpiVAwAAx7HzIsBa/m5Yrvw5qtegoZlZgJDidrv1x29bdfjgQcXFxym+aFEVK5aosudUUESE3Wf27JOemqr09DRlpKUpIz1NaSmpSihWVAlFi6losWJKKFZMiUnJdse01aF9e5R54j1KS1WJMmVVsep5ii1i6lpsCAF2FoAq/m7YolVruVw8MBDOs3/vHr08ZrQWfPCeUo4f+8/vx8XHq3qtOqpVv76aNm+pFte0VYkwXAXT6/Vq/Y9r9PPaNdq6cYO2/bpFWzdu0LGjR866bdHERNWoXVc169ZT9dp11ODCi3ThJU3D8mLi9NRUfbPsc634Yqk2rF+v7Zs3KiMt9T8/FxefoObtO+mewY/p3Bp+fzdDiLGzAPj91L9KVaqamQMICV99tlj9u92h9NT/foCfkJWZqfXr1mr9urX64K2ZioiIUKOLL9Vtd9+rjrfertgiRQKY2FypKce1/LMl+nLJQi3/bImOHj7k1zjpqalat3qV1q1e9fevFUtMUrOrrlaLa9qrZdt2Kl22nFmxA87tduvzBfP1zuuvatXXy+XOyzvrNlmZGVrywTv6Yv4HGjxusq7rek8AksJudhaAov5uWLpMGTNzAEFv9Yqv1fPWG5SXm1uo7bxer9au+lZrV32rMY8OUZf7eqnnA/9T0cTQeer2xp/X6a1XJ+vjObOVnZVlyRxpqSlaNO8jLZr3kSKjonRNx+t1Z8/eurR5C0vms0JuTo7efHWy3pg0QXt37fRrjLzcXD094D7FxsWpzU13mJzQegaPDHvMyhEq7DxZ6PdXkWLc+gcHycnO1oP33lXonf+/HT18SBOfGaWWDWrr3TemyeMJ3s87n8+nxR/P1U0tm+napo01Z8Z0y3b+/+Zxu7Xwow90R9urdU3jhpozY7rcbndA5vbXonkfqfWF9TV6yMN+7/xP8Pl8GjPwfh09eMCkdIFjcN8Qen9gg5x7tRAQIubOnmX4Q/1khw8e0NC+vXRTy2ba8ft208Y1y4/ff6dbrm6u3nfcrB+//87WLFs3bdCQPvep/SWN9OWSRbZmOZUjhw6q+/Ud1KfzLdr5x++mjZuZnqY5UyaYNl6gVKjs9+lhr6R1JkYJCRQAIMh9Nn+eJeP+vGa1OjS9SHPfmWXJ+IW1d9dO9e16m26+6gqtXfWt3XH+4bfNm3TPDdeq67VttHXzRrvjSJK+Wfq52l3cSF99ttiS8Zd/as3fOyvVqtdA8Ql+nV1eLmmfyXGCHgUACHK//7bVsrEz0tL0UI+79OTDA+X1ei2b52w+njNbbZtcoIUffSCfz2dbjrNZ+cUydbz8Yk1/ebytOae+NE53dWqnQwf2WzbHrt9/kzeITxOdSkxsrFpfe2NhN/NKGm5BnKBHAQCCXFZmpuVzzJg8UX273Bqw8+wnpKWm6MF77tTA7l2VlpoS0Ln9lZOdracGP6RuHdvqwL69AZ3b6/Xqif89oKeHDba8gHjcbuXm5lg6hxWuaNVO5194cWE2GSLJ3nNNNqEAAEGubPlzAjLP4o/n6q5O7ZWZkRGQ+bZs+EXtL7lQ8959JyDzmW3FsqVq1+QCrfzyi4DM5/F49MDdXTTzlZcDMl+x5OIqEhcfkLnM5HK5dGevB9TsqmvOdldApqRekp4LTLLgQwEAgtylza8M2Fz5txter5zsbEvnWfnFMt3aqoV27/jT0nmsduzoEd3VqZ1mT59q6Tw+n0/D+/fWgg/es3SekzVu7vez2mwXGRmpGzp314OPPaNLm1+tEqVKKyIiUpKyJW2QNEZSDUmv2ZnTbhQAIMjd0q27IiMjAzbfyi+/UL87by/QAjL+mDNjuu66vn3IHPI/G4/breH9e+ul0U9adlj+yYcHas6M1y0Z+3Q6dbs3oPNZoULlKrql230aPmaiXpg22yMpTtL5koZKCuz5myBEAQCCXI06dXVnrz4BnXPpp5/oif89YPq4E58ZpSF97pMnyO+rLyyfz6fxo0dqaN+epl9MOfWlcQE77H/CFe066tKr2wZ0TgQeBQAIAcOfeU5XtW0f0DnfnvaqqYe2X3vxeb3w1AjTxgtGc2ZM14gH+5t2JOCbpZ/r2ceGmjJWQdVp1FgjpswM6JywBwUACAFR0dF67f15Gjh8hOLiA3dh1oiHBphyT/5br72iMY8OMSFR8Js1dYqeGTbY8Dg7tm9T/253BGzFxqjoaN1yXz9NWbhcRVlt1RHsfBYAgEKIjIzUA8MfV9ee92vJ/Hlat3qVDh84oIP79+vo4UM6sG+v6eeg83Jz1afzrVr4/Y8qWdq/Z3B89PZbeuKhAUF9f7/Zpo5/QfFFi2rgcP+OeORkZ6vX7Tef8omPZihZppySS5VWiTJlVapsedVscIFadrxJ5SpWtmQ+BCcKABBiSpYuo8739lTne3v+49ePHT2i5UsW653pU/XDym9Mm+/g/n16pPd9mvbBx4XedsWypRrcu4dliwyduM3L33IRGRlp2Tfs8aNHqtw5FXR79x6F3vbZx4bq143rTc1Ts35DXX9PLzVv11GlygXm1lIEN04BAGGieImSuv6OLnrv86/05vzFqlqjpmljL1u4QO+8Xrg7pn7f+qv6dr3Nkgv+kpKL697+A/XFz5uVlFzc73EWfv+jHhj+uGVrLTw2sJ++/2Z5obZZsWypZkyeaFqG0mXLacLMd/TOih91Y/f72fnjbxQAIAxd0aq1Fny7Rrd0u9u0MUcPeVh/bvutQD+bmnJc997cSakpx02bX5KKJibq0WfH6bttO/Xos+NUpXoNQ+OVKX+OBg4foRVbftfzr72h0mXLmZQ0nzsvT70731rg9Q6OHzuqQb3uMe10Sctr2mnxDz/pultuM/qoXIQhCgAQpuITEjR2yut6/LkXFRFh/J96ZkaGBt3fo0A7pyG97ytwWSioq9p10GdrftG9/QeafiFkVHS0buraTct+3qS7+/Q3dd2FY0cOq2/X2wv0OOeRgx7U/r17TJn3trvv1Wvvz1OJUqVNGQ/hhwIAhLnufQdo5Esvm/INcM23K866IM3MV17WonkfGZ7rhGKJSZr2wcd6/cP5Kl+xkmnjnm6uEc+/pPeXfa1y51Qwbdxf1v5w1rsgVn6xTPNmv23KfL0eGqQxk19TVBSXeeH0KACAA3Tp0UtDRo0xZawxw4fo8MEDp/y9LRt+0dMm3AJ3QtUaNTV3+be6uv21po1ZEI0uvlQfr/heF17S1LQx35g0QV8uWXTK38vOytLwB/qYcui/S49eeuSpZwyPg/BHAQAcoueDD6tLj16Gx0k5fkxPDX7oP7/udrs1qOe9ys0x5wlyzVu10byvv9N5tWqbMl5hlSlXXrMXL9NNXbuZMp7P59Owvr1OeV3Ey8+O1o7t2wzP0aJNWz354kTO96NAKACAgzwxbrwubtbc8Djz33v3P1e3Txk3Vht++tHw2JJ0ZetrNPX9eUpMSjZlPH/FxMbquVen67a7zVkXf//ePRr1yP/+8Ws7tm/Tay+NMzx2tZq1NH7m2wF9bgRCGwUAcJCo6GhNmvWuKVe7P/nwg3/fQ79ty2a9/Oxow2NKUuPLmmnyO+8rJjbWlPGMcrlcembSq6aVgPffnKGvPlv89/8eNeThAl0geCYxsbF6+a3ZthcmhBYKAOAwpcqU1ZhXpho+TLx5/c+aM+N1ud1uPdTjblMeIdy46eWa+fFCxSckGB7LTC6XS6MnvqION91iynhD+/ZSWmqKVn6xTEs//cTweMOfeU51zm9oQjI4CZeIAg50Vdv2uuOe+wq9uM+/jXvyce368w+t/3GN4UwVz62i1977KOh2/idERkbqhWkztWfnTv30w/eGxtq/Z7dGDnpQv6xdazjXFa1aB/xpkQgPHAEAHGro6GcN3+p29PAhTRk31nCW2CJFNPmd91S8ZCnDY1kpJjZWr8750JSVAz94a6a2btpgaIy4+Hg99dIkLvqDXygAgEMVTUzU48+9aHcMSdKo8ZN1fqOL7I5RIGXKldekt+coOibG7igaOHyEzq12nt0xEKIoAICDtbvhJrXqcJ2tGbr3HaCb77zL1gyFddGll2nY08aPfBhRt8EFuqf/QFszILRRAACHGzVhsorZ9Pz36rXraPDIp22Z26i7evdTizZtbZk7IiJCoyZMYqU/GMLfHsDhypY/RwOGPabRQx4O6LxR0dF64fWZKhIXF9B5zeJyufT0y1PUtskFpj/06Gy69uytRhdfGtA5Q9GhA/u0avky/brpF6UePxYpaZ+kPyTNl/SapKO2BrQZRwAA6O7e/Ux9fHBB9Bs8LGTO+59O+YqVNOL5lwI6Z2JSsgYOfzygc4Yan8+nhR+9q+cef1hffbZA+3bvVEZ6miSVk9RU0jOStku6w86cdqMAAFBUdHRA14+vf8GF6jt4aMDms9KNXe5U62s7Bmy+/kMfDfq7Jezk8/k0e/pkLVs47++Fqk4jWdLbknoHJlnwoQAAkCRd0/F6Xd7yKsvniYiI0MiXJioqOtryuQLlyRcmKL5oUcvnqVy1mrpxz/8Zfbd8qdZ+901Bf9wlaYKk0D4U5ScKAIC/DXvmOUVEWPuxcMc994Xd+evyFSup/yPDLZ9n2DPPBc0SycEoLzdXSz5+v7CbRUkyZx3rEEMBAPC3ug0u0PV3dLFs/BKlSuvhJ0dZNr6degx4UDXq1LVs/IubNdc1Ha+3bPxwsHXTeqWnpfqzaWvlXx/gKBQAAP8w6MnRll2ZP2TUGCUXL2HJ2HaLio7W6AmTLVuV75GnQvN2yUDa9ed2fzeNkNTIxCghgQIA4B/KnVNBXXr0Mn3ceg0b6aau3UwfN5g0ufwKtbvhJtPHbXNdJ114SVPTxw03fn77P6GsWTlCBQUAwH/0HTxURRMTTR1zxPMvWn59QTAYMmqMqefpIyIiNPDREaaNF868Xq+RzR23Lk74/2sEUGjFS5ZSj/4PmjZe2043qMnlV5g2XjCrVKWq7rq/r2nj3dC5K4/6hSUoAABO6b4HHlKpMsaPikZFR4fscr/+6jdkuCn36kfHxGjA0MdMSAT8FwUAwCnFFy2qTrcZXyjtytbXBHyVQbslJiXrBhPupmjeqo0qV61mQiLgvygAAE4pMyND89971/A4Xy/9TDu2bzMhUejISEsz7b3b9ecfJiQC/osCAOCUpk98SYcO7Dc8Tl5ursaOsH6RnGAy8dnROnzwgOFx8nJz9fKzjlyjBgFAAQDwHynHj2nahBdNG2/hRx9ozbcrTBsvmO3e8admTJ5o2ngfznpTv23eZNp4wAkUAAD/MenZp5Vy/JipY44aMkg+n8/UMYPR2MeHKSc727TxPB6PXhjJ0/9gPgoAgH/Yv2e33nx1sunj/rxmtea+M8v0cYPJDyu/0YIP3jN93CXz5+nnNatNHxfORgEA8A8vPDXC1G+wJ3tm+CNKTTluydh2c7vdemxgf0uOcvh8Po15dIjp48LZKAAA/rZ5/c/6cNablo1/+OABjXsiPO9rf2PSBP26cb1l46/6erk+XzDfsvHhPBQAAH8bPXSQ0eVUz2rW1Clhdzj70IH9mviM9U85HD3kYeXm5Fg+D5yBAgBAkrT000+08otlls/j9Xr1+IMD5Ha7LZ8rUEY82F9pqSmWz7Pj9+16e9qrls8DZ6AAAJA7L09PDxscsPl+WfuDpjz/bMDms9K8d9/RonkfBWy+8aNH6tjRIwGbD+GLAgBAs6ZO0R+/bQ3onBPGjNKmX34K6JxmO7Bvr5783wMBnTPl+LGAnG5A+KMAAA53cP8+vfjUEwGfNy83VwO732nZHQdW8/l8Gtqnp44fOxrwud98dbI2/PRjwOdFeKEAAA434sH+tt2a99vmTRr3ZGjeFTBr6hR9uWSRLXN73G4N63u/PB6PLfMjPFAAAAf7YvFCLf54rq0Zpk140ZLFc6y0bvUqjXrkf7ZmWL9uralLDsN5KACAQ2WkpWl4/952x5DP59MjvXtYeg+9mQ4fPKA+nW8Nitvxxj35GE8LhN8oAIBDjX18mPbv2W1ojOIlSuqefsYvgsvMyFCv2282/fkDZnPn5an3Hbdo/949hsfqdNsdql67jqExsjIzNeLB/oazwJkoAIADfb30M7312iuGxxn42BMaOvpZ1W1wgeGxdmzfpvtvv0nZWVmGx7KC1+vV4N49tOa7lYbHKlOuvJ58caIefXac4bG+XLKItQHgFwoA4DBHDh3Uw/d1N7xmfY06ddX53p6Kio7WuGlvKDomxnC2VV8v1323Xh90dwb4fD499kBf0x5mNPKll5WUXFxXtr5GV7Vtb3i8pwY/pC0bfjEhGZyEAgA4iNvtVv9ud+jQgf2Gxxrx/HhFRUVJkmrXb6A+g8x5WM2KZUvVt+ttcuflmTKeUT6fTyMe7K93Xn/NlPFu6NxV13S8/u//PXzM84qKjjY0Zk52tgbc1UXpqalG48FBKACAg4we8rC+W/6V4XE63HSLLm951T9+re+goapzfkPDY0vSsoUL1Ou2G5WRlmbKeP7Ky83V0L69TDldIuUf+n/8uRf/8WvVatZSjwEPGh77t82bNPCeOy1/lgPCBwUAcIgZkyeacttYscSk/+zEJCk6JkbPvfa64W+zJ3yxeKFuaHGZdmzfZsp4hXXk0EF16dBGc2a8btqYoye+ouTiJf7z6wOGPqbKVasZHn/ZwgV6avBDhseBM1AAAAeYM2O6Rg4y/i1TkgY/9bTKlCt/yt+r17CRhowaY8o8Uv632uubN9XXSz8zbcyCWL9urTpdcal+WPmNaWN2u7+vWnW47pS/Fxcfr5EvvWzKPDMmTwzZxZUQWBQAIMy9MWmChvXrZfiiP0lq2Phidb635xl/5p5+D/zjHLdRx48d1V0d26lv19t0+OAB08Y9lcyMDL00+knd1LKZ9uzcYdq4dc5vqGFPjz3jz1zZ+hpdd8ttpsz38rNP68mHB3I6AGdEAQDCVHZWlob1u18jBz1oyo4gLj5e46a+oYiIM39suFwuPTtlms6tdp7hOU+28KMPdHXDunpzyiTT7xLweDz6eM5sXd2wjsaPHqm83FzTxk4uXkJT3v1AsUWKnPVnnxg3XqXLljNl3hmTJ+r+22+y5VkFCA0UACAMfbf8K113eRPNnj7VtDGHjH5W59WqXaCfTUourqnvz1PRxETT5pek1JTjGvHQADWtca7GPj7M8Lf0o4cOafJzY9S8bnUN7N7VlAV+ThYZFaWXZ80p8Pn9EqVKa+yrr8vlcpky/+cL5qtdkwu0aN5HphwBQnihAABhIj01VQs+eE9dr22jzu2u1rYtm00bu0WbtrqzZ+GWDa5Rp64mzHxHkZGRpuU44diRw3rl+Wd1Zb0ahh5kdE2ThnpuxHDt3bXTxHT/7/HnXvzP3RJn06JNW3W9737TMuzfu0d9Ot+ibi0v0Sezpuv44UOmjY3QFmV3AACFc/zYUS1d8Il+XrNaB/bt1dHDh3X44AHt3vGnJU+HK1WmrN/fSlte006jJkzWsH73W/IN1Oif18q1Bno//Ii69erj17ZDnx6rVd8s12+bN5mWZ9O6NdrUv4dcLpfKVqyskmXLqXjJ0ipZrrxqNbhAzdt3Uqly55g2H4IfBQAIEV6vV1PGjdXk58cE7P74qOhoTZr1rqHz0rd376HMjAxH3Z52V+9+Gjzyab+3j4uP15TZH+j65k2VlppiYrL8hY3279qh/bv+efrkxWEP6eYefdX70VGKKcD1Cgh9nAIAQoDb7VafzrfouRHDA7o4zmNjX9DFzZobHueefg/of4+PNCFR8Lvt7ns04vmXDI9TrWYtvTRj1lkvujRLXk6OZk96QX07Xq3MdHsXYEJgUACAEDD2saFaMn9eQOe89a7ufh/CPpV+Q4ar35Dhpo0XjG7scqeefvlV0y7iu6ptez0U4OK0/ofvNLJP94DOCXtQAIAgt/3XLZo+aUJA52zRpq1GjZ9s+rj/e3yNhxDZAAAgAElEQVSknho/yZILA+3Wd/BQPf/a2W+TLKw+g4bojnvuM3XMs/nqk4+0+svPAzonAo8CAAS5OTOny+N2B2y+xk0v16S33zPl6X6n0vW++/XG3E9Nv0XQLpFRURo1YbIefmKUad/8T+ZyuTRqwmR1uu0O08c+k3kzzbuFFMGJAgAEuVVfLw/YXBddeplmzPtU8QkJls5zRavWmr14mcpVqGjpPFZLSi6u6R99oi49elk6T0REhJ6fOkNtO91g6TwnW/P1FwGbC/agAABB7oDJi9OcTqsO1+mtBUuUUKxYQOarf8GFWrR6ndrfeHNA5jNb0ytbaNHqdWreqk1A5ov6a1Ghsy3FbJbUY0eVk50VkLlgDwoAEOSKxMVZPsetd3XXK7M/UFx8vOVznSy5eAlNmjVHk2bNUWJSckDn9ldUdLQeGP64Zn36ucpXrBTQuSMjIzV64it6/LkXLb87IDIqStHR1pwGQnCgAABBrmr1GpaNHZ+QoDGTp+rZV6YpKsq+ZUHa33izFny3xtSHCFnhkiuu1CcrV2vg8BEBuz3vVLr3HaCp789TiVKlLZujYtXzFBGGF2vi/1EAgCDX+rpOlox7fqOL9MnKH3Tb3fdYMn5hVapSVVPe/VBzPvtS51/Y2O44/1C1Rk29OucjvbvkC9Wu38DuOJKkq9p10KLV63T5VVdbMn7z9tb8vUPwoAAAQe6mLt1MvViueImSevLFifpo+beqVrOWaeOa5eJmzfXxN6v00huzVP+CC23NUrVGTY186WV9tuYXtbGoiBlRplx5vfXJEo2f8bbOqVTZtHHj4hN0W+8HTBsPwYkCAAS5InFxGjd1hqKiow2Nk5iUrF4PDdKXG35Vt159bD3kfzYul0udbrtDn3z7gz76aqVu6NxVMbGxAZk7MjJSra/tqDfnL9aynzbpzp69Db/3VnK5XOp46+1a9tMmDXpytMqUK294zEHjJqlUWePjILhRAIAQcFmLlpr89nuKL1q0UNu5XC6df2FjjZ74ir7btlNDRo1RUnJxi1Jao9HFl+qFaTO1avsujZs6Q9fefKvpf4b4hAS16nCdRk98RSu2/K7X3purK1q1tuS+fqsUiYtTn0FDtPLXPzR+xtu65IorC73gUlR0tAa/MFntb+9mUUoEk+D9CgDgH1pf21GfrflF458eqYVzPzzlMwGiY2JUrUYt1apXT5e1uEot27Y35RthMCheoqRu7HKnbuxyp9xut35avUrrflit7b9u1pYNG7Tt180Fek5Ckbg4Va9VR9Xr1FHNOvV0fqOL1OTyZooNkwfgREVHq+Ott6vjrbfr+LGjWv7ZEn2z7DNtXL9Bf/y6+ZS39sXEFtHl13TQfUOfULXa9WxIDTtQAIAQUqHyuRo75XWNGj9Zv23ZpKOHDisqOlpFE4spuXgJla9QMagPV5slKipKjS9rpsaXNfvHrx87ekRpKSlKTTmujLQ05eTkKDo6RkUTiykxKVnFEhOVXKKkrVfwB1Jy8RLqdNsd6nTbHTqa51JOnkcH9+1RypHDykxPU25OjoolJatq7bqKSyjc0SWEPgoAEIJiYmNVr2Eju2MEneIlSqp4iZJ2xwhaEZGRKlexsspVNO+CQYQuZ9RgAADwDxQAAAAciAIAAIADUQAAAHAgCgAAAA5EAYC5fHYHAAAUBAUApvJRAAAgJFAAYCqv12t3BABAAVAAYCq3hwIAAKGAAgBTefLcdkcAABQABQCmynN77I4AACgACgBM4/Z45OEUAACEBAoATJOTnWd3BABAAVEAYAqfjwIAAKGEAgBTZGflyOvj8D8AhAoKAAzzeX3KzM6xO0ZARUZG+b3tscOHTUwCFJDFi3TlZGcpKyPd7+0jIiNNTIOCoADAsLSMLPm8zloCMLZIEb+3nTNzuolJgILxWPxP9NPZM+XO8+80YEREhGJiYk1OhLPx/2sMoPxD/7k5zjv3X7JUaR3cv9evbae+NE6HDuxX6w4dlZiUbHIy4L+8klIs+meamZGutd98pQ9fn+z3GEnFS8jlcpmYCgVBAYDfcnPdSs901qH/E8pXqKzNG372a1ufz6e578zS3HdmmZwKCE1ly1ewO4IjcQoAfsnNcystLcOxT/+pUbue3RGAsFGtRh27IzgSRwBQaNnZuUpPz7Y7hq3qNbxIEZGR8npY+RAwqlb9hnZHcCSOAKDAfD6f0tKzlJ6eJcsvKQ5yxRKTdP4Fje2OAYS8sudUVMVzq9odw5EoACiQnJxcHTuWrpzsXLujBI1W7TrZHQEIeVdc3dbuCI5FAcBp+XxSTk6ejh1PV1palrxeFvo5Wf0LGqt6zbp2xwBCVvGSpdTk8ivtjuFYFACcxCe3x6Ps7FylpWXq6NFUpaVlysMT/k6ra49+iojgnxHgj+tvv0tRUdF2x3AsLgI0g88nr9enPI9XXo9XXq9HPp/+enn/+m8QnzP/K5/3r6wouHOrVdd1N3fRx++9ZXcUIKQ0uvhy1W/UxO4YjkYB8IPH41VunlvuPI/cbrc8Xp9jb4eD1PHmLvpz+1b9vPZ7u6MAIaFSlWq69a6edsdwPI5dFsCJJ92dOCx+7FiaMtKzlJOTK4/Hy87f4SIiItTnoUdVq24Du6MAQa/sORXV44Ehioll6V+7UQDOIM/tVnp6Vv658PRM5eTkyeuwNe9RMDGxsfrfY0+rcdMr7I4CBK1qNWqr3yNPqGixRLujQJwC+A+vz6fs7FzlZOXKw1XvKITo6Bj1eehRff7pXH34zhvKzXXmMsnAv0VERqp1hxvU6tobFBHBU/+CBQXgL16fV9lZecrKygnuC/YQ1Fwul9pce6MaNWmq92ZN09pVK/j7BEer2+BC3d6tp0qXP0eZWZl2x8FJHF8AfD6fMjJylJOTw6l8mKZ02fLq+7/HtHf3Dn31+UKtXrlcKceP2h0LCIj4hKJqfGkzXdmqvarVqC1Jys5x9vLhwcjRBSAnJ1cZGdmc14dlzql4rjp376077r5fu3f+oe1bt2j/3l06fuyocrKzlJvLyooIbdHR0YotUkRJScVV9pyKqnpeTVU5rybrY4QARxYAj8er9Iws5eW67Y4Ch3C5XKp0bjVVOrea3VEAQJIDC0BmVrYyM3O5dQ8A4GiOKQBer09paVnKy8uzOwoAALZzRAHIy3MrLS2Tc/0AAPwl7AtAVlaOMjOzOeIPAMBJwroAZGXmKCOTW08AAPi3sCwAPp+UkZGl7GxusQIA4FTCrwD4fEpPy1JOLhf7AQBwOmG3UkN6RjY7fwAAziKsCgCH/QEAKJiwKQBZmTnKymLnDwBAQYRFAcjJyeVqfwAACiHkC4DH41V6Ojt/AAAKI6QLgE9SWlomz1sHAKCQQroAZKRnye322B0DAICQE7IFIDfXzRX/AAD4KWQLQHpGlt0RAAAIWSG5EmBOTq68Hq/dMf7jyOFD+mnNav3262bt2vGHdu/4UxkZGUpPS1VWZobcbrfdER1vy8af1f3mNnbHABB8pv71kqTjktIlZUjaIelXSZskffPXf8PiwrOQLAC5OcGz0t+uHX9qySdz9eXSxfpz+za74wAAjEv+6yVJtSSd/K3hgKRFkt6UtFxS8H0bLaCQLADBYNWK5Zr1+qtat+Z7u6MAAAKnrKS7/3rtkPSi8o8cZNoXyT8UgEL6ae1qTRg7Wr9u2mB3FACAvc6V9JKkYZJGSZosKWRuTaMAFFDKsWOa+PxoLf5kHusOAABOVkbSBEndJd0vabW9cQomZO8CCKSf1q7WXTd30KL5c9n5AwBOp5GklZKeUAjsX4M+oN3mvPWGBtzbVYcOHrA7CgAg+EVJGiFprqQEm7OcEQXgNHw+n16fPF4Txo6SxxMyp3QAAMGho6QvJZW2O8jpUABOY8LYUZr+ygS7YwAAQlcTSUv1/7cUBhUKwCnMeHWS3ps1w+4YAIDQ10D56wYE3ekACsC/fPnZIk2b9KLdMQAA4eNSSVPsDvFvFICT7Nm1U2NGDOVKfwCA2bpK6mF3iJNRAP7i9Xo1cuhDSk9PszsKACA8TZB0nt0hTqAA/OWTj97Thp/X2R0DABC+4iRNsjvECRQASWmpKXp1/HN2xwAAhL9rJHWyO4TEUsCSpA/eeVMpx4+bNl5UTJzK1G6m8vWvVrEyVRWXVFaxxUopIpK3GwCsdDDbo9WHc4w9rzfzqHyZR+VL2SPfn9/Jt325fGmmLgY3QtJ82fxYYcfvkbIyM/X+2zNMGSsqJk7VW3RXzavuVVRs0N3xAQBhr0yRSFUtGq3f0w08Nj6+hFzxJeQqVV0670rp6kfk/fVzeVe8LN/x3WbEbCSpvaRPzRjMX44vAJ8vnG/Kt/+SVRvpkrvGq0hSGRNSAQD8VTspWvuy3MrymPUF26WIWm0UUb2lPCsmybvmTTMG7SubC4DjrwFY9Mlcw2NUbtxRV/SZyc4fAIJApEuqlRRtwcDRirxyoCLbjZQiDH9/bi2pnAmp/OboArB/7x6tX7fW0BhlazfTRXc8o4ioGJNSAQCMqhAXpbhIlyVjR9S9VpEtHzY6TJSkW02I4zdHF4A1q1YaWvQnoVRlXdztBbkiIk1MBQAwKsIlVU6w7ix3xAW3KuL8G4wO08aMLP6yswD4fYVGVLQ5h3bWrl5laPv61z6s6LhEU7IAAMxVMd7ay9wimw+QYosZGeIK2Xgtnp0FYL+/G5Ysbc659o2/+L/wT4lzG6pCg9am5AAAmC8+yqWiURbu5ookKfLiu42MkCipnjlhCs/OArDSn40Sk5JV9bwahifPy83Vvj17/N7+3EtuklzWnF8CAJijZKy1u7mI+p0kl6E5apqVpbDsLAALJB0p7EZtOnRUZKTxc+67d+6Q1+vxa1uXK0Ll67U0nAEAYK3EGIt3c/El5Cp/vpERapsVpbDsLACpkh4vzAZJxYvr7l79TJn86JHDfm+bUKqSiiSWNiUHAMA6CZHW7+ZcFRsZ2bysWTkKy+67ACZLmlaQHywSF6+nX5ys4iVKmjJxZmaG39sWSeR+fwAIBTEBuEnLVdTQPsG2K8ntLgCS1FPSYEmn3SOfV6OWprw5RxdcdLFpk2ZRAAAg7EUF4lqthFJGtjZ0G4ERwbAUsE/Sc5LektRVUouk5OQGlc6tWqlSlaq6omVrXdGylSIizO0qHrd/5/8lKTLKghWmAACmC8il2pGGFoKzbSGZYCgAJ+yX9Lyk579Zvb5zWk7u23YHAgAgXAXDKQAAABBgwXQEAH7ITjmovRuWKe3Adrmz0xWbWFqlqjVWmZpNeT4BAOC0KAAhyp2TqQ2fPK8/V70nr8f9j9/bumyq4pLL6/yOg1SxUXubEgIAghkFIATlpB/RilfuUcreX0/7M1nH92n1mw8pdd9W1W0/MIDpAAChgGsAQozP69GqNwacced/si2fT9GO1R9ZnAoAEGooACFm55r5OvL72kJts37+WOVlp1mUCAAQiigAIeb3lbMLvU1uxnHtWbfIgjQAgFBFAQghednpOrZrvV/bHvxtlclpAAChjAIQQrJTD0o+n1/bZh3fZ3IaAEAoowCEkMioWP+3jS5iYhIAQKijAISQIkllFBnj3448oVRlk9MAAEIZBSCERERGq2ytK/zatny9q0xOAwAIZRSAEFOrVU+pkI+3TDqntsrW8a84AADCEwUgxBSvfL5qXtWjwD8fFROnxl3GyOXi/2oAwP9jrxCC6nV4UNWvvPusPxeTkKym972qpHNqWx8KABBSeBZACHK5ItTg+iEqV6e5Ni+ZqCN//vSP2wOjYhNU6aJrVadNXxVJKmNjUgBAsKIAhLAytS5TmVqXKTvloFIPbJc7J11FEssouUIdHgUMADgjCkAYKJJUhm/6AIBCCcZrAGJWrfym5PFjR+3OAQBA2AqWIwARkjpLuk/S5T27d46UpKTkZDVr0Upd7+2lylWq2RoQAIBwEgxHAMpI+krSW5KaS4o88Rspx4/r03kfqOv1bfXOjKk2xQMAIPzYfQQgUdIXkuqd6Yc8Ho8mjRsjd16eut3XJzDJAAAIY3YfAXhBZ9n5n2zqyy9q84ZfLIwDAIAz2FkAqkq6uzAbeL1evT55vDVpAABwEDsLwPU66Xx/Qf3w3Qqlp6dZEAcAAOewswCc789GbrdbO//43ewsAAA4ip0FoKS/G7JGAAAAxthZAAr3TNuT+LxeM3MAAOA4dt8FAAAAbEABAADAgSgAAAA4EAUAAAAHsnsp4JCUcXSP9vy02O4YAICzyPH65D2ea+kcvgObLR3fKhQAPxze/oMOb//B7hgAAPiNUwAAADgQBQAAAAeiAAAA4EAUAAAAHIgCAACAA1EAAABwIAoAAAAORAEAAMCBKAAAADgQBQAAAAeiAAAA4EAUAAAAHIgCAACAA/E0QD/El6ig4pXPtzsGgDCScWinju/Z5Ne2RUtVVlLFuiYnCg8er3Qw22PpHL6MQ/Lt+cnSOaxAAfBD6fOa6KLOY+yOASCMbP/mbR3/yL8CULbOFWp442MmJwoPmW6flu3PsnQO7/av5dkz0NI5rMApAAAAHIgCAACAA1EAAABwIAoAAAAORAEAAMCBKAAAADgQBQAAAAeiAAAA4EAUAAAAHIgCAACAA1EAAABwIAoAAAAORAEAAMCBKAAAADgQBQAAAAeiAAAA4EAUAAAAHIgCAACAA1EAAABwIAoAAAAORAEAAMCBKAAAADgQBQAAAAeiAAAA4EAUAAAAHIgCAACAA1EAAABwIAoAAAAORAEAAMCBKAAAADgQBQAAAAeiAAAA4EAUAAAAHIgCAACAA1EAAABwIAoAAAAORAEAAMCBKAAAADgQBQAAAAeiAAAA4EAUAAAAHIgCAACAA1EAAABwIAoAAAAORAEAAMCBKAAAADgQBQAAAAeiAAAA4EAUAAAAHIgCAACAA1EAAAAwwBUTb2TzVLNyFBYFAAAAI5LOMbL1nyalKDQKAAAABrgSz5GrRFV/N19kZpbCoAAAAGBQROOu/mz2vaRvTY5SYBQAAAAMiqjfSa7KTQqzSYakXpJ81iQ6OwoAAABGuSIUdd1YuSpcUJCfTpV0s6SfrQ11ZhQAAADMUCRJUbe8qsgr+ktFEk/1E15JcyU1lrQ4oNlOIcruAAAAhI3IaEVc3F0RF3WVb89P8h39Q3G7V72d/utXCyR9JWm/zQn/xhEAAADMFhktV+UmirjgVlXsMmGhpHcVRDt/iQIAAIAjUQAAAHAgCgAAAA5EAQAAwIEoAAAAOBAFAAAAB6IAAADgQBQAAAAciAIAAIADUQAAAHAgCgAAAA5EAQAAwIEoAAAAOBAFAAAAB6IAAADgQBQAAAAciAIAAIADUQAAAHCgKLsDAAAQdtw58u1cLd+xXdq1e+X1kqIlfSlpp83J/kYBAADALO5ceVZPl3ftLCk3U5KUId2i/JckLZI0SNJGmxL+jQIAAIAZso7LPXeAfPs2nOmn2klqLukOSZ8EJNdpcA0AAABGeT1yz//f2Xb+JyRImiPpImtDnRkFAAAAg7y/fCjf7nWF2SRO0hRJLmsSnR0FAAAAg7w/zvZns8aSmpkcpcAoAAAAGOBL2SPfsR3+bt7WzCyFQQEAAMCI1L1Gtq5iUopCowAAAGCALzfLyObFzMpRWBQAAAAciAIAAIADUQAAAHAgCgAAAA5EAQAAwIEoAAAAOBAFAAAAB6IAAADgQBQAAAAciAIAAIADUQAAAHAgCgAAAA5EAQAAwIEoAAAAOBAFAAAAB6IAAADgQBQAAAAciAIAAIADUQAAAHAgCgAAAA5EAQAAwIEoAAAAOBAFAAAAB6IAAADgQBQAAAAciAIAAIADUQAAAHAgCgAAAA5EAQAAwIEoAAAAOBAFAAAAB6IAAADgQBQAAAAciAIAAIADUQAAAHAgCgAAAA5EAQAAwIEoAAAAOBAFAAAAB6IAAADgQBQAAAAciAIAAIADUQAAAHAgCgAAAA5EAQAAwIEoAAAAOBAFAAAAB6IAAADgQBQAAAAciAIAAIADUQAAAHAgCgAAAA7k3ALgcvm9qc/nMzEIAMA6gfi8Ds19gmMLQJEiRfzeNifjmIlJAABW8QRi35x5NACTmM+xBSA+IcHvbbNTD5mYBABglbxAFID0gwGYxHyOLQDFiiX6vW3G4R3yunNNTAMAsEJmntfyOXxH/rB8Dis4tgBUPLeK39u6czJ16LdV5oUBAFgiw+pzAJ5cef9Yae0cFnFsAUhMSlZS8eJ+b7/7p8UmpgEAWOFojsfS8X07vpdyMyydwyqOLQCSVKNmHb+33bV2vtIP7zQxDQDATB6fdCzHyiMAPnm+nWLh+NZydAG48OJL/d7W63Fr44LnTUwDADDT/myPPBbeoufdvEi+A5stG99qDi8ATQ1tv+fnz7T9m7dNSgMAMNOujDzLxvYd+V2epc9YNn4gOLoA1GtwgcqULWdojF/mPa39m5ablAgAYIaUPK8O5Vh0B0DGYXnmPRiy5/5PcHQBiIiIUJsOnQyN4fN69N3rfbR12VSTUgEAjNqSkmfJAn2+g1vkfqebfMd3mT94gDm6AEhShxtuVkSEsbfB5/Vow4JxWjW9n9IOhub9oAAQLvZnu3Uw2+Sr/3Mz5Fk5We7Zd8uXut/csW0SZXcAu1WuUk1XtrpGX362yPBYe9cv1b6NX6rShdeqQsNrVKbWZYqM9n/JYQBA4eR4pPXHzDr375Nv/0Z5t30l7y9zpazwWgbe8QVAkrr16KOvPl9sykN+fF6Pdq75WDvXfKzI6CJKKFlRRRLLKDre/5UHAYS/jEP+31Z8YPM3+n7mQBPThK4jOR7lGvzy73NnS+mH5EvbJ2WlmBMsCFEAJNWsU1ftOt6ohR9/aOq4nrxspe7fptT920wdFwBOln54J+uSoNAcfw3ACf0eHmZoZUAAAEIJBeAvScnJGjjkcbtjAAAQEBSAk7Rp31Edb77d7hgAAFiOAvAvA4c8pvoNG9kdAwAAS1EA/iU2tojGTXlD1WvWtjsKAACWoQCcQtGixfT8K9NV5bzqdkcBAMASFIDTKF2mrKa8+Z4aXNjY7igAAJiOAnAGxRKTNP61N3VLl7vsjgIAgKkoAGcRExurgUMe15NjxyspOdnuOAAAmIICUECt2l2rOZ9+oVu63GX44UEAANiNPVkhFEtM0sAhj2vGBwvUqt21ioiItDsSAMBGdRtcoBtv72p3DL9QAPxwXo1aenLseL27YKm69+qn8hUq2R0JABAgRYsl6pprr9crb76nqW9/qEsvb253JL/wMCADKlSqrB79HtS9fQdq6+aNWvv9d1q7+jtt37pFhw4esDseAMAExRKTVKN2HdWoVVdNm7dQo8aXKCoq9Hefof8nCAIul0u16tZXrbr11bn7fZKkzIwM7d2zS6nHjyszI125ebk2pwQAFERkZJSKFi2moomJKlmylEqVKWt3JEtQACwSn5DAaoIAgKDFNQAAADgQBQAAAAeiAAAA4EB2FgC/r4rLyMwwMwcAAH5LT08zsnmOWTkKy84C4Pc7dphb7AAAQeLwwYNGNk81K0dhhWQB2L93r5k5AADw2/59e4xsbujwgRF2FoAd/m64asVXJsYAAMB/q1YsN7L5nybFKDQ7C8Cv/m64Z9dO/b5tq5lZAAAotG1bt2jv7l1GhrBtZ2ZnAdhsZOPZM6aZlQMAAL+8O9PwvmiTGTn8YWcB2C7J7xMniz+Zq9+22Pa+AQAcbtvWLVqy4GMjQ+ySQ08BSNKX/m7o9Xo15olhysnJNjMPAABnlZ2dpacfHSyv12tkmGVm5fGH3QXgUyMbb9m4XqMfHSyfz2dWHgAAzsjn82n0o4/o180bjQ5laB9oVKSdk0vaJqmfpCL+DvDHtt/0x/bf1LR5C0VHR5uXDACAf8nNydHoRwdr6aJPjA6VIqmXJLfxVP6xuwC4JVWXdKGRQf7cvk2rVixXnfoNVap0GXOSAQBwkl83bdAjA3rph+9WmDHcm5LmmjGQv1x2Tv6XupLWy4TTEREREWrV7jrd3u0e1axTTy5XMPzxAAChyufz6ddNG/Tum69r6aIFZp1y9kqqJ2mLGYP5K1j2kO9LutnMAcuUK69LLm+usuXPUZmy5RQXH2/m8ACAMJWVmamDB/Zr/949Wr3yax08sN/sKd6TdJvZgxZWsBSAupJ+ksRJfABAOMuV1FA2f/uX7L8G4IRDkopKutzuIAAAWOhZ5R8BsF2wHAGQpARJP0s6z+4gAABY4DdJF0jKtDuIZP86ACfLkHSTJFb2AQCEmxxJtytIdv5S8JwCOOGApKOSOtgdBAAAE/WRzQv//FuwFQBJWqP8hYGa2R0EAAATjJL0vN0h/i0YC4AkfSGpnKTGdgcBAMCAVyQNsjvEqQRrAZD+/1BJCztDAADgp2clPSQpKB9YE8wFQJK+krRfUmtJUfZGAQCgQLIl9ZY01u4gZxJMtwGeyYWS5ij/uQEAAASrrcpf5e8nu4OcTbAfAThhn6Rpyn94UFNxNAAAEFzyJE1S/s5/p81ZCiRUCoCUv/P/SvnPDSip/OWDg2kdAwCA83gkvSvpVklvK3+p35AQKqcATqWGpIHKX1ihhM1ZAADOckT5O/6XJG2zOYtfQrkAnBAjqb3yFw9qKZYSBgBYY7vyb1P/VNIihdC3/VMJhwLwbxUk1ZFUS1IlScWV/6ChQD9pMEH5xcQfGZIWmpgFAOzUXvmfif5YqPzPxEDKk5Su/JVpdyn/wr7NkvYEOAdCVBXl3/vpz+uPwMcFAMv8If8/D6sEPq4zcBEdAAAORAEAAMCBKAAAADgQBQAAAAeiAAAA4EAUAAAAHIgCAACAA1EAAABwIAoAAAAORAEAAMCBKAAAADgQBQAAAAeiAAAA4EAUAAAAHIgCAACAA1EAAAAAziBZ0hBJqyQdkeSz+eWRtFfSp5LulBRp3R8dAP4WJambpIXK/wzyyP7PwyOSvsfa0XwAAAHKSURBVJP0iKQk6/7ocKJOCo6d/plev0iqadUbAACSaklaL/s/7870OizpOqveADhLZwVHwy1oC65lzdsAwOFqSzoq+z/nCvLySLrdmrcBTlFDUpbs/8tcmNcG5R+iAwCzREvaJPs/3wrzypRUzYo3A84wS/b/Jfbn1d2KNwOAY90r+z/X/Hm9acWbgfAXJyld9v8F9uf1mQXvBwDnWib7P9f8eaVJKmLB+xEWuA3w9GpLSrA7hJ8a2x0AQFi5yO4Afiqq/M9ynAIF4PRK2B3AgGRxWyAAc0RKSrQ7hAEl7Q4QrCgAp3fE7gAGHFP+VbAAYJRHUordIQw4ZHeAYEUBOL3Nyj9/FIp+sDsAgLCyxu4AfkqXtNXuEMGKAnB6OZLm2R3CT+/aHQBAWJltdwA/fSgp2+4QCE3nKf9eUruvZC3M6xexDgAAc0Upf40Ruz/fCvPKkFTVijcDznG7QmclwMNiOWAA1qil4F8S/cTLI+lWa94GOM11yr+QxO6/1Gd6/aT8lQsBwCo1Jf0s+z/vzvQ6KKmDVW8AnClJ0mBJ3yr/m7bdf8lPPA3wE0ldxG1/AAIjUlJXSQsUPE8DPCxppaRBCu1bFgPq/wBbDart4QCdaAAAAABJRU5ErkJggg==" vertex="1" parent="iXIntG2NBJSnMrhjwnnG-14">
          <mxGeometry x="36" y="370" width="78" height="78" as="geometry" />
        </mxCell>
        <mxCell id="iXIntG2NBJSnMrhjwnnG-13" style="edgeStyle=orthogonalEdgeStyle;rounded=0;orthogonalLoop=1;jettySize=auto;html=1;" edge="1" parent="iXIntG2NBJSnMrhjwnnG-14" source="iXIntG2NBJSnMrhjwnnG-11" target="iXIntG2NBJSnMrhjwnnG-2">
          <mxGeometry relative="1" as="geometry" />
        </mxCell>
        <mxCell id="iXIntG2NBJSnMrhjwnnG-11" value="AWS DataSync Agent" style="sketch=0;points=[[0,0,0],[0.25,0,0],[0.5,0,0],[0.75,0,0],[1,0,0],[0,1,0],[0.25,1,0],[0.5,1,0],[0.75,1,0],[1,1,0],[0,0.25,0],[0,0.5,0],[0,0.75,0],[1,0.25,0],[1,0.5,0],[1,0.75,0]];outlineConnect=0;fontColor=#232F3E;fillColor=#01A88D;strokeColor=#ffffff;dashed=0;verticalLabelPosition=bottom;verticalAlign=top;align=center;html=1;fontSize=12;fontStyle=0;aspect=fixed;shape=mxgraph.aws4.resourceIcon;resIcon=mxgraph.aws4.datasync;" vertex="1" parent="iXIntG2NBJSnMrhjwnnG-14">
          <mxGeometry x="396" y="190" width="78" height="78" as="geometry" />
        </mxCell>
        <mxCell id="iXIntG2NBJSnMrhjwnnG-15" value="Amazon Web Services" style="swimlane;startSize=0;labelPosition=center;verticalLabelPosition=top;align=center;verticalAlign=bottom;" vertex="1" parent="1">
          <mxGeometry x="570" y="40" width="640" height="490" as="geometry" />
        </mxCell>
        <mxCell id="iXIntG2NBJSnMrhjwnnG-19" value="&lt;div style=&quot;font-size: 9px;&quot;&gt;S3 Event&lt;/div&gt;&lt;div style=&quot;font-size: 9px;&quot;&gt;Notification&lt;/div&gt;" style="edgeStyle=orthogonalEdgeStyle;rounded=0;orthogonalLoop=1;jettySize=auto;html=1;fontSize=9;labelPosition=center;verticalLabelPosition=bottom;align=center;verticalAlign=top;" edge="1" parent="iXIntG2NBJSnMrhjwnnG-15" source="UEzPUAAOIrF-is8g5C7q-116" target="UEzPUAAOIrF-is8g5C7q-113">
          <mxGeometry relative="1" as="geometry" />
        </mxCell>
        <mxCell id="UEzPUAAOIrF-is8g5C7q-116" value="AWS S3" style="outlineConnect=0;fontColor=#232F3E;gradientColor=#60A337;gradientDirection=north;fillColor=#277116;strokeColor=#ffffff;dashed=0;verticalLabelPosition=top;verticalAlign=bottom;align=center;html=1;fontSize=12;fontStyle=0;aspect=fixed;shape=mxgraph.aws4.resourceIcon;resIcon=mxgraph.aws4.s3;labelBackgroundColor=#ffffff;labelPosition=center;" vertex="1" parent="iXIntG2NBJSnMrhjwnnG-15">
          <mxGeometry x="150" y="190" width="78" height="78" as="geometry" />
        </mxCell>
        <mxCell id="iXIntG2NBJSnMrhjwnnG-22" style="edgeStyle=orthogonalEdgeStyle;rounded=0;orthogonalLoop=1;jettySize=auto;html=1;" edge="1" parent="iXIntG2NBJSnMrhjwnnG-15" source="iXIntG2NBJSnMrhjwnnG-1" target="iXIntG2NBJSnMrhjwnnG-21">
          <mxGeometry relative="1" as="geometry">
            <Array as="points">
              <mxPoint x="559" y="359" />
            </Array>
          </mxGeometry>
        </mxCell>
        <mxCell id="iXIntG2NBJSnMrhjwnnG-1" value="AWS Batch" style="sketch=0;points=[[0,0,0],[0.25,0,0],[0.5,0,0],[0.75,0,0],[1,0,0],[0,1,0],[0.25,1,0],[0.5,1,0],[0.75,1,0],[1,1,0],[0,0.25,0],[0,0.5,0],[0,0.75,0],[1,0.25,0],[1,0.5,0],[1,0.75,0]];outlineConnect=0;fontColor=#232F3E;fillColor=#ED7100;strokeColor=#ffffff;dashed=0;verticalLabelPosition=top;verticalAlign=bottom;align=center;html=1;fontSize=12;fontStyle=0;aspect=fixed;shape=mxgraph.aws4.resourceIcon;resIcon=mxgraph.aws4.batch;labelPosition=center;" vertex="1" parent="iXIntG2NBJSnMrhjwnnG-15">
          <mxGeometry x="520" y="190" width="78" height="78" as="geometry" />
        </mxCell>
        <mxCell id="iXIntG2NBJSnMrhjwnnG-20" style="edgeStyle=orthogonalEdgeStyle;rounded=0;orthogonalLoop=1;jettySize=auto;html=1;" edge="1" parent="iXIntG2NBJSnMrhjwnnG-15" source="UEzPUAAOIrF-is8g5C7q-113" target="iXIntG2NBJSnMrhjwnnG-1">
          <mxGeometry relative="1" as="geometry" />
        </mxCell>
        <mxCell id="UEzPUAAOIrF-is8g5C7q-113" value="AWS Lambda" style="outlineConnect=0;fontColor=#232F3E;gradientColor=#F78E04;gradientDirection=north;fillColor=#D05C17;strokeColor=#ffffff;dashed=0;verticalLabelPosition=bottom;verticalAlign=top;align=center;html=1;fontSize=12;fontStyle=0;aspect=fixed;shape=mxgraph.aws4.resourceIcon;resIcon=mxgraph.aws4.lambda;labelBackgroundColor=#ffffff;spacingTop=3;" vertex="1" parent="iXIntG2NBJSnMrhjwnnG-15">
          <mxGeometry x="320" y="190" width="78" height="78" as="geometry" />
        </mxCell>
        <mxCell id="iXIntG2NBJSnMrhjwnnG-18" style="edgeStyle=orthogonalEdgeStyle;rounded=0;orthogonalLoop=1;jettySize=auto;html=1;" edge="1" parent="iXIntG2NBJSnMrhjwnnG-15" source="iXIntG2NBJSnMrhjwnnG-16" target="UEzPUAAOIrF-is8g5C7q-116">
          <mxGeometry relative="1" as="geometry" />
        </mxCell>
        <mxCell id="iXIntG2NBJSnMrhjwnnG-16" value="AWS DataSync" style="sketch=0;points=[[0,0,0],[0.25,0,0],[0.5,0,0],[0.75,0,0],[1,0,0],[0,1,0],[0.25,1,0],[0.5,1,0],[0.75,1,0],[1,1,0],[0,0.25,0],[0,0.5,0],[0,0.75,0],[1,0.25,0],[1,0.5,0],[1,0.75,0]];outlineConnect=0;fontColor=#232F3E;fillColor=#01A88D;strokeColor=#ffffff;dashed=0;verticalLabelPosition=bottom;verticalAlign=top;align=center;html=1;fontSize=12;fontStyle=0;aspect=fixed;shape=mxgraph.aws4.resourceIcon;resIcon=mxgraph.aws4.datasync;" vertex="1" parent="iXIntG2NBJSnMrhjwnnG-15">
          <mxGeometry x="20" y="190" width="78" height="78" as="geometry" />
        </mxCell>
        <mxCell id="iXIntG2NBJSnMrhjwnnG-23" style="edgeStyle=orthogonalEdgeStyle;rounded=0;orthogonalLoop=1;jettySize=auto;html=1;startArrow=classic;startFill=1;" edge="1" parent="iXIntG2NBJSnMrhjwnnG-15" source="iXIntG2NBJSnMrhjwnnG-21" target="UEzPUAAOIrF-is8g5C7q-116">
          <mxGeometry relative="1" as="geometry" />
        </mxCell>
        <mxCell id="iXIntG2NBJSnMrhjwnnG-21" value="Nextflow" style="shape=image;verticalLabelPosition=bottom;verticalAlign=top;imageAspect=0;aspect=fixed;image=data:image/jpeg,/9j/2wBDAAUFBQUFBQUGBgUICAcICAsKCQkKCxEMDQwNDBEaEBMQEBMQGhcbFhUWGxcpIBwcICkvJyUnLzkzMzlHREddXX3/2wBDAQUFBQUFBQUGBgUICAcICAsKCQkKCxEMDQwNDBEaEBMQEBMQGhcbFhUWGxcpIBwcICkvJyUnLzkzMzlHREddXX3/wgARCAGQAZADASIAAhEBAxEB/8QAHAABAAIDAQEBAAAAAAAAAAAAAAcIAwUGBAEC/8QAGwEBAAIDAQEAAAAAAAAAAAAAAAIHAQMGBQT/2gAMAwEAAhADEAAAAKpD0JgAAAAAAAAAAAAAAAAAAAAAAAAAAAAAAAAAAAAAAAAAAAAAAAAAAAAAAAAAAAAAAAAAAAAAAAAAAAAAAAAAAAAAAAAAAAAAAAAAAAAAAAAAAAAAAAAAAAAAAAAAAAAAAAAAAAAAAAAAAAAAAAAAAAAAAAAAAddvthLk6zrrzFscDXU5PUXx7HlRj3wAAAAADq5Qzz8F9RYLPLj4T0NiojbIjELMAAAAAAAAAAAlyXIjlzZSgZ5x8+jgoUtRq49jVt0vNQtUH0AADqXz6ebOq2M6p+fSXHgIjlyI8dHEY13WAAAAAAAAAABLkuVT6GXAWLRNIsuG2gz5IHlrpZXWY6OrTYa/XdAJjZIbewvn2WylgzzoBqo5x68txHx/Px7jxiPfgAAAAAAAAAAAM2EjMUqVJkWVfzm/P6nWYHAQNbet0LN5kRsFP0WWNlXgTrQfkRRoI/hZuXER78EgAAAAAAAAAAAAAAJjlWp1oJ1PsRLiUeyF5cffVFk/eu+5z77Bn2UGGfhRNItYI9xiELWAAAAAAAAAAAAAAAAATJDfZZ8Kww2UcBXDLuMkLjm4TpwCJog63ktd5hj2wAAAAAAAAAAAAAAAAHv8HsapOY0uAyMY5H5+vmOl6tmZ5vCzGYy8fv8ABHvQbQAAAAAAAAAAAAAAAAHW8lL+fElkbKMAhLFp8Ou4rIDZToFeeNmSG9d4hj3QAAAAAAAAAAAAAAAAMtn46lmdUhLh2DPwOPugz8Y2u/LXeqPJD2UKGfP11X7YxXHtYbELZAAAAAAAAAAAAAAAGVHFIG/leXAP0TrIBXKU4BhZYRsPpbJVInmVfd+J1k/P6EGxzbaK4WZDrNhjYAJAAAAAAAAAAAAe3f8AYS5LgIkkbapcOGfIAa30V6x0Wo1prukE2w15C0m0rVYrZS/rGecA1cdSyx61dOetZEce5iMR78AAAAAAAAAACXJciOXNlKBnnB8Puu5WFI9ht+WIWsD6AAHS80fPaTaVXmydVd4+fZccAiOXIjx0cRjXdYAAAAAAAAAAEuS5XTfzrObMFfeXa50i/lEewDHQAAAAAAdVKECs+BbHPU7p5cdYqI9foGzkhCzAAAAAAAAAAAAAAAAAAAAAAAAAAAAAAAAAAAAAAAAAAAAAAAAAAAAAAAAAAAAAAAAAAAAAAAAAAAAAAAAAAAAAAAAAAAAAAAAAAAAAAAAAAAAAAAAAAAAAAAAAAAAAAAAAAAAAAAAAAAAAAAAAAAAAAAAAAAP/xABEEAABAwICBQUMCAUFAQAAAAABAgMEBREABgcSITFRIEFhgcITFBdARVBVYnGEk9IQIiMwMlKhsTNygpHRFSVCg5Ci/9oACAEBAAE/AP8AxkyvlY5lTPtODBj9z2FvX1u6X9YWtbD2jGqJuWajGc6FhSP2BxLyLmaKCe8O7JHOytK8SIsmI4W5Edxpwb0rSUK/sfE40SVMc7nGjOPL/K2krP8AYYi5EzLKAPeIZSed1aU/pcnDOjCqK2vVGMjoQFr/AHAxmjKpy0IF5wfMjum5vU1e526Te9/GdFnl33bt/S/Gjy2y3IYQ6jnStIUk9RxVNHlEmhS4mtDdO0ah1kE9KTis5OrdGCnHGA9HG91m6h/UN6fv6Nk2tVnVcQwGI5292dukEeqN5xS9HtEghK5IVMdHOv6qL9CBhiPHjNhthltpA3JQkJSOofTpT8he89jxnRZ5d927fJIuLEXBxmDIVNqoW9DCYkr1RZtZ9ZIxU6XOpElUabHU2sbidqVDik7iPu6XSJ9YkiNCYLi95O5KRxUeYYy/kSm0kIelhMqXxULtoPqpON2wcnSn5C957HjOizy77t2+XVaRBrMVUaYyFpI+qofiQfzJPMcZkyzMy7J1XLuR1n7J8CwPQeCvuctZXmZhfuLtRUKs492U8VYplLhUeKiNDZDaBtJ3qUfzKPOeXpT8he89jxnRZurvtjdv7iZCi1CM9FlMpcZcTZST+44EccZly5Jy9N7mq64zlyw7+YcDwUOfl5Xy0/mGbY6yIjZBed7KfWOIkONAjNRozSW2W02Skc3+T0/caU91C9sjseMw6jPp5WYc15gqtrdycUm9t17HbiLnjMsUj/cO6pH/ABdQld+u18U3ScglKajTyni4wewrFNrNMrDXdIMxDoAuUg2UPak7RyqxSotagPQ5KfqqF0q50L5lDpGKpTZNInSIchNnG1WuNxHModBHJpFLk1ifHhRxdTitqjuSnnUegDFKpcajwWYcZNm2xtJ3qUd6j0nlVOt0ujthc6YhokXCT9ZR9iRtPtxUdJwBUim064G5x89hOJWd8zSr3qJaSeZpCUYl1GfUCgzJrz5RfV7qsqtffa52eOR5D8R5t+O8tt1BulaTYg4y3pCS8W4lYshZ+qmUNiT/ADjtDCVJUkKSoEEXBBuCOTn7L4qdO7/ZQDJiJJPFbe9Q6t45ORKAKTTRLeTaXLSFK4oRvSnr3nkqUlKVKUoAAEkk2AHHGZNIQQXItGsojYqURcf0A4ffelOrefeW44s3UtZKlE9JPmHJucl0xbdPqDhVCJs24dpZPy4SpKgFJUCCLgjaCOQQFAggEEbQcZto3+i1mSwhNmHPtWeAQvm6j9OTaKKzWmEOAGOx9q8DuIB2J6zyVKSlKlKUAACSSbADjjOOcHas65ChOFMFBsog2LxHOfV4DzJo9zKX0Cjy3CXEJvGUd5SN6OreOTpGpXflIRNQLuQ13PEoXYK+nR5SxConfS02dmL1zxCBcJHJ0h5kKL0WKvaQDKUOB2hHmWLKehSWJLCyh1pYWgjmIN8Umot1Wmw5re55AJHBW5Q6iLciZGbmRJUVz8DzSmz7FgjDzK2HnWliy21lKhwINjiLHXKkx4zYut1xLaRxKyAMRmG4sePHbFkNIShI4BAsORWak1R6ZMnODY0i6QedZ2JT1k4kPuyn3n3lFTjqytZO8qJuT5m0Y1Irj1CnLP8ACUHm/YvYrk50iiHmWqJAslxYdH/YkKOMjRO+sy0+4ulrWePRqJNv15Ok6okIp9NSrfd9wf8AyjzPkKWY2ZYab2S+hxtXWnWH6jk6TGQitxHQP4sVN/aFEY0Ys61VnvEfgjao9q1j/HJzzKMnM0/bdLWo0OjUSL+Z6XONMqMOalGuWHAvVvq3tzX5r48KS/Qifjn5ceFJfoRPxz8uPCkv0In45+XHhSX6ET8c/LjM+ZTmR6I6YQYLKFJsF697m/AWxlrMzuW1S1NxEvF8IB1lFNtT2DHhRl+iGfiKx4UZfohn4iseFGX6IZ+IrHhRl+iGfiKxUJi6hPmTFoCS+6twpBuBrm9urzPToa6hPhw0qCS+8hsKIvbXNr257Y8Fz/plv4J+bHguf9Mt/BPzY8Fz/plv4J+bHguf9Mt/BPzYzPlleW1Q0qmJfL4WRZBRbU6zfGWMtHMj0toTRHLKEquUa97m3EWx4LXPTQ+Afmx4LXPTQ+Afmx4LXPTQ+Afmx4LXPTQ+AfmxVIJplRmQlL1yw4Ua1tW9txtzeZ8jRTJzNA2XS1runo1Em3J0nPa1VgMg/gja3WtZ/wAY0ZvhFblNE/xIqrdJCweTn2IY2ZZirWS+htxPWnVP6jzPoxpxSifUlJ32YbP/ANL5OeZYlZlqFiSlrVZH9CRf9cZMld6ZlpaifquLLR/7ElI5Ok6mlceBUUD+Eosuexe1J8zR2HZT7LDKCtxxYQgDeVE2AxRqY1R6ZDgtkWaRZRHOs7VK6yeRJkNxY8iQ4bIabU4o8EoFziU+uXJkSXDdx1xTij6yyScMvLYeadQbLbWFJPAg3GIclubEiym/wPNJcHsWAeRVqc1VabMhOHY8ggHgrek9RF8Soz0KS/GfQUutLKFg8xB8y6PMtlFq1KRtIIipPA7Cvr3Dk6Q6oIVE71QqzsxeoAN4QixUfp0c1XvyjuQlm7kNdh0oXcp5OkLLRfQaxFbJcQm0lI3lI3L6hsPmTJ2T3as63NmtlMFBukEWLxHMPV4nCUpSlKUpAAAAAFgBw5Ocq0KzWn1tkGOx9kyRuIB2q6z9OUqz/olZjPrXZhz7J7oQvn6jgEGxBBB23HPyCEqBSpIIIsQRcEYzjk1dNW5Pp7ZVDJu42NpZPy+YWGHpLrbLDK3HFmyUIBUonoAxlvR6EFuXWbEjamKDcf1kYSlKUpSlIAAAAAsAOHJz3mAUmmmIyu0uWClPFCNylde4cnIOYBU6d3i+oGTESEjitvck9W48lSQpJSpIIIsUkXBGMy6PUvFyXRgELP1lRSQEn+Q9nEiO/EecYkMrbdQbKQsWIPjkSnT6gViJCffKLa3ckFVr7r2GzEXJGZpVrU4tJPO6tKMU7RiAUrqVQuBvbYHbVimUSlUdsogw0NEixV+JR9qjtPs5VVqkWkQXpkldm0DYOdSuZI6Tir1STWJ8ibIP1lq2JB2JTzJHQByaXUpNInR5kdVnG1XsdxHOk9BGKPVY1agMzIyvqqFlJ50L50npHKqVHplYaDc6Gh0AbFEWUPYobRipaMUEqVTqgU8G3x204lZHzNFJ/wBv7qkf8mlJXiZTp9PKBMhPMFV9XurZTe2+1xt8Z0Wbq77Y/b+4lzI0CM7JkupbZbTdSjzf5PRjNOZX8wzbjWbiNXDLXaV6x5eWcxycvTe6JBXGcsH2uI4jgoc2Ic2LUIrMqK8lxlxN0qH7HgRw+40p7qF7ZHY8Z0WeXfdu3y6nVYVHirkzHghA2Ab1KP5UjnOMzZpmZhfsbtRUKu2z2lcVfc5bzNMy7J1m7uR1n7VgmwPSOCsUqrwazFTJhvBaSBrJP4kH8qhzHl6U/IXvPY8Z0WeXfdu3yd204zBnqm0kLZiFMqXwSbtoPrKGKpV59ZkmTNfLi9wG5KRwSOYfd02qzqRJTJhPqbWN4G1KhwUNxGMv58ptVCGZhTElesbNrPqqOAbi4NweTpT8he89jxnRZ5d927f0vyGIzZcfebaQN6lqCUjrOKppCokEKRGKpjo2WRsRfpWcVnOVarOs2t8MRzs7i1dII9Y7z9/Rs41qjBLTb4ejjc09dQH8p3jFL0h0SaEol60N02vrjWQT0KGI8mNLbDsd9t1B3KQoKSesfTpT8he89jxnK+ajloT7QQ+ZHc9pc1NXud/VN73w9pOqh/g06MjpWVr/AGIxKz3mWVcd/BlJ5mkJT+ticSZcqY53STJceX+ZxRWf7nxOPKkxHA5HkOMuDcpCig/3GImeszRbDv8A7skczyErwzpPqibB6nRl9KCpH7k4zRmo5lTAvBDBj902hzX1u6W6Ba1v/GX/xAAiEQEAAQMEAgMBAAAAAAAAAAABEAACERIwMUAgIiFBcEL/2gAIAQIBAT8A/HAErTSbANaaQDdt4lt8gm7jdLsUOZTPgGJXFLnfLpuItJbulawwRc9M5n7l56nvXvXzmvevfqHM/wBda0hgi46RbNzFrLbvhmsErjwHMpmkxu28SvkM3cbomK1UuwOK1Uon47//xABBEQABAwEEBQYJCwUBAAAAAAACAQMEBQAGERIQEyIyQiEwQVJicSNAcoKDkaKywRQWIDM1YXCBkqGjFSU2ZbHS/9oACAEDAQE/APwcr95KrT6xJYZfDVDlygQpxCi2iX8lCuEqGBD2MU/7am3lpVSURB/VudRzZX8uYqV5aVTlITd1jnUb2vXaVfuUS4RYYNj2sSW1AvJVajWIzD74ass2YBFOEVXnb3f5BO9H7qaEXC1DvZKgEDMozej+0Pcto0liYwLzDuZst0voSpUeEwbz7uVseK1bvXLnkbUZdTH9ou9bY46Lo/b8H0nurzteunNqU9+Yw+14TLsFiO6iJafQ6nTuWRFNB6+8PrTTd2vOUiUgmuaM5vD8Us04DzYONlmEtoC0POtstm44WUR2iK14a67V5KoK5Yw7gfFfvXTAoVTqPLHimo9c9kfWtqDdObTp7Ex59rwebYHHiRU54wFwcpJiNrxXTbITl04cpDvtdbusqKi4LouTVicbcpzp7Q7TXk9KaL7VZQFunNHvbTvwTQiKqoiWu9dJsACXUBzGW41wj32ERbHKKeI3yo4QpITGQ8G9v9k9FLmLBqESSnAfs9NlcBGtZm2cMbVOWc6dKklxn7PRouZRwlSSnPBmbZ3O0fid5IiS6NMHiENYPm8ukpi/NLX8XyPL527pu7ESJSIYcRBmLvLl8TfRlWHUd+ryFn8npthcPsfyWwuH2P5Lf2T+if67zut67Z7idj9Lls9xex+lyzCtKw0rX1eQcnk9Hid4pYw6RMPiIMod5cmkIa/NLUcXyTN52GbTduWkujQy4hDVn5vJ4nfOsJKkjCZPM2zv9o9FMiHOnRI48Zj+npsjQI1q8mzhhaqwzg1CVGXgP2ejRc2sDDklDePK29udk/ETIQHMS7Nrw3tbADiU8sxFvu8I91lVSVVXRcmkqAlUXQ3tlr4rovrSVcbbqLQbuy75PQuhFVFRUtd29gKARag7lLgd/wDVgMXBzCuI89Xr2TadPfhsMNeDy7ZY8SItp9dqdR5JEo1HqBsj6k03eoT1XkopJljDvn8E+9bMtNstg22OUQ2RDQ62DzZtuDmEtkwteKgu0mSpAmaM5uF8F0wK5U6dyR5RoPUXaH1Lag3sm1GexDfYa8Jm2xxHdRV52932/O9H7qaaHdOXPIHpKamP7RdyWixWIbAMsNZWx4foSYzExgmX2szZbw2rl05UEjeiob0f2h77YYaLo/b8H0nurzteu3VajWJL7DAaosuUyJOEUS0W4colxlTAbHs4qv72pt2qVTlAga1jnXc2vVzFSu1SqipEbGrcLjb2V/O0q4coVxizAIe3ihftagXbqtPrEZ99gNUObMYknEKp+Dv/2Q==" vertex="1" parent="iXIntG2NBJSnMrhjwnnG-15">
          <mxGeometry x="420" y="320" width="78" height="78" as="geometry" />
        </mxCell>
        <mxCell id="iXIntG2NBJSnMrhjwnnG-17" style="edgeStyle=orthogonalEdgeStyle;rounded=0;orthogonalLoop=1;jettySize=auto;html=1;" edge="1" parent="1" source="iXIntG2NBJSnMrhjwnnG-11" target="iXIntG2NBJSnMrhjwnnG-16">
          <mxGeometry relative="1" as="geometry" />
        </mxCell>
      </root>
    </mxGraphModel>
  </diagram>
</mxfile>
